<svg xmlns="http://www.w3.org/2000/svg" xmlns:xlink="http://www.w3.org/1999/xlink" xmlns:s="https://github.com/nturley/netlistsvg" width="969" height="1727.5">
  <style>svg {
    stroke:#000;
    fill:none;
  }
  text {
    fill:#000;
    stroke:none;
    font-size:10px;
    font-weight: bold;
    font-family: "Courier New", monospace;
  }
  .nodelabel {
    text-anchor: middle;
  }
  .inputPortLabel {
    text-anchor: end;
  }
  .splitjoinBody {
    fill:#000;
  }</style>
  <g s:type="eq" transform="translate(182.33333333333334,866.5)" s:width="25" s:height="25" id="cell_$eq$rtl/results/canonical/sv/controller.sv:41$7">
    <s:alias val="$eq"/>
    <circle r="12.5" cx="12.5" cy="12.5" class="cell_$eq$rtl/results/canonical/sv/controller.sv:41$7"/>
    <line x1="7.5" x2="17.5" y1="10" y2="10" class="cell_$eq$rtl/results/canonical/sv/controller.sv:41$7"/>
    <line x1="7.5" x2="17.5" y1="15" y2="15" class="cell_$eq$rtl/results/canonical/sv/controller.sv:41$7"/>
    <g s:x="3" s:y="5" s:pid="A"/>
    <g s:x="3" s:y="20" s:pid="B"/>
    <g s:x="25" s:y="12.5" s:pid="Y"/>
  </g>
  <g s:type="eq" transform="translate(182.33333333333334,806.5)" s:width="25" s:height="25" id="cell_$eq$rtl/results/canonical/sv/controller.sv:44$9">
    <s:alias val="$eq"/>
    <circle r="12.5" cx="12.5" cy="12.5" class="cell_$eq$rtl/results/canonical/sv/controller.sv:44$9"/>
    <line x1="7.5" x2="17.5" y1="10" y2="10" class="cell_$eq$rtl/results/canonical/sv/controller.sv:44$9"/>
    <line x1="7.5" x2="17.5" y1="15" y2="15" class="cell_$eq$rtl/results/canonical/sv/controller.sv:44$9"/>
    <g s:x="3" s:y="5" s:pid="A"/>
    <g s:x="3" s:y="20" s:pid="B"/>
    <g s:x="25" s:y="12.5" s:pid="Y"/>
  </g>
  <g s:type="eq" transform="translate(182.33333333333334,563.5)" s:width="25" s:height="25" id="cell_$eq$rtl/results/canonical/sv/controller.sv:45$11">
    <s:alias val="$eq"/>
    <circle r="12.5" cx="12.5" cy="12.5" class="cell_$eq$rtl/results/canonical/sv/controller.sv:45$11"/>
    <line x1="7.5" x2="17.5" y1="10" y2="10" class="cell_$eq$rtl/results/canonical/sv/controller.sv:45$11"/>
    <line x1="7.5" x2="17.5" y1="15" y2="15" class="cell_$eq$rtl/results/canonical/sv/controller.sv:45$11"/>
    <g s:x="3" s:y="5" s:pid="A"/>
    <g s:x="3" s:y="20" s:pid="B"/>
    <g s:x="25" s:y="12.5" s:pid="Y"/>
  </g>
  <g s:type="and" transform="translate(798,1613)" s:width="30" s:height="25" id="cell_$logic_and$rtl/results/canonical/sv/controller.sv:63$21">
    <s:alias val="$and"/>
    <s:alias val="$logic_and"/>
    <s:alias val="$_AND_"/>
    <path d="M0,0 L0,25 L15,25 A15 12.5 0 0 0 15,0 Z" class="cell_$logic_and$rtl/results/canonical/sv/controller.sv:63$21"/>
    <g s:x="0" s:y="5" s:pid="A"/>
    <g s:x="0" s:y="20" s:pid="B"/>
    <g s:x="30" s:y="12.5" s:pid="Y"/>
  </g>
  <g s:type="and" transform="translate(798,1418)" s:width="30" s:height="25" id="cell_$logic_and$rtl/results/canonical/sv/controller.sv:67$27">
    <s:alias val="$and"/>
    <s:alias val="$logic_and"/>
    <s:alias val="$_AND_"/>
    <path d="M0,0 L0,25 L15,25 A15 12.5 0 0 0 15,0 Z" class="cell_$logic_and$rtl/results/canonical/sv/controller.sv:67$27"/>
    <g s:x="0" s:y="5" s:pid="A"/>
    <g s:x="0" s:y="20" s:pid="B"/>
    <g s:x="30" s:y="12.5" s:pid="Y"/>
  </g>
  <g s:type="and" transform="translate(798,1338)" s:width="30" s:height="25" id="cell_$logic_and$rtl/results/canonical/sv/controller.sv:70$32">
    <s:alias val="$and"/>
    <s:alias val="$logic_and"/>
    <s:alias val="$_AND_"/>
    <path d="M0,0 L0,25 L15,25 A15 12.5 0 0 0 15,0 Z" class="cell_$logic_and$rtl/results/canonical/sv/controller.sv:70$32"/>
    <g s:x="0" s:y="5" s:pid="A"/>
    <g s:x="0" s:y="20" s:pid="B"/>
    <g s:x="30" s:y="12.5" s:pid="Y"/>
  </g>
  <g s:type="lt" transform="translate(485.3333333333333,1620.5)" s:width="25" s:height="25" id="cell_$lt$rtl/results/canonical/sv/controller.sv:63$20">
    <s:alias val="$lt"/>
    <circle r="12.5" cx="12.5" cy="12.5" class="cell_$lt$rtl/results/canonical/sv/controller.sv:63$20"/>
    <line x1="7.5" x2="17.5" y1="12.5" y2="7.5" class="cell_$lt$rtl/results/canonical/sv/controller.sv:63$20"/>
    <line x1="7.5" x2="17.5" y1="12.5" y2="17.5" class="cell_$lt$rtl/results/canonical/sv/controller.sv:63$20"/>
    <g s:x="3" s:y="5" s:pid="A"/>
    <g s:x="3" s:y="20" s:pid="B"/>
    <g s:x="25" s:y="12.5" s:pid="Y"/>
  </g>
  <g s:type="lt" transform="translate(485.3333333333333,1425.5)" s:width="25" s:height="25" id="cell_$lt$rtl/results/canonical/sv/controller.sv:67$26">
    <s:alias val="$lt"/>
    <circle r="12.5" cx="12.5" cy="12.5" class="cell_$lt$rtl/results/canonical/sv/controller.sv:67$26"/>
    <line x1="7.5" x2="17.5" y1="12.5" y2="7.5" class="cell_$lt$rtl/results/canonical/sv/controller.sv:67$26"/>
    <line x1="7.5" x2="17.5" y1="12.5" y2="17.5" class="cell_$lt$rtl/results/canonical/sv/controller.sv:67$26"/>
    <g s:x="3" s:y="5" s:pid="A"/>
    <g s:x="3" s:y="20" s:pid="B"/>
    <g s:x="25" s:y="12.5" s:pid="Y"/>
  </g>
  <g s:type="generic" transform="translate(400,1176.5)" s:width="30" s:height="40" id="cell_$ne$rtl/results/canonical/sv/controller.sv:70$30">
    <text x="15" y="-4" class="nodelabel cell_$ne$rtl/results/canonical/sv/controller.sv:70$30" s:attribute="ref">$reduce_bool</text>
    <rect width="30" height="20" s:generic="body" class="cell_$ne$rtl/results/canonical/sv/controller.sv:70$30"/>
    <g transform="translate(0,10)" s:x="0" s:y="10" s:pid="in0" id="port_$ne$rtl/results/canonical/sv/controller.sv:70$30~A">
      <text x="-3" y="-4" class="inputPortLabel cell_$ne$rtl/results/canonical/sv/controller.sv:70$30">A</text>
    </g>
    <g transform="translate(30,10)" s:x="30" s:y="10" s:pid="out0" id="port_$ne$rtl/results/canonical/sv/controller.sv:70$30~Y">
      <text x="5" y="-4" style="fill:#000; stroke:none" class="cell_$ne$rtl/results/canonical/sv/controller.sv:70$30">Y</text>
    </g>
  </g>
  <g s:type="generic" transform="translate(400,1347.5)" s:width="30" s:height="40" id="cell_$ne$rtl/results/canonical/sv/controller.sv:70$31">
    <text x="15" y="-4" class="nodelabel cell_$ne$rtl/results/canonical/sv/controller.sv:70$31" s:attribute="ref">$ne</text>
    <rect width="30" height="40" s:generic="body" class="cell_$ne$rtl/results/canonical/sv/controller.sv:70$31"/>
    <g transform="translate(0,10)" s:x="0" s:y="10" s:pid="in0" id="port_$ne$rtl/results/canonical/sv/controller.sv:70$31~A">
      <text x="-3" y="-4" class="inputPortLabel cell_$ne$rtl/results/canonical/sv/controller.sv:70$31">A</text>
    </g>
    <g transform="translate(0,30)" s:x="0" s:y="10" s:pid="in0" id="port_$ne$rtl/results/canonical/sv/controller.sv:70$31~B">
      <text x="-3" y="-4" class="inputPortLabel cell_$ne$rtl/results/canonical/sv/controller.sv:70$31">B</text>
    </g>
    <g transform="translate(30,10)" s:x="30" s:y="10" s:pid="out0" id="port_$ne$rtl/results/canonical/sv/controller.sv:70$31~Y">
      <text x="5" y="-4" style="fill:#000; stroke:none" class="cell_$ne$rtl/results/canonical/sv/controller.sv:70$31">Y</text>
    </g>
  </g>
  <g s:type="generic" transform="translate(177,1229)" s:width="30" s:height="40" id="cell_$procdff$78">
    <text x="15" y="-4" class="nodelabel cell_$procdff$78" s:attribute="ref">$adff</text>
    <rect width="30" height="60" s:generic="body" class="cell_$procdff$78"/>
    <g transform="translate(0,10)" s:x="0" s:y="10" s:pid="in0" id="port_$procdff$78~ARST">
      <text x="-3" y="-4" class="inputPortLabel cell_$procdff$78">ARST</text>
    </g>
    <g transform="translate(0,30)" s:x="0" s:y="10" s:pid="in0" id="port_$procdff$78~CLK">
      <text x="-3" y="-4" class="inputPortLabel cell_$procdff$78">CLK</text>
    </g>
    <g transform="translate(0,50)" s:x="0" s:y="10" s:pid="in0" id="port_$procdff$78~D">
      <text x="-3" y="-4" class="inputPortLabel cell_$procdff$78">D</text>
    </g>
    <g transform="translate(30,10)" s:x="30" s:y="10" s:pid="out0" id="port_$procdff$78~Q">
      <text x="5" y="-4" style="fill:#000; stroke:none" class="cell_$procdff$78">Q</text>
    </g>
  </g>
  <g s:type="mux" transform="translate(863,201)" s:width="20" s:height="40" id="cell_$procmux$64">
    <s:alias val="$pmux"/>
    <s:alias val="$mux"/>
    <s:alias val="$_MUX_"/>
    <path d="M0,0 L20,10 L20,30 L0,40 Z" class="cell_$procmux$64"/>
    <g s:x="0" s:y="10" s:pid="A"/>
    <g s:x="0" s:y="30" s:pid="B"/>
    <g s:x="10" s:y="35" s:pid="S"/>
    <g s:x="20" s:y="20" s:pid="Y"/>
  </g>
  <g s:type="eq" transform="translate(485.3333333333333,866.5)" s:width="25" s:height="25" id="cell_$procmux$65_CMP0">
    <s:alias val="$eq"/>
    <circle r="12.5" cx="12.5" cy="12.5" class="cell_$procmux$65_CMP0"/>
    <line x1="7.5" x2="17.5" y1="10" y2="10" class="cell_$procmux$65_CMP0"/>
    <line x1="7.5" x2="17.5" y1="15" y2="15" class="cell_$procmux$65_CMP0"/>
    <g s:x="3" s:y="5" s:pid="A"/>
    <g s:x="3" s:y="20" s:pid="B"/>
    <g s:x="25" s:y="12.5" s:pid="Y"/>
  </g>
  <g s:type="eq" transform="translate(485.3333333333333,1051.5)" s:width="25" s:height="25" id="cell_$procmux$66_CMP0">
    <s:alias val="$eq"/>
    <circle r="12.5" cx="12.5" cy="12.5" class="cell_$procmux$66_CMP0"/>
    <line x1="7.5" x2="17.5" y1="10" y2="10" class="cell_$procmux$66_CMP0"/>
    <line x1="7.5" x2="17.5" y1="15" y2="15" class="cell_$procmux$66_CMP0"/>
    <g s:x="3" s:y="5" s:pid="A"/>
    <g s:x="3" s:y="20" s:pid="B"/>
    <g s:x="25" s:y="12.5" s:pid="Y"/>
  </g>
  <g s:type="eq" transform="translate(485.3333333333333,991.5)" s:width="25" s:height="25" id="cell_$procmux$67_CMP0">
    <s:alias val="$eq"/>
    <circle r="12.5" cx="12.5" cy="12.5" class="cell_$procmux$67_CMP0"/>
    <line x1="7.5" x2="17.5" y1="10" y2="10" class="cell_$procmux$67_CMP0"/>
    <line x1="7.5" x2="17.5" y1="15" y2="15" class="cell_$procmux$67_CMP0"/>
    <g s:x="3" s:y="5" s:pid="A"/>
    <g s:x="3" s:y="20" s:pid="B"/>
    <g s:x="25" s:y="12.5" s:pid="Y"/>
  </g>
  <g s:type="eq" transform="translate(485.3333333333333,931.5)" s:width="25" s:height="25" id="cell_$procmux$68_CMP0">
    <s:alias val="$eq"/>
    <circle r="12.5" cx="12.5" cy="12.5" class="cell_$procmux$68_CMP0"/>
    <line x1="7.5" x2="17.5" y1="10" y2="10" class="cell_$procmux$68_CMP0"/>
    <line x1="7.5" x2="17.5" y1="15" y2="15" class="cell_$procmux$68_CMP0"/>
    <g s:x="3" s:y="5" s:pid="A"/>
    <g s:x="3" s:y="20" s:pid="B"/>
    <g s:x="25" s:y="12.5" s:pid="Y"/>
  </g>
  <g s:type="eq" transform="translate(485.3333333333333,806.5)" s:width="25" s:height="25" id="cell_$procmux$69_CMP0">
    <s:alias val="$eq"/>
    <circle r="12.5" cx="12.5" cy="12.5" class="cell_$procmux$69_CMP0"/>
    <line x1="7.5" x2="17.5" y1="10" y2="10" class="cell_$procmux$69_CMP0"/>
    <line x1="7.5" x2="17.5" y1="15" y2="15" class="cell_$procmux$69_CMP0"/>
    <g s:x="3" s:y="5" s:pid="A"/>
    <g s:x="3" s:y="20" s:pid="B"/>
    <g s:x="25" s:y="12.5" s:pid="Y"/>
  </g>
  <g s:type="eq" transform="translate(485.3333333333333,446)" s:width="25" s:height="25" id="cell_$procmux$70_CMP0">
    <s:alias val="$eq"/>
    <circle r="12.5" cx="12.5" cy="12.5" class="cell_$procmux$70_CMP0"/>
    <line x1="7.5" x2="17.5" y1="10" y2="10" class="cell_$procmux$70_CMP0"/>
    <line x1="7.5" x2="17.5" y1="15" y2="15" class="cell_$procmux$70_CMP0"/>
    <g s:x="3" s:y="5" s:pid="A"/>
    <g s:x="3" s:y="20" s:pid="B"/>
    <g s:x="25" s:y="12.5" s:pid="Y"/>
  </g>
  <g s:type="eq" transform="translate(485.3333333333333,1234.5)" s:width="25" s:height="25" id="cell_$procmux$71_CMP0">
    <s:alias val="$eq"/>
    <circle r="12.5" cx="12.5" cy="12.5" class="cell_$procmux$71_CMP0"/>
    <line x1="7.5" x2="17.5" y1="10" y2="10" class="cell_$procmux$71_CMP0"/>
    <line x1="7.5" x2="17.5" y1="15" y2="15" class="cell_$procmux$71_CMP0"/>
    <g s:x="3" s:y="5" s:pid="A"/>
    <g s:x="3" s:y="20" s:pid="B"/>
    <g s:x="25" s:y="12.5" s:pid="Y"/>
  </g>
  <g s:type="eq" transform="translate(485.3333333333333,653.5)" s:width="25" s:height="25" id="cell_$procmux$72_CMP0">
    <s:alias val="$eq"/>
    <circle r="12.5" cx="12.5" cy="12.5" class="cell_$procmux$72_CMP0"/>
    <line x1="7.5" x2="17.5" y1="10" y2="10" class="cell_$procmux$72_CMP0"/>
    <line x1="7.5" x2="17.5" y1="15" y2="15" class="cell_$procmux$72_CMP0"/>
    <g s:x="3" s:y="5" s:pid="A"/>
    <g s:x="3" s:y="20" s:pid="B"/>
    <g s:x="25" s:y="12.5" s:pid="Y"/>
  </g>
  <g s:type="not" transform="translate(525.5,1111.5)" s:width="30" s:height="20" id="cell_$procmux$73_CMP0">
    <s:alias val="$_NOT_"/>
    <s:alias val="$not"/>
    <s:alias val="$logic_not"/>
    <path d="M0,0 L0,20 L20,10 Z" class="cell_$procmux$73_CMP0"/>
    <circle cx="23" cy="10" r="3" class="cell_$procmux$73_CMP0"/>
    <g s:x="0" s:y="10" s:pid="A"/>
    <g s:x="25" s:y="10" s:pid="Y"/>
  </g>
  <g s:type="mux" transform="translate(487,506)" s:width="20" s:height="40" id="cell_$ternary$rtl/results/canonical/sv/controller.sv:39$6">
    <s:alias val="$pmux"/>
    <s:alias val="$mux"/>
    <s:alias val="$_MUX_"/>
    <path d="M0,0 L20,10 L20,30 L0,40 Z" class="cell_$ternary$rtl/results/canonical/sv/controller.sv:39$6"/>
    <g s:x="0" s:y="10" s:pid="A"/>
    <g s:x="0" s:y="30" s:pid="B"/>
    <g s:x="10" s:y="35" s:pid="S"/>
    <g s:x="20" s:y="20" s:pid="Y"/>
  </g>
  <g s:type="mux" transform="translate(487,386)" s:width="20" s:height="40" id="cell_$ternary$rtl/results/canonical/sv/controller.sv:41$8">
    <s:alias val="$pmux"/>
    <s:alias val="$mux"/>
    <s:alias val="$_MUX_"/>
    <path d="M0,0 L20,10 L20,30 L0,40 Z" class="cell_$ternary$rtl/results/canonical/sv/controller.sv:41$8"/>
    <g s:x="0" s:y="10" s:pid="A"/>
    <g s:x="0" s:y="30" s:pid="B"/>
    <g s:x="10" s:y="35" s:pid="S"/>
    <g s:x="20" s:y="20" s:pid="Y"/>
  </g>
  <g s:type="mux" transform="translate(487,261)" s:width="20" s:height="40" id="cell_$ternary$rtl/results/canonical/sv/controller.sv:44$10">
    <s:alias val="$pmux"/>
    <s:alias val="$mux"/>
    <s:alias val="$_MUX_"/>
    <path d="M0,0 L20,10 L20,30 L0,40 Z" class="cell_$ternary$rtl/results/canonical/sv/controller.sv:44$10"/>
    <g s:x="0" s:y="10" s:pid="A"/>
    <g s:x="0" s:y="30" s:pid="B"/>
    <g s:x="10" s:y="35" s:pid="S"/>
    <g s:x="20" s:y="20" s:pid="Y"/>
  </g>
  <g s:type="mux" transform="translate(487,190)" s:width="20" s:height="40" id="cell_$ternary$rtl/results/canonical/sv/controller.sv:45$12">
    <s:alias val="$pmux"/>
    <s:alias val="$mux"/>
    <s:alias val="$_MUX_"/>
    <path d="M0,0 L20,10 L20,30 L0,40 Z" class="cell_$ternary$rtl/results/canonical/sv/controller.sv:45$12"/>
    <g s:x="0" s:y="10" s:pid="A"/>
    <g s:x="0" s:y="30" s:pid="B"/>
    <g s:x="10" s:y="35" s:pid="S"/>
    <g s:x="20" s:y="20" s:pid="Y"/>
  </g>
  <g s:type="mux" transform="translate(487,119)" s:width="20" s:height="40" id="cell_$ternary$rtl/results/canonical/sv/controller.sv:47$13">
    <s:alias val="$pmux"/>
    <s:alias val="$mux"/>
    <s:alias val="$_MUX_"/>
    <path d="M0,0 L20,10 L20,30 L0,40 Z" class="cell_$ternary$rtl/results/canonical/sv/controller.sv:47$13"/>
    <g s:x="0" s:y="10" s:pid="A"/>
    <g s:x="0" s:y="30" s:pid="B"/>
    <g s:x="10" s:y="35" s:pid="S"/>
    <g s:x="20" s:y="20" s:pid="Y"/>
  </g>
  <g s:type="inputExt" transform="translate(12,1695.5)" s:width="30" s:height="20" id="cell_clk">
    <text x="15" y="-4" class="nodelabel cell_clk" s:attribute="ref">clk</text>
    <s:alias val="$_inputExt_"/>
    <path d="M0,0 L0,20 L15,20 L30,10 L15,0 Z" class="cell_clk"/>
    <g s:x="28" s:y="10" s:pid="Y"/>
  </g>
  <g s:type="inputExt" transform="translate(12,1565.5)" s:width="30" s:height="20" id="cell_rst_n">
    <text x="15" y="-4" class="nodelabel cell_rst_n" s:attribute="ref">rst_n</text>
    <s:alias val="$_inputExt_"/>
    <path d="M0,0 L0,20 L15,20 L30,10 L15,0 Z" class="cell_rst_n"/>
    <g s:x="28" s:y="10" s:pid="Y"/>
  </g>
  <g s:type="inputExt" transform="translate(177,633.5)" s:width="30" s:height="20" id="cell_start">
    <text x="15" y="-4" class="nodelabel cell_start" s:attribute="ref">start</text>
    <s:alias val="$_inputExt_"/>
    <path d="M0,0 L0,20 L15,20 L30,10 L15,0 Z" class="cell_start"/>
    <g s:x="28" s:y="10" s:pid="Y"/>
  </g>
  <g s:type="inputExt" transform="translate(12,801.5)" s:width="30" s:height="20" id="cell_hidden_idx">
    <text x="15" y="-4" class="nodelabel cell_hidden_idx" s:attribute="ref">hidden_idx</text>
    <s:alias val="$_inputExt_"/>
    <path d="M0,0 L0,20 L15,20 L30,10 L15,0 Z" class="cell_hidden_idx"/>
    <g s:x="28" s:y="10" s:pid="Y"/>
  </g>
  <g s:type="inputExt" transform="translate(12,1500.5)" s:width="30" s:height="20" id="cell_input_idx">
    <text x="15" y="-4" class="nodelabel cell_input_idx" s:attribute="ref">input_idx</text>
    <s:alias val="$_inputExt_"/>
    <path d="M0,0 L0,20 L15,20 L30,10 L15,0 Z" class="cell_input_idx"/>
    <g s:x="28" s:y="10" s:pid="Y"/>
  </g>
  <g s:type="outputExt" transform="translate(863,22)" s:width="30" s:height="20" id="cell_state">
    <text x="15" y="-4" class="nodelabel cell_state" s:attribute="ref">state</text>
    <s:alias val="$_outputExt_"/>
    <path d="M30,0 L30,20 L15,20 L0,10 L15,0 Z" class="cell_state"/>
    <g s:x="0" s:y="10" s:pid="A"/>
  </g>
  <g s:type="outputExt" transform="translate(863,656)" s:width="30" s:height="20" id="cell_load_input">
    <text x="15" y="-4" class="nodelabel cell_load_input" s:attribute="ref">load_input</text>
    <s:alias val="$_outputExt_"/>
    <path d="M30,0 L30,20 L15,20 L0,10 L15,0 Z" class="cell_load_input"/>
    <g s:x="0" s:y="10" s:pid="A"/>
  </g>
  <g s:type="outputExt" transform="translate(863,526)" s:width="30" s:height="20" id="cell_clear_acc">
    <text x="15" y="-4" class="nodelabel cell_clear_acc" s:attribute="ref">clear_acc</text>
    <s:alias val="$_outputExt_"/>
    <path d="M30,0 L30,20 L15,20 L0,10 L15,0 Z" class="cell_clear_acc"/>
    <g s:x="0" s:y="10" s:pid="A"/>
  </g>
  <g s:type="outputExt" transform="translate(863,1615.5)" s:width="30" s:height="20" id="cell_do_mac_hidden">
    <text x="15" y="-4" class="nodelabel cell_do_mac_hidden" s:attribute="ref">do_mac_hidden</text>
    <s:alias val="$_outputExt_"/>
    <path d="M30,0 L30,20 L15,20 L0,10 L15,0 Z" class="cell_do_mac_hidden"/>
    <g s:x="0" s:y="10" s:pid="A"/>
  </g>
  <g s:type="outputExt" transform="translate(863,87)" s:width="30" s:height="20" id="cell_do_bias_hidden">
    <text x="15" y="-4" class="nodelabel cell_do_bias_hidden" s:attribute="ref">do_bias_hidden</text>
    <s:alias val="$_outputExt_"/>
    <path d="M30,0 L30,20 L15,20 L0,10 L15,0 Z" class="cell_do_bias_hidden"/>
    <g s:x="0" s:y="10" s:pid="A"/>
  </g>
  <g s:type="outputExt" transform="translate(863,591)" s:width="30" s:height="20" id="cell_do_act_hidden">
    <text x="15" y="-4" class="nodelabel cell_do_act_hidden" s:attribute="ref">do_act_hidden</text>
    <s:alias val="$_outputExt_"/>
    <path d="M30,0 L30,20 L15,20 L0,10 L15,0 Z" class="cell_do_act_hidden"/>
    <g s:x="0" s:y="10" s:pid="A"/>
  </g>
  <g s:type="outputExt" transform="translate(863,934)" s:width="30" s:height="20" id="cell_advance_hidden">
    <text x="15" y="-4" class="nodelabel cell_advance_hidden" s:attribute="ref">advance_hidden</text>
    <s:alias val="$_outputExt_"/>
    <path d="M30,0 L30,20 L15,20 L0,10 L15,0 Z" class="cell_advance_hidden"/>
    <g s:x="0" s:y="10" s:pid="A"/>
  </g>
  <g s:type="outputExt" transform="translate(863,1420.5)" s:width="30" s:height="20" id="cell_do_mac_output">
    <text x="15" y="-4" class="nodelabel cell_do_mac_output" s:attribute="ref">do_mac_output</text>
    <s:alias val="$_outputExt_"/>
    <path d="M30,0 L30,20 L15,20 L0,10 L15,0 Z" class="cell_do_mac_output"/>
    <g s:x="0" s:y="10" s:pid="A"/>
  </g>
  <g s:type="outputExt" transform="translate(863,1480.5)" s:width="30" s:height="20" id="cell_do_bias_output">
    <text x="15" y="-4" class="nodelabel cell_do_bias_output" s:attribute="ref">do_bias_output</text>
    <s:alias val="$_outputExt_"/>
    <path d="M30,0 L30,20 L15,20 L0,10 L15,0 Z" class="cell_do_bias_output"/>
    <g s:x="0" s:y="10" s:pid="A"/>
  </g>
  <g s:type="outputExt" transform="translate(863,869)" s:width="30" s:height="20" id="cell_done">
    <text x="15" y="-4" class="nodelabel cell_done" s:attribute="ref">done</text>
    <s:alias val="$_outputExt_"/>
    <path d="M30,0 L30,20 L15,20 L0,10 L15,0 Z" class="cell_done"/>
    <g s:x="0" s:y="10" s:pid="A"/>
  </g>
  <g s:type="outputExt" transform="translate(863,804)" s:width="30" s:height="20" id="cell_busy">
    <text x="15" y="-4" class="nodelabel cell_busy" s:attribute="ref">busy</text>
    <s:alias val="$_outputExt_"/>
    <path d="M30,0 L30,20 L15,20 L0,10 L15,0 Z" class="cell_busy"/>
    <g s:x="0" s:y="10" s:pid="A"/>
  </g>
  <g s:type="constant" transform="translate(12,1630.5)" s:width="30" s:height="20" id="cell_0100">
    <text x="15" y="-4" class="nodelabel cell_0100" s:attribute="ref">0x4</text>
    <s:alias val="$_constant_"/>
    <rect width="30" height="20" class="cell_0100"/>
    <g s:x="30" s:y="10" s:pid="Y"/>
  </g>
  <g s:type="constant" transform="translate(12,1357)" s:width="30" s:height="20" id="cell_0111">
    <text x="15" y="-4" class="nodelabel cell_0111" s:attribute="ref">0x7</text>
    <s:alias val="$_constant_"/>
    <rect width="30" height="20" class="cell_0111"/>
    <g s:x="30" s:y="10" s:pid="Y"/>
  </g>
  <g s:type="constant" transform="translate(12,1435.5)" s:width="30" s:height="20" id="cell_1000">
    <text x="15" y="-4" class="nodelabel cell_1000" s:attribute="ref">0x8</text>
    <s:alias val="$_constant_"/>
    <rect width="30" height="20" class="cell_1000"/>
    <g s:x="30" s:y="10" s:pid="Y"/>
  </g>
  <g s:type="constant" transform="translate(177,506)" s:width="30" s:height="20" id="cell_0000">
    <text x="15" y="-4" class="nodelabel cell_0000" s:attribute="ref">0x0</text>
    <s:alias val="$_constant_"/>
    <rect width="30" height="20" class="cell_0000"/>
    <g s:x="30" s:y="10" s:pid="Y"/>
  </g>
  <g s:type="constant" transform="translate(400,331)" s:width="30" s:height="20" id="cell_01000101">
    <text x="15" y="-4" class="nodelabel cell_01000101" s:attribute="ref">0x45</text>
    <s:alias val="$_constant_"/>
    <rect width="30" height="20" class="cell_01000101"/>
    <g s:x="30" s:y="10" s:pid="Y"/>
  </g>
  <g s:type="constant" transform="translate(177,1102)" s:width="30" s:height="20" id="cell_0010">
    <text x="15" y="-4" class="nodelabel cell_0010" s:attribute="ref">0x2</text>
    <s:alias val="$_constant_"/>
    <rect width="30" height="20" class="cell_0010"/>
    <g s:x="30" s:y="10" s:pid="Y"/>
  </g>
  <g s:type="constant" transform="translate(177,1001.5)" s:width="30" s:height="20" id="cell_0110">
    <text x="15" y="-4" class="nodelabel cell_0110" s:attribute="ref">0x6</text>
    <s:alias val="$_constant_"/>
    <rect width="30" height="20" class="cell_0110"/>
    <g s:x="30" s:y="10" s:pid="Y"/>
  </g>
  <g s:type="constant" transform="translate(177,1337)" s:width="30" s:height="20" id="cell_0101">
    <text x="15" y="-4" class="nodelabel cell_0101" s:attribute="ref">0x5</text>
    <s:alias val="$_constant_"/>
    <rect width="30" height="20" class="cell_0101"/>
    <g s:x="30" s:y="10" s:pid="Y"/>
  </g>
  <g s:type="constant" transform="translate(177,936.5)" s:width="30" s:height="20" id="cell_0011">
    <text x="15" y="-4" class="nodelabel cell_0011" s:attribute="ref">0x3</text>
    <s:alias val="$_constant_"/>
    <rect width="30" height="20" class="cell_0011"/>
    <g s:x="30" s:y="10" s:pid="Y"/>
  </g>
  <g s:type="constant" transform="translate(177,1167)" s:width="30" s:height="20" id="cell_0001">
    <text x="15" y="-4" class="nodelabel cell_0001" s:attribute="ref">0x1</text>
    <s:alias val="$_constant_"/>
    <rect width="30" height="20" class="cell_0001"/>
    <g s:x="30" s:y="10" s:pid="Y"/>
  </g>
  <g s:type="join" transform="translate(801.7142857142857,210.5)" s:width="4" s:height="40" id="cell_$join$,39,40,41,42,68,69,70,71,43,44,45,46,47,48,49,50,92,93,94,95,96,97,98,99,51,52,53,54,100,101,102,103,55,56,57,58,">
    <rect width="5" height="160" class="splitjoinBody" s:generic="body"/>
    <s:alias val="$_join_"/>
    <g s:x="5" s:y="20" s:pid="out"/>
    <g transform="translate(0,10)" s:x="0" s:y="10" s:pid="in0">
      <text x="-3" y="-4" class="inputPortLabel">0:3</text>
    </g>
    <g transform="translate(0,30)" s:x="0" s:y="10" s:pid="in0">
      <text x="-3" y="-4" class="inputPortLabel">4:7</text>
    </g>
    <g transform="translate(0,50)" s:x="0" s:y="10" s:pid="in0">
      <text x="-3" y="-4" class="inputPortLabel">8:11</text>
    </g>
    <g transform="translate(0,70)" s:x="0" s:y="10" s:pid="in0">
      <text x="-3" y="-4" class="inputPortLabel">12:15</text>
    </g>
    <g transform="translate(0,90)" s:x="0" s:y="10" s:pid="in0">
      <text x="-3" y="-4" class="inputPortLabel">16:23</text>
    </g>
    <g transform="translate(0,110)" s:x="0" s:y="10" s:pid="in0">
      <text x="-3" y="-4" class="inputPortLabel">24:27</text>
    </g>
    <g transform="translate(0,130)" s:x="0" s:y="10" s:pid="in0">
      <text x="-3" y="-4" class="inputPortLabel">28:31</text>
    </g>
    <g transform="translate(0,150)" s:x="0" s:y="10" s:pid="in0">
      <text x="-3" y="-4" class="inputPortLabel">32:35</text>
    </g>
  </g>
  <g s:type="join" transform="translate(801.25,689)" s:width="4" s:height="40" id="cell_$join$,24,23,31,21,20,19,29,17,59,">
    <rect width="5" height="180" class="splitjoinBody" s:generic="body"/>
    <s:alias val="$_join_"/>
    <g s:x="5" s:y="20" s:pid="out"/>
    <g transform="translate(0,10)" s:x="0" s:y="10" s:pid="in0">
      <text x="-3" y="-4" class="inputPortLabel">0</text>
    </g>
    <g transform="translate(0,30)" s:x="0" s:y="10" s:pid="in0">
      <text x="-3" y="-4" class="inputPortLabel">1</text>
    </g>
    <g transform="translate(0,50)" s:x="0" s:y="10" s:pid="in0">
      <text x="-3" y="-4" class="inputPortLabel">2</text>
    </g>
    <g transform="translate(0,70)" s:x="0" s:y="10" s:pid="in0">
      <text x="-3" y="-4" class="inputPortLabel">3</text>
    </g>
    <g transform="translate(0,90)" s:x="0" s:y="10" s:pid="in0">
      <text x="-3" y="-4" class="inputPortLabel">4</text>
    </g>
    <g transform="translate(0,110)" s:x="0" s:y="10" s:pid="in0">
      <text x="-3" y="-4" class="inputPortLabel">5</text>
    </g>
    <g transform="translate(0,130)" s:x="0" s:y="10" s:pid="in0">
      <text x="-3" y="-4" class="inputPortLabel">6</text>
    </g>
    <g transform="translate(0,150)" s:x="0" s:y="10" s:pid="in0">
      <text x="-3" y="-4" class="inputPortLabel">7</text>
    </g>
    <g transform="translate(0,170)" s:x="0" s:y="10" s:pid="in0">
      <text x="-3" y="-4" class="inputPortLabel">8</text>
    </g>
  </g>
  <line x1="40" x2="92" y1="1510.5" y2="1510.5" class="net_9,10,11,12"/>
  <line x1="92" x2="92" y1="1510.5" y2="871.5" class="net_9,10,11,12"/>
  <circle cx="92" cy="1510.5" r="2" style="fill:#000" class="net_9,10,11,12"/>
  <circle cx="92" cy="871.5" r="2" style="fill:#000" class="net_9,10,11,12"/>
  <line x1="92" x2="185.33333333333334" y1="871.5" y2="871.5" class="net_9,10,11,12"/>
  <line x1="40" x2="92" y1="1510.5" y2="1510.5" class="net_9,10,11,12"/>
  <line x1="92" x2="92" y1="1510.5" y2="568.5" class="net_9,10,11,12"/>
  <line x1="92" x2="185.33333333333334" y1="568.5" y2="568.5" class="net_9,10,11,12"/>
  <line x1="40" x2="253" y1="1510.5" y2="1510.5" class="net_9,10,11,12"/>
  <line x1="253" x2="253" y1="1510.5" y2="1625.5" class="net_9,10,11,12"/>
  <line x1="253" x2="488.3333333333333" y1="1625.5" y2="1625.5" class="net_9,10,11,12"/>
  <line x1="40" x2="92" y1="1510.5" y2="1510.5" class="net_9,10,11,12"/>
  <line x1="92" x2="92" y1="1510.5" y2="1434.5" class="net_9,10,11,12"/>
  <line x1="92" x2="253" y1="1434.5" y2="1434.5" class="net_9,10,11,12"/>
  <line x1="253" x2="253" y1="1434.5" y2="1430.5" class="net_9,10,11,12"/>
  <circle cx="92" cy="1434.5" r="2" style="fill:#000" class="net_9,10,11,12"/>
  <line x1="253" x2="488.3333333333333" y1="1430.5" y2="1430.5" class="net_9,10,11,12"/>
  <line x1="42" x2="102" y1="1640.5" y2="1640.5" class="net_60,61,62,63"/>
  <line x1="102" x2="102" y1="1640.5" y2="886.5" class="net_60,61,62,63"/>
  <circle cx="102" cy="1640.5" r="2" style="fill:#000" class="net_60,61,62,63"/>
  <line x1="102" x2="185.33333333333334" y1="886.5" y2="886.5" class="net_60,61,62,63"/>
  <line x1="42" x2="488.3333333333333" y1="1640.5" y2="1640.5" class="net_60,61,62,63"/>
  <line x1="42" x2="102" y1="1640.5" y2="1640.5" class="net_60,61,62,63"/>
  <line x1="102" x2="102" y1="1640.5" y2="1197" class="net_60,61,62,63"/>
  <line x1="102" x2="323" y1="1197" y2="1197" class="net_60,61,62,63"/>
  <line x1="323" x2="323" y1="1197" y2="826.5" class="net_60,61,62,63"/>
  <circle cx="102" cy="1197" r="2" style="fill:#000" class="net_60,61,62,63"/>
  <line x1="323" x2="488.3333333333333" y1="826.5" y2="826.5" class="net_60,61,62,63"/>
  <line x1="40" x2="185.33333333333334" y1="811.5" y2="811.5" class="net_5,6,7,8"/>
  <line x1="42" x2="82" y1="1367" y2="1367" class="net_64,65,66,67"/>
  <line x1="82" x2="82" y1="1367" y2="826.5" class="net_64,65,66,67"/>
  <circle cx="82" cy="1367" r="2" style="fill:#000" class="net_64,65,66,67"/>
  <circle cx="82" cy="826.5" r="2" style="fill:#000" class="net_64,65,66,67"/>
  <line x1="82" x2="185.33333333333334" y1="826.5" y2="826.5" class="net_64,65,66,67"/>
  <line x1="42" x2="353" y1="1367" y2="1367" class="net_64,65,66,67"/>
  <line x1="353" x2="353" y1="1367" y2="1071.5" class="net_64,65,66,67"/>
  <line x1="353" x2="488.3333333333333" y1="1071.5" y2="1071.5" class="net_64,65,66,67"/>
  <line x1="42" x2="82" y1="1367" y2="1367" class="net_64,65,66,67"/>
  <line x1="82" x2="82" y1="1367" y2="220" class="net_64,65,66,67"/>
  <line x1="82" x2="487" y1="220" y2="220" class="net_64,65,66,67"/>
  <line x1="42" x2="142" y1="1445.5" y2="1445.5" class="net_68,69,70,71"/>
  <line x1="142" x2="142" y1="1445.5" y2="583.5" class="net_68,69,70,71"/>
  <circle cx="142" cy="1445.5" r="2" style="fill:#000" class="net_68,69,70,71"/>
  <circle cx="142" cy="583.5" r="2" style="fill:#000" class="net_68,69,70,71"/>
  <line x1="142" x2="185.33333333333334" y1="583.5" y2="583.5" class="net_68,69,70,71"/>
  <line x1="42" x2="488.3333333333333" y1="1445.5" y2="1445.5" class="net_68,69,70,71"/>
  <line x1="42" x2="142" y1="1445.5" y2="1445.5" class="net_68,69,70,71"/>
  <line x1="142" x2="142" y1="1445.5" y2="1378" class="net_68,69,70,71"/>
  <circle cx="142" cy="1378" r="2" style="fill:#000" class="net_68,69,70,71"/>
  <line x1="142" x2="400" y1="1378" y2="1378" class="net_68,69,70,71"/>
  <line x1="42" x2="142" y1="1445.5" y2="1445.5" class="net_68,69,70,71"/>
  <line x1="142" x2="142" y1="1445.5" y2="1208" class="net_68,69,70,71"/>
  <line x1="142" x2="333" y1="1208" y2="1208" class="net_68,69,70,71"/>
  <line x1="333" x2="333" y1="1208" y2="886.5" class="net_68,69,70,71"/>
  <circle cx="142" cy="1208" r="2" style="fill:#000" class="net_68,69,70,71"/>
  <line x1="333" x2="488.3333333333333" y1="886.5" y2="886.5" class="net_68,69,70,71"/>
  <line x1="42" x2="142" y1="1445.5" y2="1445.5" class="net_68,69,70,71"/>
  <line x1="142" x2="142" y1="1445.5" y2="179" class="net_68,69,70,71"/>
  <line x1="142" x2="373" y1="179" y2="179" class="net_68,69,70,71"/>
  <line x1="373" x2="373" y1="179" y2="149" class="net_68,69,70,71"/>
  <circle cx="373" cy="179" r="2" style="fill:#000" class="net_68,69,70,71"/>
  <line x1="373" x2="487" y1="149" y2="149" class="net_68,69,70,71"/>
  <line x1="42" x2="142" y1="1445.5" y2="1445.5" class="net_68,69,70,71"/>
  <line x1="142" x2="142" y1="1445.5" y2="179" class="net_68,69,70,71"/>
  <line x1="142" x2="738" y1="179" y2="179" class="net_68,69,70,71"/>
  <line x1="738" x2="738" y1="179" y2="241" class="net_68,69,70,71"/>
  <line x1="738" x2="801.7142857142857" y1="241" y2="241" class="net_68,69,70,71"/>
  <line x1="510.3333333333333" x2="778" y1="1247" y2="1247" class="net_29"/>
  <line x1="778" x2="778" y1="1247" y2="1618" class="net_29"/>
  <circle cx="778" cy="1247" r="2" style="fill:#000" class="net_29"/>
  <line x1="778" x2="798" y1="1618" y2="1618" class="net_29"/>
  <line x1="510.3333333333333" x2="778" y1="1247" y2="1247" class="net_29"/>
  <line x1="778" x2="778" y1="1247" y2="819.5" class="net_29"/>
  <line x1="778" x2="801.25" y1="819.5" y2="819.5" class="net_29"/>
  <line x1="510.3333333333333" x2="798" y1="1633" y2="1633" class="net_30"/>
  <line x1="510.3333333333333" x2="758" y1="1004" y2="1004" class="net_31"/>
  <line x1="758" x2="758" y1="1004" y2="1423" class="net_31"/>
  <circle cx="758" cy="1004" r="2" style="fill:#000" class="net_31"/>
  <line x1="758" x2="798" y1="1423" y2="1423" class="net_31"/>
  <line x1="510.3333333333333" x2="758" y1="1004" y2="1004" class="net_31"/>
  <line x1="758" x2="758" y1="1004" y2="739.5" class="net_31"/>
  <line x1="758" x2="801.25" y1="739.5" y2="739.5" class="net_31"/>
  <line x1="510.3333333333333" x2="798" y1="1438" y2="1438" class="net_32"/>
  <line x1="431" x2="788" y1="1187" y2="1187" class="net_33"/>
  <line x1="788" x2="788" y1="1187" y2="1343" class="net_33"/>
  <line x1="788" x2="798" y1="1343" y2="1343" class="net_33"/>
  <line x1="431" x2="798" y1="1358" y2="1358" class="net_34"/>
  <line x1="208" x2="363" y1="1239.5" y2="1239.5" class="net_13,14,15,16"/>
  <line x1="363" x2="363" y1="1239.5" y2="1187" class="net_13,14,15,16"/>
  <circle cx="363" cy="1239.5" r="2" style="fill:#000" class="net_13,14,15,16"/>
  <circle cx="363" cy="1187" r="2" style="fill:#000" class="net_13,14,15,16"/>
  <line x1="363" x2="400" y1="1187" y2="1187" class="net_13,14,15,16"/>
  <line x1="208" x2="363" y1="1239.5" y2="1239.5" class="net_13,14,15,16"/>
  <line x1="363" x2="363" y1="1239.5" y2="1358" class="net_13,14,15,16"/>
  <line x1="363" x2="400" y1="1358" y2="1358" class="net_13,14,15,16"/>
  <line x1="208" x2="363" y1="1239.5" y2="1239.5" class="net_13,14,15,16"/>
  <line x1="363" x2="363" y1="1239.5" y2="871.5" class="net_13,14,15,16"/>
  <circle cx="363" cy="871.5" r="2" style="fill:#000" class="net_13,14,15,16"/>
  <line x1="363" x2="488.3333333333333" y1="871.5" y2="871.5" class="net_13,14,15,16"/>
  <line x1="208" x2="363" y1="1239.5" y2="1239.5" class="net_13,14,15,16"/>
  <line x1="363" x2="363" y1="1239.5" y2="1056.5" class="net_13,14,15,16"/>
  <circle cx="363" cy="1056.5" r="2" style="fill:#000" class="net_13,14,15,16"/>
  <line x1="363" x2="488.3333333333333" y1="1056.5" y2="1056.5" class="net_13,14,15,16"/>
  <line x1="208" x2="363" y1="1239.5" y2="1239.5" class="net_13,14,15,16"/>
  <line x1="363" x2="363" y1="1239.5" y2="996.5" class="net_13,14,15,16"/>
  <circle cx="363" cy="996.5" r="2" style="fill:#000" class="net_13,14,15,16"/>
  <line x1="363" x2="488.3333333333333" y1="996.5" y2="996.5" class="net_13,14,15,16"/>
  <line x1="208" x2="363" y1="1239.5" y2="1239.5" class="net_13,14,15,16"/>
  <line x1="363" x2="363" y1="1239.5" y2="936.5" class="net_13,14,15,16"/>
  <circle cx="363" cy="936.5" r="2" style="fill:#000" class="net_13,14,15,16"/>
  <line x1="363" x2="488.3333333333333" y1="936.5" y2="936.5" class="net_13,14,15,16"/>
  <line x1="208" x2="363" y1="1239.5" y2="1239.5" class="net_13,14,15,16"/>
  <line x1="363" x2="363" y1="1239.5" y2="811.5" class="net_13,14,15,16"/>
  <circle cx="363" cy="811.5" r="2" style="fill:#000" class="net_13,14,15,16"/>
  <line x1="363" x2="488.3333333333333" y1="811.5" y2="811.5" class="net_13,14,15,16"/>
  <line x1="208" x2="363" y1="1239.5" y2="1239.5" class="net_13,14,15,16"/>
  <line x1="363" x2="363" y1="1239.5" y2="451" class="net_13,14,15,16"/>
  <circle cx="363" cy="451" r="2" style="fill:#000" class="net_13,14,15,16"/>
  <line x1="363" x2="488.3333333333333" y1="451" y2="451" class="net_13,14,15,16"/>
  <line x1="208" x2="488.3333333333333" y1="1239.5" y2="1239.5" class="net_13,14,15,16"/>
  <line x1="208" x2="363" y1="1239.5" y2="1239.5" class="net_13,14,15,16"/>
  <line x1="363" x2="363" y1="1239.5" y2="658.5" class="net_13,14,15,16"/>
  <circle cx="363" cy="658.5" r="2" style="fill:#000" class="net_13,14,15,16"/>
  <line x1="363" x2="488.3333333333333" y1="658.5" y2="658.5" class="net_13,14,15,16"/>
  <line x1="208" x2="363" y1="1239.5" y2="1239.5" class="net_13,14,15,16"/>
  <line x1="363" x2="363" y1="1239.5" y2="1121.5" class="net_13,14,15,16"/>
  <circle cx="363" cy="1121.5" r="2" style="fill:#000" class="net_13,14,15,16"/>
  <line x1="363" x2="525.5" y1="1121.5" y2="1121.5" class="net_13,14,15,16"/>
  <line x1="208" x2="363" y1="1239.5" y2="1239.5" class="net_13,14,15,16"/>
  <line x1="363" x2="363" y1="1239.5" y2="32" class="net_13,14,15,16"/>
  <line x1="363" x2="863" y1="32" y2="32" class="net_13,14,15,16"/>
  <line x1="40" x2="112" y1="1575.5" y2="1575.5" class="net_3"/>
  <line x1="112" x2="112" y1="1575.5" y2="1239.5" class="net_3"/>
  <line x1="112" x2="177" y1="1239.5" y2="1239.5" class="net_3"/>
  <line x1="40" x2="122" y1="1705.5" y2="1705.5" class="net_2"/>
  <line x1="122" x2="122" y1="1705.5" y2="1259.5" class="net_2"/>
  <line x1="122" x2="177" y1="1259.5" y2="1259.5" class="net_2"/>
  <line x1="883" x2="957" y1="221" y2="221" class="net_35,36,37,38"/>
  <line x1="957" x2="957" y1="221" y2="1460.5" class="net_35,36,37,38"/>
  <line x1="957" x2="132" y1="1460.5" y2="1460.5" class="net_35,36,37,38"/>
  <line x1="132" x2="132" y1="1460.5" y2="1279.5" class="net_35,36,37,38"/>
  <line x1="132" x2="177" y1="1279.5" y2="1279.5" class="net_35,36,37,38"/>
  <line x1="207" x2="273" y1="516" y2="516" class="net_84,85,86,87"/>
  <line x1="273" x2="273" y1="516" y2="108" class="net_84,85,86,87"/>
  <line x1="273" x2="838" y1="108" y2="108" class="net_84,85,86,87"/>
  <line x1="838" x2="838" y1="108" y2="211" class="net_84,85,86,87"/>
  <circle cx="273" cy="516" r="2" style="fill:#000" class="net_84,85,86,87"/>
  <line x1="838" x2="863" y1="211" y2="211" class="net_84,85,86,87"/>
  <line x1="207" x2="487" y1="516" y2="516" class="net_84,85,86,87"/>
  <line x1="207" x2="273" y1="516" y2="516" class="net_84,85,86,87"/>
  <line x1="273" x2="273" y1="516" y2="129" class="net_84,85,86,87"/>
  <circle cx="273" cy="129" r="2" style="fill:#000" class="net_84,85,86,87"/>
  <line x1="273" x2="487" y1="129" y2="129" class="net_84,85,86,87"/>
  <line x1="807.7142857142857" x2="863" y1="231" y2="231" class="net_39,40,41,42,68,69,70,71,43,44,45,46,47,48,49,50,92,93,94,95,96,97,98,99,51,52,53,54,100,101,102,103,55,56,57,58"/>
  <line x1="807.25" x2="838" y1="709.5" y2="709.5" class="net_24,23,31,21,20,19,29,17,59"/>
  <line x1="838" x2="838" y1="709.5" y2="506" class="net_24,23,31,21,20,19,29,17,59"/>
  <line x1="838" x2="873" y1="506" y2="506" class="net_24,23,31,21,20,19,29,17,59"/>
  <line x1="873" x2="873" y1="506" y2="236" class="net_24,23,31,21,20,19,29,17,59"/>
  <line x1="207" x2="488.3333333333333" y1="1011.5" y2="1011.5" class="net_112,113,114,115"/>
  <line x1="207" x2="283" y1="1011.5" y2="1011.5" class="net_112,113,114,115"/>
  <line x1="283" x2="283" y1="1011.5" y2="291" class="net_112,113,114,115"/>
  <circle cx="283" cy="1011.5" r="2" style="fill:#000" class="net_112,113,114,115"/>
  <circle cx="283" cy="291" r="2" style="fill:#000" class="net_112,113,114,115"/>
  <line x1="283" x2="487" y1="291" y2="291" class="net_112,113,114,115"/>
  <line x1="207" x2="283" y1="1011.5" y2="1011.5" class="net_112,113,114,115"/>
  <line x1="283" x2="283" y1="1011.5" y2="200" class="net_112,113,114,115"/>
  <line x1="283" x2="487" y1="200" y2="200" class="net_112,113,114,115"/>
  <line x1="207" x2="343" y1="1347" y2="1347" class="net_116,117,118,119"/>
  <line x1="343" x2="343" y1="1347" y2="951.5" class="net_116,117,118,119"/>
  <line x1="343" x2="488.3333333333333" y1="951.5" y2="951.5" class="net_116,117,118,119"/>
  <line x1="207" x2="343" y1="946.5" y2="946.5" class="net_124,125,126,127"/>
  <line x1="343" x2="343" y1="946.5" y2="466" class="net_124,125,126,127"/>
  <circle cx="343" cy="466" r="2" style="fill:#000" class="net_124,125,126,127"/>
  <line x1="343" x2="488.3333333333333" y1="466" y2="466" class="net_124,125,126,127"/>
  <line x1="207" x2="343" y1="946.5" y2="946.5" class="net_124,125,126,127"/>
  <line x1="343" x2="343" y1="946.5" y2="416" class="net_124,125,126,127"/>
  <line x1="343" x2="487" y1="416" y2="416" class="net_124,125,126,127"/>
  <line x1="207" x2="293" y1="1112" y2="1112" class="net_100,101,102,103"/>
  <line x1="293" x2="293" y1="1112" y2="1254.5" class="net_100,101,102,103"/>
  <circle cx="293" cy="1112" r="2" style="fill:#000" class="net_100,101,102,103"/>
  <line x1="293" x2="488.3333333333333" y1="1254.5" y2="1254.5" class="net_100,101,102,103"/>
  <line x1="207" x2="293" y1="1112" y2="1112" class="net_100,101,102,103"/>
  <line x1="293" x2="293" y1="1112" y2="396" class="net_100,101,102,103"/>
  <circle cx="293" cy="396" r="2" style="fill:#000" class="net_100,101,102,103"/>
  <line x1="293" x2="487" y1="396" y2="396" class="net_100,101,102,103"/>
  <line x1="207" x2="293" y1="1112" y2="1112" class="net_100,101,102,103"/>
  <line x1="293" x2="293" y1="1112" y2="271" class="net_100,101,102,103"/>
  <circle cx="293" cy="271" r="2" style="fill:#000" class="net_100,101,102,103"/>
  <line x1="293" x2="487" y1="271" y2="271" class="net_100,101,102,103"/>
  <line x1="207" x2="293" y1="1112" y2="1112" class="net_100,101,102,103"/>
  <line x1="293" x2="293" y1="1112" y2="240" class="net_100,101,102,103"/>
  <line x1="293" x2="718" y1="240" y2="240" class="net_100,101,102,103"/>
  <line x1="718" x2="718" y1="240" y2="341" class="net_100,101,102,103"/>
  <line x1="718" x2="801.7142857142857" y1="341" y2="341" class="net_100,101,102,103"/>
  <line x1="207" x2="313" y1="1177" y2="1177" class="net_132,133,134,135"/>
  <line x1="313" x2="313" y1="1177" y2="673.5" class="net_132,133,134,135"/>
  <circle cx="313" cy="673.5" r="2" style="fill:#000" class="net_132,133,134,135"/>
  <line x1="313" x2="488.3333333333333" y1="673.5" y2="673.5" class="net_132,133,134,135"/>
  <line x1="207" x2="313" y1="1177" y2="1177" class="net_132,133,134,135"/>
  <line x1="313" x2="313" y1="1177" y2="536" class="net_132,133,134,135"/>
  <line x1="313" x2="487" y1="536" y2="536" class="net_132,133,134,135"/>
  <line x1="205" x2="497" y1="643.5" y2="643.5" class="net_4"/>
  <line x1="497" x2="497" y1="643.5" y2="541" class="net_4"/>
  <line x1="205" x2="383" y1="643.5" y2="643.5" class="net_4"/>
  <line x1="383" x2="383" y1="643.5" y2="169" class="net_4"/>
  <line x1="383" x2="497" y1="169" y2="169" class="net_4"/>
  <circle cx="383" cy="643.5" r="2" style="fill:#000" class="net_4"/>
  <line x1="497" x2="497" y1="169" y2="154" class="net_4"/>
  <line x1="207.33333333333334" x2="303" y1="879" y2="879" class="net_26"/>
  <line x1="303" x2="303" y1="879" y2="436" class="net_26"/>
  <line x1="303" x2="497" y1="436" y2="436" class="net_26"/>
  <line x1="497" x2="497" y1="436" y2="421" class="net_26"/>
  <line x1="207.33333333333334" x2="263" y1="819" y2="819" class="net_27"/>
  <line x1="263" x2="263" y1="819" y2="311" class="net_27"/>
  <line x1="263" x2="497" y1="311" y2="311" class="net_27"/>
  <line x1="497" x2="497" y1="311" y2="296" class="net_27"/>
  <line x1="207.33333333333334" x2="253" y1="576" y2="576" class="net_28"/>
  <line x1="253" x2="253" y1="576" y2="251" class="net_28"/>
  <line x1="253" x2="497" y1="251" y2="251" class="net_28"/>
  <line x1="497" x2="497" y1="251" y2="225" class="net_28"/>
  <line x1="510.3333333333333" x2="863" y1="666" y2="666" class="net_17"/>
  <line x1="510.3333333333333" x2="718" y1="666" y2="666" class="net_17"/>
  <line x1="718" x2="718" y1="666" y2="536" class="net_17"/>
  <circle cx="718" cy="666" r="2" style="fill:#000" class="net_17"/>
  <line x1="718" x2="863" y1="536" y2="536" class="net_17"/>
  <line x1="510.3333333333333" x2="718" y1="666" y2="666" class="net_17"/>
  <line x1="718" x2="718" y1="666" y2="839.5" class="net_17"/>
  <line x1="718" x2="801.25" y1="839.5" y2="839.5" class="net_17"/>
  <line x1="828" x2="863" y1="1625.5" y2="1625.5" class="net_18"/>
  <line x1="510.3333333333333" x2="708" y1="458.5" y2="458.5" class="net_19"/>
  <line x1="708" x2="708" y1="458.5" y2="97" class="net_19"/>
  <circle cx="708" cy="458.5" r="2" style="fill:#000" class="net_19"/>
  <line x1="708" x2="863" y1="97" y2="97" class="net_19"/>
  <line x1="510.3333333333333" x2="708" y1="458.5" y2="458.5" class="net_19"/>
  <line x1="708" x2="708" y1="458.5" y2="799.5" class="net_19"/>
  <line x1="708" x2="801.25" y1="799.5" y2="799.5" class="net_19"/>
  <line x1="510.3333333333333" x2="728" y1="819" y2="819" class="net_20"/>
  <line x1="728" x2="728" y1="819" y2="601" class="net_20"/>
  <line x1="728" x2="863" y1="601" y2="601" class="net_20"/>
  <line x1="510.3333333333333" x2="728" y1="819" y2="819" class="net_20"/>
  <line x1="728" x2="728" y1="819" y2="779.5" class="net_20"/>
  <circle cx="728" cy="779.5" r="2" style="fill:#000" class="net_20"/>
  <line x1="728" x2="801.25" y1="779.5" y2="779.5" class="net_20"/>
  <line x1="510.3333333333333" x2="863" y1="944" y2="944" class="net_21"/>
  <line x1="510.3333333333333" x2="768" y1="944" y2="944" class="net_21"/>
  <line x1="768" x2="768" y1="944" y2="759.5" class="net_21"/>
  <circle cx="768" cy="944" r="2" style="fill:#000" class="net_21"/>
  <line x1="768" x2="801.25" y1="759.5" y2="759.5" class="net_21"/>
  <line x1="828" x2="863" y1="1430.5" y2="1430.5" class="net_22"/>
  <line x1="510.3333333333333" x2="748" y1="1064" y2="1064" class="net_23"/>
  <line x1="748" x2="748" y1="1064" y2="1490.5" class="net_23"/>
  <circle cx="748" cy="1064" r="2" style="fill:#000" class="net_23"/>
  <line x1="748" x2="863" y1="1490.5" y2="1490.5" class="net_23"/>
  <line x1="510.3333333333333" x2="748" y1="1064" y2="1064" class="net_23"/>
  <line x1="748" x2="748" y1="1064" y2="719.5" class="net_23"/>
  <line x1="748" x2="801.25" y1="719.5" y2="719.5" class="net_23"/>
  <line x1="510.3333333333333" x2="863" y1="879" y2="879" class="net_24"/>
  <line x1="510.3333333333333" x2="738" y1="879" y2="879" class="net_24"/>
  <line x1="738" x2="738" y1="879" y2="677" class="net_24"/>
  <line x1="738" x2="801.75" y1="677" y2="677" class="net_24"/>
  <circle cx="738" cy="879" r="2" style="fill:#000" class="net_24"/>
  <line x1="801.75" x2="801.75" y1="677" y2="699" class="net_24"/>
  <line x1="828" x2="838" y1="1350.5" y2="1350.5" class="net_25"/>
  <line x1="838" x2="838" y1="1350.5" y2="814" class="net_25"/>
  <line x1="838" x2="863" y1="814" y2="814" class="net_25"/>
  <line x1="507" x2="802.2142857142857" y1="139" y2="139" class="net_39,40,41,42"/>
  <line x1="802.2142857142857" x2="802.2142857142857" y1="139" y2="220.5" class="net_39,40,41,42"/>
  <line x1="507" x2="728" y1="210" y2="210" class="net_43,44,45,46"/>
  <line x1="728" x2="728" y1="210" y2="261" class="net_43,44,45,46"/>
  <line x1="728" x2="801.7142857142857" y1="261" y2="261" class="net_43,44,45,46"/>
  <line x1="507" x2="801.7142857142857" y1="281" y2="281" class="net_47,48,49,50"/>
  <line x1="430" x2="698" y1="341" y2="341" class="net_92,93,94,95,96,97,98,99"/>
  <line x1="698" x2="698" y1="341" y2="301" class="net_92,93,94,95,96,97,98,99"/>
  <line x1="698" x2="801.7142857142857" y1="301" y2="301" class="net_92,93,94,95,96,97,98,99"/>
  <line x1="507" x2="728" y1="406" y2="406" class="net_51,52,53,54"/>
  <line x1="728" x2="728" y1="406" y2="321" class="net_51,52,53,54"/>
  <line x1="728" x2="801.7142857142857" y1="321" y2="321" class="net_51,52,53,54"/>
  <line x1="507" x2="802.2142857142857" y1="526" y2="526" class="net_55,56,57,58"/>
  <line x1="802.2142857142857" x2="802.2142857142857" y1="526" y2="361.5" class="net_55,56,57,58"/>
  <line x1="550.5" x2="801.75" y1="1121.5" y2="1121.5" class="net_59"/>
  <line x1="801.75" x2="801.75" y1="1121.5" y2="860" class="net_59"/>
</svg>
