<svg xmlns="http://www.w3.org/2000/svg" xmlns:xlink="http://www.w3.org/1999/xlink" xmlns:s="https://github.com/nturley/netlistsvg" width="885" height="266">
  <style>svg {
    stroke:#000;
    fill:none;
  }
  text {
    fill:#000;
    stroke:none;
    font-size:10px;
    font-weight: bold;
    font-family: "Courier New", monospace;
  }
  .nodelabel {
    text-anchor: middle;
  }
  .inputPortLabel {
    text-anchor: end;
  }
  .splitjoinBody {
    fill:#000;
  }</style>
  <g s:type="add" transform="translate(771,27)" s:width="25" s:height="25" id="cell_$add$/Users/dididi/workspaces/ann-rtl-lean-poc/rtl/results/canonical/sv/mac_unit.sv:16$2">
    <s:alias val="$add"/>
    <circle r="12.5" cx="12.5" cy="12.5" class="cell_$add$/Users/dididi/workspaces/ann-rtl-lean-poc/rtl/results/canonical/sv/mac_unit.sv:16$2"/>
    <line x1="7.5" x2="17.5" y1="12.5" y2="12.5" class="cell_$add$/Users/dididi/workspaces/ann-rtl-lean-poc/rtl/results/canonical/sv/mac_unit.sv:16$2"/>
    <line x1="12.5" x2="12.5" y1="7.5" y2="17.5" class="cell_$add$/Users/dididi/workspaces/ann-rtl-lean-poc/rtl/results/canonical/sv/mac_unit.sv:16$2"/>
    <g s:x="3" s:y="5" s:pid="A"/>
    <g s:x="3" s:y="20" s:pid="B"/>
    <g s:x="25" s:y="12.5" s:pid="Y"/>
  </g>
  <g s:type="generic" transform="translate(84,41.5)" s:width="30" s:height="40" id="cell_$mul$/Users/dididi/workspaces/ann-rtl-lean-poc/rtl/results/canonical/sv/mac_unit.sv:14$1">
    <text x="15" y="-4" class="nodelabel cell_$mul$/Users/dididi/workspaces/ann-rtl-lean-poc/rtl/results/canonical/sv/mac_unit.sv:14$1" s:attribute="ref">$mul</text>
    <rect width="30" height="40" s:generic="body" class="cell_$mul$/Users/dididi/workspaces/ann-rtl-lean-poc/rtl/results/canonical/sv/mac_unit.sv:14$1"/>
    <g transform="translate(0,10)" s:x="0" s:y="10" s:pid="in0" id="port_$mul$/Users/dididi/workspaces/ann-rtl-lean-poc/rtl/results/canonical/sv/mac_unit.sv:14$1~A">
      <text x="-3" y="-4" class="inputPortLabel cell_$mul$/Users/dididi/workspaces/ann-rtl-lean-poc/rtl/results/canonical/sv/mac_unit.sv:14$1">A</text>
    </g>
    <g transform="translate(0,30)" s:x="0" s:y="10" s:pid="in0" id="port_$mul$/Users/dididi/workspaces/ann-rtl-lean-poc/rtl/results/canonical/sv/mac_unit.sv:14$1~B">
      <text x="-3" y="-4" class="inputPortLabel cell_$mul$/Users/dididi/workspaces/ann-rtl-lean-poc/rtl/results/canonical/sv/mac_unit.sv:14$1">B</text>
    </g>
    <g transform="translate(30,10)" s:x="30" s:y="10" s:pid="out0" id="port_$mul$/Users/dididi/workspaces/ann-rtl-lean-poc/rtl/results/canonical/sv/mac_unit.sv:14$1~Y">
      <text x="5" y="-4" style="fill:#000; stroke:none" class="cell_$mul$/Users/dididi/workspaces/ann-rtl-lean-poc/rtl/results/canonical/sv/mac_unit.sv:14$1">Y</text>
    </g>
  </g>
  <g s:type="inputExt" transform="translate(12,42)" s:width="30" s:height="20" id="cell_a">
    <text x="15" y="-4" class="nodelabel cell_a" s:attribute="ref">a</text>
    <s:alias val="$_inputExt_"/>
    <path d="M0,0 L0,20 L15,20 L30,10 L15,0 Z" class="cell_a"/>
    <g s:x="28" s:y="10" s:pid="Y"/>
  </g>
  <g s:type="inputExt" transform="translate(12,107)" s:width="30" s:height="20" id="cell_b">
    <text x="15" y="-4" class="nodelabel cell_b" s:attribute="ref">b</text>
    <s:alias val="$_inputExt_"/>
    <path d="M0,0 L0,20 L15,20 L30,10 L15,0 Z" class="cell_b"/>
    <g s:x="28" s:y="10" s:pid="Y"/>
  </g>
  <g s:type="inputExt" transform="translate(700,22)" s:width="30" s:height="20" id="cell_acc_in">
    <text x="15" y="-4" class="nodelabel cell_acc_in" s:attribute="ref">acc_in</text>
    <s:alias val="$_inputExt_"/>
    <path d="M0,0 L0,20 L15,20 L30,10 L15,0 Z" class="cell_acc_in"/>
    <g s:x="28" s:y="10" s:pid="Y"/>
  </g>
  <g s:type="outputExt" transform="translate(831,29.5)" s:width="30" s:height="20" id="cell_acc_out">
    <text x="15" y="-4" class="nodelabel cell_acc_out" s:attribute="ref">acc_out</text>
    <s:alias val="$_outputExt_"/>
    <path d="M30,0 L30,20 L15,20 L0,10 L15,0 Z" class="cell_acc_out"/>
    <g s:x="0" s:y="10" s:pid="A"/>
  </g>
  <g s:type="join" transform="translate(704,64)" s:width="4" s:height="40" id="cell_$join$,90,91,92,93,94,95,96,97,98,99,100,101,102,103,104,105,106,107,108,109,110,111,112,113,113,113,113,113,113,113,113,113,">
    <rect width="5" height="180" class="splitjoinBody" s:generic="body"/>
    <s:alias val="$_join_"/>
    <g s:x="5" s:y="20" s:pid="out"/>
    <g transform="translate(0,10)" s:x="0" s:y="10" s:pid="in0">
      <text x="-3" y="-4" class="inputPortLabel">0:23</text>
    </g>
    <g transform="translate(0,30)" s:x="0" s:y="10" s:pid="in0">
      <text x="-3" y="-4" class="inputPortLabel">24</text>
    </g>
    <g transform="translate(0,50)" s:x="0" s:y="10" s:pid="in0">
      <text x="-3" y="-4" class="inputPortLabel">25</text>
    </g>
    <g transform="translate(0,70)" s:x="0" s:y="10" s:pid="in0">
      <text x="-3" y="-4" class="inputPortLabel">26</text>
    </g>
    <g transform="translate(0,90)" s:x="0" s:y="10" s:pid="in0">
      <text x="-3" y="-4" class="inputPortLabel">27</text>
    </g>
    <g transform="translate(0,110)" s:x="0" s:y="10" s:pid="in0">
      <text x="-3" y="-4" class="inputPortLabel">28</text>
    </g>
    <g transform="translate(0,130)" s:x="0" s:y="10" s:pid="in0">
      <text x="-3" y="-4" class="inputPortLabel">29</text>
    </g>
    <g transform="translate(0,150)" s:x="0" s:y="10" s:pid="in0">
      <text x="-3" y="-4" class="inputPortLabel">30</text>
    </g>
    <g transform="translate(0,170)" s:x="0" s:y="10" s:pid="in0">
      <text x="-3" y="-4" class="inputPortLabel">31</text>
    </g>
  </g>
  <g s:type="split" transform="translate(647,84)" s:width="5" s:height="40" id="cell_$split$,90,91,92,93,94,95,96,97,98,99,100,101,102,103,104,105,106,107,108,109,110,111,112,113,">
    <rect width="5" height="20" class="splitjoinBody" s:generic="body"/>
    <s:alias val="$_split_"/>
    <g s:x="0" s:y="20" s:pid="in"/>
    <g transform="translate(4,10)" s:x="4" s:y="10" s:pid="out0">
      <text x="5" y="-4">23</text>
    </g>
  </g>
  <line x1="728" x2="774" y1="32" y2="32" class="net_26,27,28,29,30,31,32,33,34,35,36,37,38,39,40,41,42,43,44,45,46,47,48,49,50,51,52,53,54,55,56,57"/>
  <line x1="710" x2="746" y1="84.5" y2="84.5" class="net_90,91,92,93,94,95,96,97,98,99,100,101,102,103,104,105,106,107,108,109,110,111,112,113,113,113,113,113,113,113,113,113"/>
  <line x1="746" x2="746" y1="84.5" y2="47" class="net_90,91,92,93,94,95,96,97,98,99,100,101,102,103,104,105,106,107,108,109,110,111,112,113,113,113,113,113,113,113,113,113"/>
  <line x1="746" x2="774" y1="47" y2="47" class="net_90,91,92,93,94,95,96,97,98,99,100,101,102,103,104,105,106,107,108,109,110,111,112,113,113,113,113,113,113,113,113,113"/>
  <line x1="40" x2="84" y1="52" y2="52" class="net_2,3,4,5,6,7,8,9,10,11,12,13,14,15,16,17"/>
  <line x1="40" x2="52" y1="117" y2="117" class="net_18,19,20,21,22,23,24,25"/>
  <line x1="52" x2="52" y1="117" y2="72" class="net_18,19,20,21,22,23,24,25"/>
  <line x1="52" x2="84" y1="72" y2="72" class="net_18,19,20,21,22,23,24,25"/>
  <line x1="796" x2="831" y1="39.5" y2="39.5" class="net_58,59,60,61,62,63,64,65,66,67,68,69,70,71,72,73,74,75,76,77,78,79,80,81,82,83,84,85,86,87,88,89"/>
  <line x1="115" x2="704.5" y1="52" y2="52" class="net_90,91,92,93,94,95,96,97,98,99,100,101,102,103,104,105,106,107,108,109,110,111,112,113"/>
  <line x1="704.5" x2="704.5" y1="52" y2="74" class="net_90,91,92,93,94,95,96,97,98,99,100,101,102,103,104,105,106,107,108,109,110,111,112,113"/>
  <line x1="115" x2="622" y1="52" y2="52" class="net_90,91,92,93,94,95,96,97,98,99,100,101,102,103,104,105,106,107,108,109,110,111,112,113"/>
  <line x1="622" x2="622" y1="52" y2="117" class="net_90,91,92,93,94,95,96,97,98,99,100,101,102,103,104,105,106,107,108,109,110,111,112,113"/>
  <line x1="622" x2="647.5" y1="117" y2="117" class="net_90,91,92,93,94,95,96,97,98,99,100,101,102,103,104,105,106,107,108,109,110,111,112,113"/>
  <circle cx="622" cy="52" r="2" style="fill:#000" class="net_90,91,92,93,94,95,96,97,98,99,100,101,102,103,104,105,106,107,108,109,110,111,112,113"/>
  <line x1="647.5" x2="647.5" y1="117" y2="105" class="net_90,91,92,93,94,95,96,97,98,99,100,101,102,103,104,105,106,107,108,109,110,111,112,113"/>
  <line x1="652" x2="704" y1="94.5" y2="94.5" class="net_113"/>
  <line x1="652" x2="675" y1="94.5" y2="94.5" class="net_113"/>
  <line x1="675" x2="675" y1="94.5" y2="114.5" class="net_113"/>
  <circle cx="675" cy="94.5" r="2" style="fill:#000" class="net_113"/>
  <circle cx="675" cy="114.5" r="2" style="fill:#000" class="net_113"/>
  <line x1="675" x2="704" y1="114.5" y2="114.5" class="net_113"/>
  <line x1="652" x2="675" y1="94.5" y2="94.5" class="net_113"/>
  <line x1="675" x2="675" y1="94.5" y2="134.5" class="net_113"/>
  <circle cx="675" cy="134.5" r="2" style="fill:#000" class="net_113"/>
  <line x1="675" x2="704" y1="134.5" y2="134.5" class="net_113"/>
  <line x1="652" x2="675" y1="94.5" y2="94.5" class="net_113"/>
  <line x1="675" x2="675" y1="94.5" y2="154.5" class="net_113"/>
  <circle cx="675" cy="154.5" r="2" style="fill:#000" class="net_113"/>
  <line x1="675" x2="704" y1="154.5" y2="154.5" class="net_113"/>
  <line x1="652" x2="675" y1="94.5" y2="94.5" class="net_113"/>
  <line x1="675" x2="675" y1="94.5" y2="174.5" class="net_113"/>
  <circle cx="675" cy="174.5" r="2" style="fill:#000" class="net_113"/>
  <line x1="675" x2="704" y1="174.5" y2="174.5" class="net_113"/>
  <line x1="652" x2="675" y1="94.5" y2="94.5" class="net_113"/>
  <line x1="675" x2="675" y1="94.5" y2="194.5" class="net_113"/>
  <circle cx="675" cy="194.5" r="2" style="fill:#000" class="net_113"/>
  <line x1="675" x2="704" y1="194.5" y2="194.5" class="net_113"/>
  <line x1="652" x2="675" y1="94.5" y2="94.5" class="net_113"/>
  <line x1="675" x2="675" y1="94.5" y2="214.5" class="net_113"/>
  <circle cx="675" cy="214.5" r="2" style="fill:#000" class="net_113"/>
  <line x1="675" x2="704" y1="214.5" y2="214.5" class="net_113"/>
  <line x1="652" x2="675" y1="94.5" y2="94.5" class="net_113"/>
  <line x1="675" x2="675" y1="94.5" y2="254" class="net_113"/>
  <line x1="675" x2="704.5" y1="254" y2="254" class="net_113"/>
  <line x1="704.5" x2="704.5" y1="254" y2="235" class="net_113"/>
</svg>
