<svg xmlns="http://www.w3.org/2000/svg" xmlns:xlink="http://www.w3.org/1999/xlink" xmlns:s="https://github.com/nturley/netlistsvg" width="455" height="704">
  <style>svg {
    stroke:#000;
    fill:none;
  }
  text {
    fill:#000;
    stroke:none;
    font-size:10px;
    font-weight: bold;
    font-family: "Courier New", monospace;
  }
  .nodelabel {
    text-anchor: middle;
  }
  .inputPortLabel {
    text-anchor: end;
  }
  .splitjoinBody {
    fill:#000;
  }</style>
  <g s:type="generic" transform="translate(183,246.5)" s:width="30" s:height="40" id="cell_u_controller_impl">
    <text x="15" y="-4" class="nodelabel cell_u_controller_impl" s:attribute="ref">$paramod$13a57b52677df675592d7a916f9ac12571a46522\controller_spot_compat</text>
    <rect width="30" height="220" s:generic="body" class="cell_u_controller_impl"/>
    <g transform="translate(0,10)" s:x="0" s:y="10" s:pid="in0" id="port_u_controller_impl~clk">
      <text x="-3" y="-4" class="inputPortLabel cell_u_controller_impl">clk</text>
    </g>
    <g transform="translate(0,30)" s:x="0" s:y="10" s:pid="in0" id="port_u_controller_impl~hidden_idx">
      <text x="-3" y="-4" class="inputPortLabel cell_u_controller_impl">hidden_idx</text>
    </g>
    <g transform="translate(0,50)" s:x="0" s:y="10" s:pid="in0" id="port_u_controller_impl~input_idx">
      <text x="-3" y="-4" class="inputPortLabel cell_u_controller_impl">input_idx</text>
    </g>
    <g transform="translate(0,70)" s:x="0" s:y="10" s:pid="in0" id="port_u_controller_impl~rst_n">
      <text x="-3" y="-4" class="inputPortLabel cell_u_controller_impl">rst_n</text>
    </g>
    <g transform="translate(0,90)" s:x="0" s:y="10" s:pid="in0" id="port_u_controller_impl~start">
      <text x="-3" y="-4" class="inputPortLabel cell_u_controller_impl">start</text>
    </g>
    <g transform="translate(30,10)" s:x="30" s:y="10" s:pid="out0" id="port_u_controller_impl~advance_hidden">
      <text x="5" y="-4" style="fill:#000; stroke:none" class="cell_u_controller_impl">advance_hidden</text>
    </g>
    <g transform="translate(30,30)" s:x="30" s:y="10" s:pid="out0" id="port_u_controller_impl~busy">
      <text x="5" y="-4" style="fill:#000; stroke:none" class="cell_u_controller_impl">busy</text>
    </g>
    <g transform="translate(30,50)" s:x="30" s:y="10" s:pid="out0" id="port_u_controller_impl~clear_acc">
      <text x="5" y="-4" style="fill:#000; stroke:none" class="cell_u_controller_impl">clear_acc</text>
    </g>
    <g transform="translate(30,70)" s:x="30" s:y="10" s:pid="out0" id="port_u_controller_impl~do_act_hidden">
      <text x="5" y="-4" style="fill:#000; stroke:none" class="cell_u_controller_impl">do_act_hidden</text>
    </g>
    <g transform="translate(30,90)" s:x="30" s:y="10" s:pid="out0" id="port_u_controller_impl~do_bias_hidden">
      <text x="5" y="-4" style="fill:#000; stroke:none" class="cell_u_controller_impl">do_bias_hidden</text>
    </g>
    <g transform="translate(30,110)" s:x="30" s:y="10" s:pid="out0" id="port_u_controller_impl~do_bias_output">
      <text x="5" y="-4" style="fill:#000; stroke:none" class="cell_u_controller_impl">do_bias_output</text>
    </g>
    <g transform="translate(30,130)" s:x="30" s:y="10" s:pid="out0" id="port_u_controller_impl~do_mac_hidden">
      <text x="5" y="-4" style="fill:#000; stroke:none" class="cell_u_controller_impl">do_mac_hidden</text>
    </g>
    <g transform="translate(30,150)" s:x="30" s:y="10" s:pid="out0" id="port_u_controller_impl~do_mac_output">
      <text x="5" y="-4" style="fill:#000; stroke:none" class="cell_u_controller_impl">do_mac_output</text>
    </g>
    <g transform="translate(30,170)" s:x="30" s:y="10" s:pid="out0" id="port_u_controller_impl~done">
      <text x="5" y="-4" style="fill:#000; stroke:none" class="cell_u_controller_impl">done</text>
    </g>
    <g transform="translate(30,190)" s:x="30" s:y="10" s:pid="out0" id="port_u_controller_impl~load_input">
      <text x="5" y="-4" style="fill:#000; stroke:none" class="cell_u_controller_impl">load_input</text>
    </g>
    <g transform="translate(30,210)" s:x="30" s:y="10" s:pid="out0" id="port_u_controller_impl~state">
      <text x="5" y="-4" style="fill:#000; stroke:none" class="cell_u_controller_impl">state</text>
    </g>
  </g>
  <g s:type="inputExt" transform="translate(12,247)" s:width="30" s:height="20" id="cell_clk">
    <text x="15" y="-4" class="nodelabel cell_clk" s:attribute="ref">clk</text>
    <s:alias val="$_inputExt_"/>
    <path d="M0,0 L0,20 L15,20 L30,10 L15,0 Z" class="cell_clk"/>
    <g s:x="28" s:y="10" s:pid="Y"/>
  </g>
  <g s:type="inputExt" transform="translate(12,442)" s:width="30" s:height="20" id="cell_rst_n">
    <text x="15" y="-4" class="nodelabel cell_rst_n" s:attribute="ref">rst_n</text>
    <s:alias val="$_inputExt_"/>
    <path d="M0,0 L0,20 L15,20 L30,10 L15,0 Z" class="cell_rst_n"/>
    <g s:x="28" s:y="10" s:pid="Y"/>
  </g>
  <g s:type="inputExt" transform="translate(12,507)" s:width="30" s:height="20" id="cell_start">
    <text x="15" y="-4" class="nodelabel cell_start" s:attribute="ref">start</text>
    <s:alias val="$_inputExt_"/>
    <path d="M0,0 L0,20 L15,20 L30,10 L15,0 Z" class="cell_start"/>
    <g s:x="28" s:y="10" s:pid="Y"/>
  </g>
  <g s:type="inputExt" transform="translate(12,312)" s:width="30" s:height="20" id="cell_hidden_idx">
    <text x="15" y="-4" class="nodelabel cell_hidden_idx" s:attribute="ref">hidden_idx</text>
    <s:alias val="$_inputExt_"/>
    <path d="M0,0 L0,20 L15,20 L30,10 L15,0 Z" class="cell_hidden_idx"/>
    <g s:x="28" s:y="10" s:pid="Y"/>
  </g>
  <g s:type="inputExt" transform="translate(12,377)" s:width="30" s:height="20" id="cell_input_idx">
    <text x="15" y="-4" class="nodelabel cell_input_idx" s:attribute="ref">input_idx</text>
    <s:alias val="$_inputExt_"/>
    <path d="M0,0 L0,20 L15,20 L30,10 L15,0 Z" class="cell_input_idx"/>
    <g s:x="28" s:y="10" s:pid="Y"/>
  </g>
  <g s:type="outputExt" transform="translate(359,672)" s:width="30" s:height="20" id="cell_state">
    <text x="15" y="-4" class="nodelabel cell_state" s:attribute="ref">state</text>
    <s:alias val="$_outputExt_"/>
    <path d="M30,0 L30,20 L15,20 L0,10 L15,0 Z" class="cell_state"/>
    <g s:x="0" s:y="10" s:pid="A"/>
  </g>
  <g s:type="outputExt" transform="translate(359,607)" s:width="30" s:height="20" id="cell_load_input">
    <text x="15" y="-4" class="nodelabel cell_load_input" s:attribute="ref">load_input</text>
    <s:alias val="$_outputExt_"/>
    <path d="M30,0 L30,20 L15,20 L0,10 L15,0 Z" class="cell_load_input"/>
    <g s:x="0" s:y="10" s:pid="A"/>
  </g>
  <g s:type="outputExt" transform="translate(359,152)" s:width="30" s:height="20" id="cell_clear_acc">
    <text x="15" y="-4" class="nodelabel cell_clear_acc" s:attribute="ref">clear_acc</text>
    <s:alias val="$_outputExt_"/>
    <path d="M30,0 L30,20 L15,20 L0,10 L15,0 Z" class="cell_clear_acc"/>
    <g s:x="0" s:y="10" s:pid="A"/>
  </g>
  <g s:type="outputExt" transform="translate(359,412)" s:width="30" s:height="20" id="cell_do_mac_hidden">
    <text x="15" y="-4" class="nodelabel cell_do_mac_hidden" s:attribute="ref">do_mac_hidden</text>
    <s:alias val="$_outputExt_"/>
    <path d="M30,0 L30,20 L15,20 L0,10 L15,0 Z" class="cell_do_mac_hidden"/>
    <g s:x="0" s:y="10" s:pid="A"/>
  </g>
  <g s:type="outputExt" transform="translate(359,282)" s:width="30" s:height="20" id="cell_do_bias_hidden">
    <text x="15" y="-4" class="nodelabel cell_do_bias_hidden" s:attribute="ref">do_bias_hidden</text>
    <s:alias val="$_outputExt_"/>
    <path d="M30,0 L30,20 L15,20 L0,10 L15,0 Z" class="cell_do_bias_hidden"/>
    <g s:x="0" s:y="10" s:pid="A"/>
  </g>
  <g s:type="outputExt" transform="translate(359,217)" s:width="30" s:height="20" id="cell_do_act_hidden">
    <text x="15" y="-4" class="nodelabel cell_do_act_hidden" s:attribute="ref">do_act_hidden</text>
    <s:alias val="$_outputExt_"/>
    <path d="M30,0 L30,20 L15,20 L0,10 L15,0 Z" class="cell_do_act_hidden"/>
    <g s:x="0" s:y="10" s:pid="A"/>
  </g>
  <g s:type="outputExt" transform="translate(359,22)" s:width="30" s:height="20" id="cell_advance_hidden">
    <text x="15" y="-4" class="nodelabel cell_advance_hidden" s:attribute="ref">advance_hidden</text>
    <s:alias val="$_outputExt_"/>
    <path d="M30,0 L30,20 L15,20 L0,10 L15,0 Z" class="cell_advance_hidden"/>
    <g s:x="0" s:y="10" s:pid="A"/>
  </g>
  <g s:type="outputExt" transform="translate(359,477)" s:width="30" s:height="20" id="cell_do_mac_output">
    <text x="15" y="-4" class="nodelabel cell_do_mac_output" s:attribute="ref">do_mac_output</text>
    <s:alias val="$_outputExt_"/>
    <path d="M30,0 L30,20 L15,20 L0,10 L15,0 Z" class="cell_do_mac_output"/>
    <g s:x="0" s:y="10" s:pid="A"/>
  </g>
  <g s:type="outputExt" transform="translate(359,347)" s:width="30" s:height="20" id="cell_do_bias_output">
    <text x="15" y="-4" class="nodelabel cell_do_bias_output" s:attribute="ref">do_bias_output</text>
    <s:alias val="$_outputExt_"/>
    <path d="M30,0 L30,20 L15,20 L0,10 L15,0 Z" class="cell_do_bias_output"/>
    <g s:x="0" s:y="10" s:pid="A"/>
  </g>
  <g s:type="outputExt" transform="translate(359,542)" s:width="30" s:height="20" id="cell_done">
    <text x="15" y="-4" class="nodelabel cell_done" s:attribute="ref">done</text>
    <s:alias val="$_outputExt_"/>
    <path d="M30,0 L30,20 L15,20 L0,10 L15,0 Z" class="cell_done"/>
    <g s:x="0" s:y="10" s:pid="A"/>
  </g>
  <g s:type="outputExt" transform="translate(359,87)" s:width="30" s:height="20" id="cell_busy">
    <text x="15" y="-4" class="nodelabel cell_busy" s:attribute="ref">busy</text>
    <s:alias val="$_outputExt_"/>
    <path d="M30,0 L30,20 L15,20 L0,10 L15,0 Z" class="cell_busy"/>
    <g s:x="0" s:y="10" s:pid="A"/>
  </g>
  <line x1="40" x2="183" y1="257" y2="257" class="net_2"/>
  <line x1="40" x2="82" y1="322" y2="322" class="net_5,6,7,8"/>
  <line x1="82" x2="82" y1="322" y2="277" class="net_5,6,7,8"/>
  <line x1="82" x2="183" y1="277" y2="277" class="net_5,6,7,8"/>
  <line x1="40" x2="92" y1="387" y2="387" class="net_9,10,11,12"/>
  <line x1="92" x2="92" y1="387" y2="297" class="net_9,10,11,12"/>
  <line x1="92" x2="183" y1="297" y2="297" class="net_9,10,11,12"/>
  <line x1="40" x2="102" y1="452" y2="452" class="net_3"/>
  <line x1="102" x2="102" y1="452" y2="317" class="net_3"/>
  <line x1="102" x2="183" y1="317" y2="317" class="net_3"/>
  <line x1="40" x2="112" y1="517" y2="517" class="net_4"/>
  <line x1="112" x2="112" y1="517" y2="337" class="net_4"/>
  <line x1="112" x2="183" y1="337" y2="337" class="net_4"/>
  <line x1="214" x2="309" y1="457" y2="457" class="net_13,14,15,16"/>
  <line x1="309" x2="309" y1="457" y2="682" class="net_13,14,15,16"/>
  <line x1="309" x2="359" y1="682" y2="682" class="net_13,14,15,16"/>
  <line x1="214" x2="319" y1="437" y2="437" class="net_17"/>
  <line x1="319" x2="319" y1="437" y2="617" class="net_17"/>
  <line x1="319" x2="359" y1="617" y2="617" class="net_17"/>
  <line x1="214" x2="329" y1="297" y2="297" class="net_18"/>
  <line x1="329" x2="329" y1="297" y2="162" class="net_18"/>
  <line x1="329" x2="359" y1="162" y2="162" class="net_18"/>
  <line x1="214" x2="349" y1="377" y2="377" class="net_19"/>
  <line x1="349" x2="349" y1="377" y2="422" class="net_19"/>
  <line x1="349" x2="359" y1="422" y2="422" class="net_19"/>
  <line x1="214" x2="349" y1="337" y2="337" class="net_20"/>
  <line x1="349" x2="349" y1="337" y2="292" class="net_20"/>
  <line x1="349" x2="359" y1="292" y2="292" class="net_20"/>
  <line x1="214" x2="339" y1="317" y2="317" class="net_21"/>
  <line x1="339" x2="339" y1="317" y2="227" class="net_21"/>
  <line x1="339" x2="359" y1="227" y2="227" class="net_21"/>
  <line x1="214" x2="309" y1="257" y2="257" class="net_22"/>
  <line x1="309" x2="309" y1="257" y2="32" class="net_22"/>
  <line x1="309" x2="359" y1="32" y2="32" class="net_22"/>
  <line x1="214" x2="339" y1="397" y2="397" class="net_23"/>
  <line x1="339" x2="339" y1="397" y2="487" class="net_23"/>
  <line x1="339" x2="359" y1="487" y2="487" class="net_23"/>
  <line x1="214" x2="359" y1="357" y2="357" class="net_24"/>
  <line x1="214" x2="329" y1="417" y2="417" class="net_25"/>
  <line x1="329" x2="329" y1="417" y2="552" class="net_25"/>
  <line x1="329" x2="359" y1="552" y2="552" class="net_25"/>
  <line x1="214" x2="319" y1="277" y2="277" class="net_26"/>
  <line x1="319" x2="319" y1="277" y2="97" class="net_26"/>
  <line x1="319" x2="359" y1="97" y2="97" class="net_26"/>
</svg>
