<svg xmlns="http://www.w3.org/2000/svg" xmlns:xlink="http://www.w3.org/1999/xlink" xmlns:s="https://github.com/nturley/netlistsvg" width="1434" height="1367.5">
  <style>svg {
    stroke:#000;
    fill:none;
  }
  text {
    fill:#000;
    stroke:none;
    font-size:10px;
    font-weight: bold;
    font-family: "Courier New", monospace;
  }
  .nodelabel {
    text-anchor: middle;
  }
  .inputPortLabel {
    text-anchor: end;
  }
  .splitjoinBody {
    fill:#000;
  }</style>
  <g s:type="generic" transform="translate(102,1097.5)" s:width="30" s:height="40" id="cell_$auto$ff.cc:337:slice$79">
    <text x="15" y="-4" class="nodelabel cell_$auto$ff.cc:337:slice$79" s:attribute="ref">$sdff</text>
    <rect width="30" height="60" s:generic="body" class="cell_$auto$ff.cc:337:slice$79"/>
    <g transform="translate(0,10)" s:x="0" s:y="10" s:pid="in0" id="port_$auto$ff.cc:337:slice$79~CLK">
      <text x="-3" y="-4" class="inputPortLabel cell_$auto$ff.cc:337:slice$79">CLK</text>
    </g>
    <g transform="translate(0,30)" s:x="0" s:y="10" s:pid="in0" id="port_$auto$ff.cc:337:slice$79~D">
      <text x="-3" y="-4" class="inputPortLabel cell_$auto$ff.cc:337:slice$79">D</text>
    </g>
    <g transform="translate(0,50)" s:x="0" s:y="10" s:pid="in0" id="port_$auto$ff.cc:337:slice$79~SRST">
      <text x="-3" y="-4" class="inputPortLabel cell_$auto$ff.cc:337:slice$79">SRST</text>
    </g>
    <g transform="translate(30,10)" s:x="30" s:y="10" s:pid="out0" id="port_$auto$ff.cc:337:slice$79~Q">
      <text x="5" y="-4" style="fill:#000; stroke:none" class="cell_$auto$ff.cc:337:slice$79">Q</text>
    </g>
  </g>
  <g s:type="mux" transform="translate(359.3333333333333,76)" s:width="20" s:height="40" id="cell_$procmux$20">
    <s:alias val="$pmux"/>
    <s:alias val="$mux"/>
    <s:alias val="$_MUX_"/>
    <path d="M0,0 L20,10 L20,30 L0,40 Z" class="cell_$procmux$20"/>
    <g s:x="0" s:y="10" s:pid="A"/>
    <g s:x="0" s:y="30" s:pid="B"/>
    <g s:x="10" s:y="35" s:pid="S"/>
    <g s:x="20" s:y="20" s:pid="Y"/>
  </g>
  <g s:type="mux" transform="translate(359.3333333333333,136)" s:width="20" s:height="40" id="cell_$procmux$28">
    <s:alias val="$pmux"/>
    <s:alias val="$mux"/>
    <s:alias val="$_MUX_"/>
    <path d="M0,0 L20,10 L20,30 L0,40 Z" class="cell_$procmux$28"/>
    <g s:x="0" s:y="10" s:pid="A"/>
    <g s:x="0" s:y="30" s:pid="B"/>
    <g s:x="10" s:y="35" s:pid="S"/>
    <g s:x="20" s:y="20" s:pid="Y"/>
  </g>
  <g s:type="mux" transform="translate(359.3333333333333,207)" s:width="20" s:height="40" id="cell_$procmux$37">
    <s:alias val="$pmux"/>
    <s:alias val="$mux"/>
    <s:alias val="$_MUX_"/>
    <path d="M0,0 L20,10 L20,30 L0,40 Z" class="cell_$procmux$37"/>
    <g s:x="0" s:y="10" s:pid="A"/>
    <g s:x="0" s:y="30" s:pid="B"/>
    <g s:x="10" s:y="35" s:pid="S"/>
    <g s:x="20" s:y="20" s:pid="Y"/>
  </g>
  <g s:type="mux" transform="translate(359.3333333333333,656.5)" s:width="20" s:height="40" id="cell_$procmux$49">
    <s:alias val="$pmux"/>
    <s:alias val="$mux"/>
    <s:alias val="$_MUX_"/>
    <path d="M0,0 L20,10 L20,30 L0,40 Z" class="cell_$procmux$49"/>
    <g s:x="0" s:y="10" s:pid="A"/>
    <g s:x="0" s:y="30" s:pid="B"/>
    <g s:x="10" s:y="35" s:pid="S"/>
    <g s:x="20" s:y="20" s:pid="Y"/>
  </g>
  <g s:type="mux" transform="translate(359.3333333333333,306.5)" s:width="20" s:height="40" id="cell_$procmux$63">
    <s:alias val="$pmux"/>
    <s:alias val="$mux"/>
    <s:alias val="$_MUX_"/>
    <path d="M0,0 L20,10 L20,30 L0,40 Z" class="cell_$procmux$63"/>
    <g s:x="0" s:y="10" s:pid="A"/>
    <g s:x="0" s:y="30" s:pid="B"/>
    <g s:x="10" s:y="35" s:pid="S"/>
    <g s:x="20" s:y="20" s:pid="Y"/>
  </g>
  <g s:type="mux" transform="translate(501,147)" s:width="20" s:height="40" id="cell_$procmux$68">
    <s:alias val="$pmux"/>
    <s:alias val="$mux"/>
    <s:alias val="$_MUX_"/>
    <path d="M0,0 L20,10 L20,30 L0,40 Z" class="cell_$procmux$68"/>
    <g s:x="0" s:y="10" s:pid="A"/>
    <g s:x="0" s:y="30" s:pid="B"/>
    <g s:x="10" s:y="35" s:pid="S"/>
    <g s:x="20" s:y="20" s:pid="Y"/>
  </g>
  <g s:type="eq" transform="translate(357.6666666666667,491.5)" s:width="25" s:height="25" id="cell_$procmux$69_CMP0">
    <s:alias val="$eq"/>
    <circle r="12.5" cx="12.5" cy="12.5" class="cell_$procmux$69_CMP0"/>
    <line x1="7.5" x2="17.5" y1="10" y2="10" class="cell_$procmux$69_CMP0"/>
    <line x1="7.5" x2="17.5" y1="15" y2="15" class="cell_$procmux$69_CMP0"/>
    <g s:x="3" s:y="5" s:pid="A"/>
    <g s:x="3" s:y="20" s:pid="B"/>
    <g s:x="25" s:y="12.5" s:pid="Y"/>
  </g>
  <g s:type="eq" transform="translate(357.6666666666667,596.5)" s:width="25" s:height="25" id="cell_$procmux$70_CMP0">
    <s:alias val="$eq"/>
    <circle r="12.5" cx="12.5" cy="12.5" class="cell_$procmux$70_CMP0"/>
    <line x1="7.5" x2="17.5" y1="10" y2="10" class="cell_$procmux$70_CMP0"/>
    <line x1="7.5" x2="17.5" y1="15" y2="15" class="cell_$procmux$70_CMP0"/>
    <g s:x="3" s:y="5" s:pid="A"/>
    <g s:x="3" s:y="20" s:pid="B"/>
    <g s:x="25" s:y="12.5" s:pid="Y"/>
  </g>
  <g s:type="eq" transform="translate(357.6666666666667,366.5)" s:width="25" s:height="25" id="cell_$procmux$71_CMP0">
    <s:alias val="$eq"/>
    <circle r="12.5" cx="12.5" cy="12.5" class="cell_$procmux$71_CMP0"/>
    <line x1="7.5" x2="17.5" y1="10" y2="10" class="cell_$procmux$71_CMP0"/>
    <line x1="7.5" x2="17.5" y1="15" y2="15" class="cell_$procmux$71_CMP0"/>
    <g s:x="3" s:y="5" s:pid="A"/>
    <g s:x="3" s:y="20" s:pid="B"/>
    <g s:x="25" s:y="12.5" s:pid="Y"/>
  </g>
  <g s:type="eq" transform="translate(357.6666666666667,1260.5)" s:width="25" s:height="25" id="cell_$procmux$72_CMP0">
    <s:alias val="$eq"/>
    <circle r="12.5" cx="12.5" cy="12.5" class="cell_$procmux$72_CMP0"/>
    <line x1="7.5" x2="17.5" y1="10" y2="10" class="cell_$procmux$72_CMP0"/>
    <line x1="7.5" x2="17.5" y1="15" y2="15" class="cell_$procmux$72_CMP0"/>
    <g s:x="3" s:y="5" s:pid="A"/>
    <g s:x="3" s:y="20" s:pid="B"/>
    <g s:x="25" s:y="12.5" s:pid="Y"/>
  </g>
  <g s:type="eq" transform="translate(357.6666666666667,1325.5)" s:width="25" s:height="25" id="cell_$procmux$73_CMP0">
    <s:alias val="$eq"/>
    <circle r="12.5" cx="12.5" cy="12.5" class="cell_$procmux$73_CMP0"/>
    <line x1="7.5" x2="17.5" y1="10" y2="10" class="cell_$procmux$73_CMP0"/>
    <line x1="7.5" x2="17.5" y1="15" y2="15" class="cell_$procmux$73_CMP0"/>
    <g s:x="3" s:y="5" s:pid="A"/>
    <g s:x="3" s:y="20" s:pid="B"/>
    <g s:x="25" s:y="12.5" s:pid="Y"/>
  </g>
  <g s:type="eq" transform="translate(357.6666666666667,1195.5)" s:width="25" s:height="25" id="cell_$procmux$74_CMP0">
    <s:alias val="$eq"/>
    <circle r="12.5" cx="12.5" cy="12.5" class="cell_$procmux$74_CMP0"/>
    <line x1="7.5" x2="17.5" y1="10" y2="10" class="cell_$procmux$74_CMP0"/>
    <line x1="7.5" x2="17.5" y1="15" y2="15" class="cell_$procmux$74_CMP0"/>
    <g s:x="3" s:y="5" s:pid="A"/>
    <g s:x="3" s:y="20" s:pid="B"/>
    <g s:x="25" s:y="12.5" s:pid="Y"/>
  </g>
  <g s:type="eq" transform="translate(357.6666666666667,816.5)" s:width="25" s:height="25" id="cell_$procmux$75_CMP0">
    <s:alias val="$eq"/>
    <circle r="12.5" cx="12.5" cy="12.5" class="cell_$procmux$75_CMP0"/>
    <line x1="7.5" x2="17.5" y1="10" y2="10" class="cell_$procmux$75_CMP0"/>
    <line x1="7.5" x2="17.5" y1="15" y2="15" class="cell_$procmux$75_CMP0"/>
    <g s:x="3" s:y="5" s:pid="A"/>
    <g s:x="3" s:y="20" s:pid="B"/>
    <g s:x="25" s:y="12.5" s:pid="Y"/>
  </g>
  <g s:type="eq" transform="translate(357.6666666666667,1019.5)" s:width="25" s:height="25" id="cell_$procmux$76_CMP0">
    <s:alias val="$eq"/>
    <circle r="12.5" cx="12.5" cy="12.5" class="cell_$procmux$76_CMP0"/>
    <line x1="7.5" x2="17.5" y1="10" y2="10" class="cell_$procmux$76_CMP0"/>
    <line x1="7.5" x2="17.5" y1="15" y2="15" class="cell_$procmux$76_CMP0"/>
    <g s:x="3" s:y="5" s:pid="A"/>
    <g s:x="3" s:y="20" s:pid="B"/>
    <g s:x="25" s:y="12.5" s:pid="Y"/>
  </g>
  <g s:type="not" transform="translate(356,1098)" s:width="30" s:height="20" id="cell_$procmux$77_CMP0">
    <s:alias val="$_NOT_"/>
    <s:alias val="$not"/>
    <s:alias val="$logic_not"/>
    <path d="M0,0 L0,20 L20,10 Z" class="cell_$procmux$77_CMP0"/>
    <circle cx="23" cy="10" r="3" class="cell_$procmux$77_CMP0"/>
    <g s:x="0" s:y="10" s:pid="A"/>
    <g s:x="25" s:y="10" s:pid="Y"/>
  </g>
  <g s:type="inputExt" transform="translate(12,1073)" s:width="30" s:height="20" id="cell_clk">
    <text x="15" y="-4" class="nodelabel cell_clk" s:attribute="ref">clk</text>
    <s:alias val="$_inputExt_"/>
    <path d="M0,0 L0,20 L15,20 L30,10 L15,0 Z" class="cell_clk"/>
    <g s:x="28" s:y="10" s:pid="Y"/>
  </g>
  <g s:type="inputExt" transform="translate(102,631.5)" s:width="30" s:height="20" id="cell_start">
    <text x="15" y="-4" class="nodelabel cell_start" s:attribute="ref">start</text>
    <s:alias val="$_inputExt_"/>
    <path d="M0,0 L0,20 L15,20 L30,10 L15,0 Z" class="cell_start"/>
    <g s:x="28" s:y="10" s:pid="Y"/>
  </g>
  <g s:type="inputExt" transform="translate(12,1138)" s:width="30" s:height="20" id="cell_reset">
    <text x="15" y="-4" class="nodelabel cell_reset" s:attribute="ref">reset</text>
    <s:alias val="$_inputExt_"/>
    <path d="M0,0 L0,20 L15,20 L30,10 L15,0 Z" class="cell_reset"/>
    <g s:x="28" s:y="10" s:pid="Y"/>
  </g>
  <g s:type="inputExt" transform="translate(12,22)" s:width="30" s:height="20" id="cell_hidden_mac_active">
    <text x="15" y="-4" class="nodelabel cell_hidden_mac_active" s:attribute="ref">hidden_mac_active</text>
    <s:alias val="$_inputExt_"/>
    <path d="M0,0 L0,20 L15,20 L30,10 L15,0 Z" class="cell_hidden_mac_active"/>
    <g s:x="28" s:y="10" s:pid="Y"/>
  </g>
  <g s:type="inputExt" transform="translate(102,696.5)" s:width="30" s:height="20" id="cell_hidden_mac_guard">
    <text x="15" y="-4" class="nodelabel cell_hidden_mac_guard" s:attribute="ref">hidden_mac_guard</text>
    <s:alias val="$_inputExt_"/>
    <path d="M0,0 L0,20 L15,20 L30,10 L15,0 Z" class="cell_hidden_mac_guard"/>
    <g s:x="28" s:y="10" s:pid="Y"/>
  </g>
  <g s:type="inputExt" transform="translate(102,566.5)" s:width="30" s:height="20" id="cell_last_hidden">
    <text x="15" y="-4" class="nodelabel cell_last_hidden" s:attribute="ref">last_hidden</text>
    <s:alias val="$_inputExt_"/>
    <path d="M0,0 L0,20 L15,20 L30,10 L15,0 Z" class="cell_last_hidden"/>
    <g s:x="28" s:y="10" s:pid="Y"/>
  </g>
  <g s:type="inputExt" transform="translate(126,22)" s:width="30" s:height="20" id="cell_output_mac_active">
    <text x="15" y="-4" class="nodelabel cell_output_mac_active" s:attribute="ref">output_mac_active</text>
    <s:alias val="$_inputExt_"/>
    <path d="M0,0 L0,20 L15,20 L30,10 L15,0 Z" class="cell_output_mac_active"/>
    <g s:x="28" s:y="10" s:pid="Y"/>
  </g>
  <g s:type="inputExt" transform="translate(102,176)" s:width="30" s:height="20" id="cell_output_mac_guard">
    <text x="15" y="-4" class="nodelabel cell_output_mac_guard" s:attribute="ref">output_mac_guard</text>
    <s:alias val="$_inputExt_"/>
    <path d="M0,0 L0,20 L15,20 L30,10 L15,0 Z" class="cell_output_mac_guard"/>
    <g s:x="28" s:y="10" s:pid="Y"/>
  </g>
  <g s:type="inputExt" transform="translate(240,22)" s:width="30" s:height="20" id="cell_hidden_mac_pos_b0">
    <text x="15" y="-4" class="nodelabel cell_hidden_mac_pos_b0" s:attribute="ref">hidden_mac_pos_b0</text>
    <s:alias val="$_inputExt_"/>
    <path d="M0,0 L0,20 L15,20 L30,10 L15,0 Z" class="cell_hidden_mac_pos_b0"/>
    <g s:x="28" s:y="10" s:pid="Y"/>
  </g>
  <g s:type="inputExt" transform="translate(354,22)" s:width="30" s:height="20" id="cell_hidden_mac_pos_b1">
    <text x="15" y="-4" class="nodelabel cell_hidden_mac_pos_b1" s:attribute="ref">hidden_mac_pos_b1</text>
    <s:alias val="$_inputExt_"/>
    <path d="M0,0 L0,20 L15,20 L30,10 L15,0 Z" class="cell_hidden_mac_pos_b1"/>
    <g s:x="28" s:y="10" s:pid="Y"/>
  </g>
  <g s:type="inputExt" transform="translate(468,22)" s:width="30" s:height="20" id="cell_hidden_mac_pos_b2">
    <text x="15" y="-4" class="nodelabel cell_hidden_mac_pos_b2" s:attribute="ref">hidden_mac_pos_b2</text>
    <s:alias val="$_inputExt_"/>
    <path d="M0,0 L0,20 L15,20 L30,10 L15,0 Z" class="cell_hidden_mac_pos_b2"/>
    <g s:x="28" s:y="10" s:pid="Y"/>
  </g>
  <g s:type="inputExt" transform="translate(1038,22)" s:width="30" s:height="20" id="cell_hidden_neuron_ord_b0">
    <text x="15" y="-4" class="nodelabel cell_hidden_neuron_ord_b0" s:attribute="ref">hidden_neuron_ord_b0</text>
    <s:alias val="$_inputExt_"/>
    <path d="M0,0 L0,20 L15,20 L30,10 L15,0 Z" class="cell_hidden_neuron_ord_b0"/>
    <g s:x="28" s:y="10" s:pid="Y"/>
  </g>
  <g s:type="inputExt" transform="translate(1170,22)" s:width="30" s:height="20" id="cell_hidden_neuron_ord_b1">
    <text x="15" y="-4" class="nodelabel cell_hidden_neuron_ord_b1" s:attribute="ref">hidden_neuron_ord_b1</text>
    <s:alias val="$_inputExt_"/>
    <path d="M0,0 L0,20 L15,20 L30,10 L15,0 Z" class="cell_hidden_neuron_ord_b1"/>
    <g s:x="28" s:y="10" s:pid="Y"/>
  </g>
  <g s:type="inputExt" transform="translate(1302,22)" s:width="30" s:height="20" id="cell_hidden_neuron_ord_b2">
    <text x="15" y="-4" class="nodelabel cell_hidden_neuron_ord_b2" s:attribute="ref">hidden_neuron_ord_b2</text>
    <s:alias val="$_inputExt_"/>
    <path d="M0,0 L0,20 L15,20 L30,10 L15,0 Z" class="cell_hidden_neuron_ord_b2"/>
    <g s:x="28" s:y="10" s:pid="Y"/>
  </g>
  <g s:type="inputExt" transform="translate(582,22)" s:width="30" s:height="20" id="cell_output_mac_pos_b0">
    <text x="15" y="-4" class="nodelabel cell_output_mac_pos_b0" s:attribute="ref">output_mac_pos_b0</text>
    <s:alias val="$_inputExt_"/>
    <path d="M0,0 L0,20 L15,20 L30,10 L15,0 Z" class="cell_output_mac_pos_b0"/>
    <g s:x="28" s:y="10" s:pid="Y"/>
  </g>
  <g s:type="inputExt" transform="translate(696,22)" s:width="30" s:height="20" id="cell_output_mac_pos_b1">
    <text x="15" y="-4" class="nodelabel cell_output_mac_pos_b1" s:attribute="ref">output_mac_pos_b1</text>
    <s:alias val="$_inputExt_"/>
    <path d="M0,0 L0,20 L15,20 L30,10 L15,0 Z" class="cell_output_mac_pos_b1"/>
    <g s:x="28" s:y="10" s:pid="Y"/>
  </g>
  <g s:type="inputExt" transform="translate(810,22)" s:width="30" s:height="20" id="cell_output_mac_pos_b2">
    <text x="15" y="-4" class="nodelabel cell_output_mac_pos_b2" s:attribute="ref">output_mac_pos_b2</text>
    <s:alias val="$_inputExt_"/>
    <path d="M0,0 L0,20 L15,20 L30,10 L15,0 Z" class="cell_output_mac_pos_b2"/>
    <g s:x="28" s:y="10" s:pid="Y"/>
  </g>
  <g s:type="inputExt" transform="translate(924,22)" s:width="30" s:height="20" id="cell_output_mac_pos_b3">
    <text x="15" y="-4" class="nodelabel cell_output_mac_pos_b3" s:attribute="ref">output_mac_pos_b3</text>
    <s:alias val="$_inputExt_"/>
    <path d="M0,0 L0,20 L15,20 L30,10 L15,0 Z" class="cell_output_mac_pos_b3"/>
    <g s:x="28" s:y="10" s:pid="Y"/>
  </g>
  <g s:type="outputExt" transform="translate(501,1087)" s:width="30" s:height="20" id="cell_phase_idle">
    <text x="15" y="-4" class="nodelabel cell_phase_idle" s:attribute="ref">phase_idle</text>
    <s:alias val="$_outputExt_"/>
    <path d="M30,0 L30,20 L15,20 L0,10 L15,0 Z" class="cell_phase_idle"/>
    <g s:x="0" s:y="10" s:pid="A"/>
  </g>
  <g s:type="outputExt" transform="translate(501,1022)" s:width="30" s:height="20" id="cell_phase_load_input">
    <text x="15" y="-4" class="nodelabel cell_phase_load_input" s:attribute="ref">phase_load_input</text>
    <s:alias val="$_outputExt_"/>
    <path d="M30,0 L30,20 L15,20 L0,10 L15,0 Z" class="cell_phase_load_input"/>
    <g s:x="0" s:y="10" s:pid="A"/>
  </g>
  <g s:type="outputExt" transform="translate(501,819)" s:width="30" s:height="20" id="cell_phase_mac_hidden">
    <text x="15" y="-4" class="nodelabel cell_phase_mac_hidden" s:attribute="ref">phase_mac_hidden</text>
    <s:alias val="$_outputExt_"/>
    <path d="M30,0 L30,20 L15,20 L0,10 L15,0 Z" class="cell_phase_mac_hidden"/>
    <g s:x="0" s:y="10" s:pid="A"/>
  </g>
  <g s:type="outputExt" transform="translate(501,1198)" s:width="30" s:height="20" id="cell_phase_bias_hidden">
    <text x="15" y="-4" class="nodelabel cell_phase_bias_hidden" s:attribute="ref">phase_bias_hidden</text>
    <s:alias val="$_outputExt_"/>
    <path d="M30,0 L30,20 L15,20 L0,10 L15,0 Z" class="cell_phase_bias_hidden"/>
    <g s:x="0" s:y="10" s:pid="A"/>
  </g>
  <g s:type="outputExt" transform="translate(501,1328)" s:width="30" s:height="20" id="cell_phase_act_hidden">
    <text x="15" y="-4" class="nodelabel cell_phase_act_hidden" s:attribute="ref">phase_act_hidden</text>
    <s:alias val="$_outputExt_"/>
    <path d="M30,0 L30,20 L15,20 L0,10 L15,0 Z" class="cell_phase_act_hidden"/>
    <g s:x="0" s:y="10" s:pid="A"/>
  </g>
  <g s:type="outputExt" transform="translate(501,1263)" s:width="30" s:height="20" id="cell_phase_next_hidden">
    <text x="15" y="-4" class="nodelabel cell_phase_next_hidden" s:attribute="ref">phase_next_hidden</text>
    <s:alias val="$_outputExt_"/>
    <path d="M30,0 L30,20 L15,20 L0,10 L15,0 Z" class="cell_phase_next_hidden"/>
    <g s:x="0" s:y="10" s:pid="A"/>
  </g>
  <g s:type="outputExt" transform="translate(501,369)" s:width="30" s:height="20" id="cell_phase_mac_output">
    <text x="15" y="-4" class="nodelabel cell_phase_mac_output" s:attribute="ref">phase_mac_output</text>
    <s:alias val="$_outputExt_"/>
    <path d="M30,0 L30,20 L15,20 L0,10 L15,0 Z" class="cell_phase_mac_output"/>
    <g s:x="0" s:y="10" s:pid="A"/>
  </g>
  <g s:type="outputExt" transform="translate(501,599)" s:width="30" s:height="20" id="cell_phase_bias_output">
    <text x="15" y="-4" class="nodelabel cell_phase_bias_output" s:attribute="ref">phase_bias_output</text>
    <s:alias val="$_outputExt_"/>
    <path d="M30,0 L30,20 L15,20 L0,10 L15,0 Z" class="cell_phase_bias_output"/>
    <g s:x="0" s:y="10" s:pid="A"/>
  </g>
  <g s:type="outputExt" transform="translate(501,494)" s:width="30" s:height="20" id="cell_phase_done">
    <text x="15" y="-4" class="nodelabel cell_phase_done" s:attribute="ref">phase_done</text>
    <s:alias val="$_outputExt_"/>
    <path d="M30,0 L30,20 L15,20 L0,10 L15,0 Z" class="cell_phase_done"/>
    <g s:x="0" s:y="10" s:pid="A"/>
  </g>
  <g s:type="constant" transform="translate(102,306.5)" s:width="30" s:height="20" id="cell_0000">
    <text x="15" y="-4" class="nodelabel cell_0000" s:attribute="ref">0x0</text>
    <s:alias val="$_constant_"/>
    <rect width="30" height="20" class="cell_0000"/>
    <g s:x="30" s:y="10" s:pid="Y"/>
  </g>
  <g s:type="constant" transform="translate(102,501.5)" s:width="30" s:height="20" id="cell_1000">
    <text x="15" y="-4" class="nodelabel cell_1000" s:attribute="ref">0x8</text>
    <s:alias val="$_constant_"/>
    <rect width="30" height="20" class="cell_1000"/>
    <g s:x="30" s:y="10" s:pid="Y"/>
  </g>
  <g s:type="constant" transform="translate(102,376.5)" s:width="30" s:height="20" id="cell_0110">
    <text x="15" y="-4" class="nodelabel cell_0110" s:attribute="ref">0x6</text>
    <s:alias val="$_constant_"/>
    <rect width="30" height="20" class="cell_0110"/>
    <g s:x="30" s:y="10" s:pid="Y"/>
  </g>
  <g s:type="constant" transform="translate(102,761.5)" s:width="30" s:height="20" id="cell_0111">
    <text x="15" y="-4" class="nodelabel cell_0111" s:attribute="ref">0x7</text>
    <s:alias val="$_constant_"/>
    <rect width="30" height="20" class="cell_0111"/>
    <g s:x="30" s:y="10" s:pid="Y"/>
  </g>
  <g s:type="constant" transform="translate(102,826.5)" s:width="30" s:height="20" id="cell_0010">
    <text x="15" y="-4" class="nodelabel cell_0010" s:attribute="ref">0x2</text>
    <s:alias val="$_constant_"/>
    <rect width="30" height="20" class="cell_0010"/>
    <g s:x="30" s:y="10" s:pid="Y"/>
  </g>
  <g s:type="constant" transform="translate(102,1205.5)" s:width="30" s:height="20" id="cell_0011">
    <text x="15" y="-4" class="nodelabel cell_0011" s:attribute="ref">0x3</text>
    <s:alias val="$_constant_"/>
    <rect width="30" height="20" class="cell_0011"/>
    <g s:x="30" s:y="10" s:pid="Y"/>
  </g>
  <g s:type="constant" transform="translate(102,1029.5)" s:width="30" s:height="20" id="cell_0001">
    <text x="15" y="-4" class="nodelabel cell_0001" s:attribute="ref">0x1</text>
    <s:alias val="$_constant_"/>
    <rect width="30" height="20" class="cell_0001"/>
    <g s:x="30" s:y="10" s:pid="Y"/>
  </g>
  <g s:type="constant" transform="translate(356,436.5)" s:width="30" s:height="20" id="cell_01000101">
    <text x="15" y="-4" class="nodelabel cell_01000101" s:attribute="ref">0x45</text>
    <s:alias val="$_constant_"/>
    <rect width="30" height="20" class="cell_01000101"/>
    <g s:x="30" s:y="10" s:pid="Y"/>
  </g>
  <g s:type="constant" transform="translate(102,1270.5)" s:width="30" s:height="20" id="cell_0101">
    <text x="15" y="-4" class="nodelabel cell_0101" s:attribute="ref">0x5</text>
    <s:alias val="$_constant_"/>
    <rect width="30" height="20" class="cell_0101"/>
    <g s:x="30" s:y="10" s:pid="Y"/>
  </g>
  <g s:type="constant" transform="translate(102,1335.5)" s:width="30" s:height="20" id="cell_0100">
    <text x="15" y="-4" class="nodelabel cell_0100" s:attribute="ref">0x4</text>
    <s:alias val="$_constant_"/>
    <rect width="30" height="20" class="cell_0100"/>
    <g s:x="30" s:y="10" s:pid="Y"/>
  </g>
  <g s:type="join" transform="translate(446,156.5)" s:width="4" s:height="40" id="cell_$join$,37,38,39,40,61,62,63,64,41,42,43,44,45,46,47,48,105,106,107,108,109,110,111,112,49,50,51,52,73,74,75,76,53,54,55,56,">
    <rect width="5" height="160" class="splitjoinBody" s:generic="body"/>
    <s:alias val="$_join_"/>
    <g s:x="5" s:y="20" s:pid="out"/>
    <g transform="translate(0,10)" s:x="0" s:y="10" s:pid="in0">
      <text x="-3" y="-4" class="inputPortLabel">0:3</text>
    </g>
    <g transform="translate(0,30)" s:x="0" s:y="10" s:pid="in0">
      <text x="-3" y="-4" class="inputPortLabel">4:7</text>
    </g>
    <g transform="translate(0,50)" s:x="0" s:y="10" s:pid="in0">
      <text x="-3" y="-4" class="inputPortLabel">8:11</text>
    </g>
    <g transform="translate(0,70)" s:x="0" s:y="10" s:pid="in0">
      <text x="-3" y="-4" class="inputPortLabel">12:15</text>
    </g>
    <g transform="translate(0,90)" s:x="0" s:y="10" s:pid="in0">
      <text x="-3" y="-4" class="inputPortLabel">16:23</text>
    </g>
    <g transform="translate(0,110)" s:x="0" s:y="10" s:pid="in0">
      <text x="-3" y="-4" class="inputPortLabel">24:27</text>
    </g>
    <g transform="translate(0,130)" s:x="0" s:y="10" s:pid="in0">
      <text x="-3" y="-4" class="inputPortLabel">28:31</text>
    </g>
    <g transform="translate(0,150)" s:x="0" s:y="10" s:pid="in0">
      <text x="-3" y="-4" class="inputPortLabel">32:35</text>
    </g>
  </g>
  <g s:type="join" transform="translate(448,842)" s:width="4" s:height="40" id="cell_$join$,28,27,26,25,24,23,22,21,20,">
    <rect width="5" height="180" class="splitjoinBody" s:generic="body"/>
    <s:alias val="$_join_"/>
    <g s:x="5" s:y="20" s:pid="out"/>
    <g transform="translate(0,10)" s:x="0" s:y="10" s:pid="in0">
      <text x="-3" y="-4" class="inputPortLabel">0</text>
    </g>
    <g transform="translate(0,30)" s:x="0" s:y="10" s:pid="in0">
      <text x="-3" y="-4" class="inputPortLabel">1</text>
    </g>
    <g transform="translate(0,50)" s:x="0" s:y="10" s:pid="in0">
      <text x="-3" y="-4" class="inputPortLabel">2</text>
    </g>
    <g transform="translate(0,70)" s:x="0" s:y="10" s:pid="in0">
      <text x="-3" y="-4" class="inputPortLabel">3</text>
    </g>
    <g transform="translate(0,90)" s:x="0" s:y="10" s:pid="in0">
      <text x="-3" y="-4" class="inputPortLabel">4</text>
    </g>
    <g transform="translate(0,110)" s:x="0" s:y="10" s:pid="in0">
      <text x="-3" y="-4" class="inputPortLabel">5</text>
    </g>
    <g transform="translate(0,130)" s:x="0" s:y="10" s:pid="in0">
      <text x="-3" y="-4" class="inputPortLabel">6</text>
    </g>
    <g transform="translate(0,150)" s:x="0" s:y="10" s:pid="in0">
      <text x="-3" y="-4" class="inputPortLabel">7</text>
    </g>
    <g transform="translate(0,170)" s:x="0" s:y="10" s:pid="in0">
      <text x="-3" y="-4" class="inputPortLabel">8</text>
    </g>
  </g>
  <line x1="40" x2="62" y1="1083" y2="1083" class="net_2"/>
  <line x1="62" x2="62" y1="1083" y2="1108" class="net_2"/>
  <line x1="62" x2="102" y1="1108" y2="1108" class="net_2"/>
  <line x1="521" x2="613" y1="167" y2="167" class="net_29,30,31,32"/>
  <line x1="613" x2="613" y1="167" y2="54" class="net_29,30,31,32"/>
  <line x1="613" x2="52" y1="54" y2="54" class="net_29,30,31,32"/>
  <line x1="52" x2="52" y1="54" y2="1128" class="net_29,30,31,32"/>
  <line x1="52" x2="102" y1="1128" y2="1128" class="net_29,30,31,32"/>
  <line x1="40" x2="102" y1="1148" y2="1148" class="net_4"/>
  <line x1="132" x2="256" y1="316.5" y2="316.5" class="net_57,58,59,60"/>
  <line x1="256" x2="256" y1="316.5" y2="86" class="net_57,58,59,60"/>
  <circle cx="256" cy="316.5" r="2" style="fill:#000" class="net_57,58,59,60"/>
  <circle cx="256" cy="86" r="2" style="fill:#000" class="net_57,58,59,60"/>
  <line x1="256" x2="359.3333333333333" y1="86" y2="86" class="net_57,58,59,60"/>
  <line x1="132" x2="359.3333333333333" y1="316.5" y2="316.5" class="net_57,58,59,60"/>
  <line x1="132" x2="256" y1="316.5" y2="316.5" class="net_57,58,59,60"/>
  <line x1="256" x2="256" y1="316.5" y2="65" class="net_57,58,59,60"/>
  <line x1="256" x2="476" y1="65" y2="65" class="net_57,58,59,60"/>
  <line x1="476" x2="476" y1="65" y2="157" class="net_57,58,59,60"/>
  <line x1="476" x2="501" y1="157" y2="157" class="net_57,58,59,60"/>
  <line x1="132" x2="266" y1="511.5" y2="511.5" class="net_61,62,63,64"/>
  <line x1="266" x2="266" y1="511.5" y2="106" class="net_61,62,63,64"/>
  <circle cx="266" cy="511.5" r="2" style="fill:#000" class="net_61,62,63,64"/>
  <line x1="266" x2="359.3333333333333" y1="106" y2="106" class="net_61,62,63,64"/>
  <line x1="132" x2="360.6666666666667" y1="511.5" y2="511.5" class="net_61,62,63,64"/>
  <line x1="132" x2="266" y1="511.5" y2="511.5" class="net_61,62,63,64"/>
  <line x1="266" x2="266" y1="511.5" y2="196" class="net_61,62,63,64"/>
  <line x1="266" x2="396" y1="196" y2="196" class="net_61,62,63,64"/>
  <line x1="396" x2="396" y1="196" y2="187" class="net_61,62,63,64"/>
  <circle cx="266" cy="196" r="2" style="fill:#000" class="net_61,62,63,64"/>
  <line x1="396" x2="446" y1="187" y2="187" class="net_61,62,63,64"/>
  <line x1="130" x2="286" y1="641.5" y2="641.5" class="net_3"/>
  <line x1="286" x2="286" y1="641.5" y2="126" class="net_3"/>
  <line x1="286" x2="369.3333333333333" y1="126" y2="126" class="net_3"/>
  <line x1="369.3333333333333" x2="369.3333333333333" y1="126" y2="111" class="net_3"/>
  <line x1="130" x2="286" y1="641.5" y2="641.5" class="net_3"/>
  <line x1="286" x2="286" y1="641.5" y2="356.5" class="net_3"/>
  <line x1="286" x2="369.3333333333333" y1="356.5" y2="356.5" class="net_3"/>
  <circle cx="286" cy="356.5" r="2" style="fill:#000" class="net_3"/>
  <line x1="369.3333333333333" x2="369.3333333333333" y1="356.5" y2="341.5" class="net_3"/>
  <line x1="132" x2="296" y1="386.5" y2="386.5" class="net_65,66,67,68"/>
  <line x1="296" x2="296" y1="386.5" y2="146" class="net_65,66,67,68"/>
  <circle cx="296" cy="386.5" r="2" style="fill:#000" class="net_65,66,67,68"/>
  <line x1="296" x2="359.3333333333333" y1="146" y2="146" class="net_65,66,67,68"/>
  <line x1="132" x2="296" y1="386.5" y2="386.5" class="net_65,66,67,68"/>
  <line x1="296" x2="296" y1="386.5" y2="237" class="net_65,66,67,68"/>
  <circle cx="296" cy="237" r="2" style="fill:#000" class="net_65,66,67,68"/>
  <line x1="296" x2="359.3333333333333" y1="237" y2="237" class="net_65,66,67,68"/>
  <line x1="132" x2="360.6666666666667" y1="386.5" y2="386.5" class="net_65,66,67,68"/>
  <line x1="132" x2="306" y1="771.5" y2="771.5" class="net_69,70,71,72"/>
  <line x1="306" x2="306" y1="771.5" y2="166" class="net_69,70,71,72"/>
  <line x1="306" x2="359.3333333333333" y1="166" y2="166" class="net_69,70,71,72"/>
  <line x1="132" x2="306" y1="771.5" y2="771.5" class="net_69,70,71,72"/>
  <line x1="306" x2="306" y1="771.5" y2="616.5" class="net_69,70,71,72"/>
  <circle cx="306" cy="616.5" r="2" style="fill:#000" class="net_69,70,71,72"/>
  <line x1="306" x2="360.6666666666667" y1="616.5" y2="616.5" class="net_69,70,71,72"/>
  <line x1="130" x2="369.3333333333333" y1="186" y2="186" class="net_9"/>
  <line x1="369.3333333333333" x2="369.3333333333333" y1="186" y2="171" class="net_9"/>
  <line x1="132" x2="336" y1="836.5" y2="836.5" class="net_73,74,75,76"/>
  <line x1="336" x2="336" y1="836.5" y2="217" class="net_73,74,75,76"/>
  <circle cx="336" cy="836.5" r="2" style="fill:#000" class="net_73,74,75,76"/>
  <line x1="336" x2="359.3333333333333" y1="217" y2="217" class="net_73,74,75,76"/>
  <line x1="132" x2="336" y1="836.5" y2="836.5" class="net_73,74,75,76"/>
  <line x1="336" x2="336" y1="836.5" y2="666.5" class="net_73,74,75,76"/>
  <circle cx="336" cy="666.5" r="2" style="fill:#000" class="net_73,74,75,76"/>
  <line x1="336" x2="359.3333333333333" y1="666.5" y2="666.5" class="net_73,74,75,76"/>
  <line x1="132" x2="360.6666666666667" y1="836.5" y2="836.5" class="net_73,74,75,76"/>
  <line x1="132" x2="336" y1="836.5" y2="836.5" class="net_73,74,75,76"/>
  <line x1="336" x2="336" y1="836.5" y2="805.5" class="net_73,74,75,76"/>
  <line x1="336" x2="416" y1="805.5" y2="805.5" class="net_73,74,75,76"/>
  <line x1="416" x2="416" y1="805.5" y2="287" class="net_73,74,75,76"/>
  <circle cx="336" cy="805.5" r="2" style="fill:#000" class="net_73,74,75,76"/>
  <line x1="416" x2="446" y1="287" y2="287" class="net_73,74,75,76"/>
  <line x1="130" x2="276" y1="576.5" y2="576.5" class="net_7"/>
  <line x1="276" x2="276" y1="576.5" y2="296.5" class="net_7"/>
  <line x1="276" x2="369.3333333333333" y1="296.5" y2="296.5" class="net_7"/>
  <line x1="369.3333333333333" x2="369.3333333333333" y1="296.5" y2="242" class="net_7"/>
  <line x1="132" x2="326" y1="1215.5" y2="1215.5" class="net_85,86,87,88"/>
  <line x1="326" x2="326" y1="1215.5" y2="686.5" class="net_85,86,87,88"/>
  <circle cx="326" cy="1215.5" r="2" style="fill:#000" class="net_85,86,87,88"/>
  <line x1="326" x2="359.3333333333333" y1="686.5" y2="686.5" class="net_85,86,87,88"/>
  <line x1="132" x2="360.6666666666667" y1="1215.5" y2="1215.5" class="net_85,86,87,88"/>
  <line x1="130" x2="369.3333333333333" y1="706.5" y2="706.5" class="net_6"/>
  <line x1="369.3333333333333" x2="369.3333333333333" y1="706.5" y2="691.5" class="net_6"/>
  <line x1="132" x2="316" y1="1039.5" y2="1039.5" class="net_93,94,95,96"/>
  <line x1="316" x2="316" y1="1039.5" y2="336.5" class="net_93,94,95,96"/>
  <circle cx="316" cy="1039.5" r="2" style="fill:#000" class="net_93,94,95,96"/>
  <line x1="316" x2="359.3333333333333" y1="336.5" y2="336.5" class="net_93,94,95,96"/>
  <line x1="132" x2="360.6666666666667" y1="1039.5" y2="1039.5" class="net_93,94,95,96"/>
  <line x1="452" x2="501" y1="177" y2="177" class="net_37,38,39,40,61,62,63,64,41,42,43,44,45,46,47,48,105,106,107,108,109,110,111,112,49,50,51,52,73,74,75,76,53,54,55,56"/>
  <line x1="454" x2="476" y1="862.5" y2="862.5" class="net_28,27,26,25,24,23,22,21,20"/>
  <line x1="476" x2="476" y1="862.5" y2="349" class="net_28,27,26,25,24,23,22,21,20"/>
  <line x1="476" x2="511" y1="349" y2="349" class="net_28,27,26,25,24,23,22,21,20"/>
  <line x1="511" x2="511" y1="349" y2="182" class="net_28,27,26,25,24,23,22,21,20"/>
  <line x1="133" x2="346" y1="1108" y2="1108" class="net_33,34,35,36"/>
  <line x1="346" x2="346" y1="1108" y2="496.5" class="net_33,34,35,36"/>
  <circle cx="346" cy="1108" r="2" style="fill:#000" class="net_33,34,35,36"/>
  <circle cx="346" cy="496.5" r="2" style="fill:#000" class="net_33,34,35,36"/>
  <line x1="346" x2="360.6666666666667" y1="496.5" y2="496.5" class="net_33,34,35,36"/>
  <line x1="133" x2="346" y1="1108" y2="1108" class="net_33,34,35,36"/>
  <line x1="346" x2="346" y1="1108" y2="601.5" class="net_33,34,35,36"/>
  <circle cx="346" cy="601.5" r="2" style="fill:#000" class="net_33,34,35,36"/>
  <line x1="346" x2="360.6666666666667" y1="601.5" y2="601.5" class="net_33,34,35,36"/>
  <line x1="133" x2="346" y1="1108" y2="1108" class="net_33,34,35,36"/>
  <line x1="346" x2="346" y1="1108" y2="371.5" class="net_33,34,35,36"/>
  <line x1="346" x2="360.6666666666667" y1="371.5" y2="371.5" class="net_33,34,35,36"/>
  <line x1="133" x2="346" y1="1108" y2="1108" class="net_33,34,35,36"/>
  <line x1="346" x2="346" y1="1108" y2="1265.5" class="net_33,34,35,36"/>
  <circle cx="346" cy="1265.5" r="2" style="fill:#000" class="net_33,34,35,36"/>
  <line x1="346" x2="360.6666666666667" y1="1265.5" y2="1265.5" class="net_33,34,35,36"/>
  <line x1="133" x2="346" y1="1108" y2="1108" class="net_33,34,35,36"/>
  <line x1="346" x2="346" y1="1108" y2="1330.5" class="net_33,34,35,36"/>
  <line x1="346" x2="360.6666666666667" y1="1330.5" y2="1330.5" class="net_33,34,35,36"/>
  <line x1="133" x2="346" y1="1108" y2="1108" class="net_33,34,35,36"/>
  <line x1="346" x2="346" y1="1108" y2="1200.5" class="net_33,34,35,36"/>
  <circle cx="346" cy="1200.5" r="2" style="fill:#000" class="net_33,34,35,36"/>
  <line x1="346" x2="360.6666666666667" y1="1200.5" y2="1200.5" class="net_33,34,35,36"/>
  <line x1="133" x2="346" y1="1108" y2="1108" class="net_33,34,35,36"/>
  <line x1="346" x2="346" y1="1108" y2="821.5" class="net_33,34,35,36"/>
  <circle cx="346" cy="821.5" r="2" style="fill:#000" class="net_33,34,35,36"/>
  <line x1="346" x2="360.6666666666667" y1="821.5" y2="821.5" class="net_33,34,35,36"/>
  <line x1="133" x2="346" y1="1108" y2="1108" class="net_33,34,35,36"/>
  <line x1="346" x2="346" y1="1108" y2="1024.5" class="net_33,34,35,36"/>
  <circle cx="346" cy="1024.5" r="2" style="fill:#000" class="net_33,34,35,36"/>
  <line x1="346" x2="360.6666666666667" y1="1024.5" y2="1024.5" class="net_33,34,35,36"/>
  <line x1="133" x2="356" y1="1108" y2="1108" class="net_33,34,35,36"/>
  <line x1="132" x2="360.6666666666667" y1="1280.5" y2="1280.5" class="net_129,130,131,132"/>
  <line x1="132" x2="360.6666666666667" y1="1345.5" y2="1345.5" class="net_133,134,135,136"/>
  <line x1="381" x2="436" y1="1108" y2="1108" class="net_20"/>
  <line x1="436" x2="436" y1="1108" y2="1097" class="net_20"/>
  <circle cx="436" cy="1108" r="2" style="fill:#000" class="net_20"/>
  <line x1="436" x2="501" y1="1097" y2="1097" class="net_20"/>
  <line x1="381" x2="448.5" y1="1108" y2="1108" class="net_20"/>
  <line x1="448.5" x2="448.5" y1="1108" y2="1013" class="net_20"/>
  <line x1="382.6666666666667" x2="501" y1="1032" y2="1032" class="net_21"/>
  <line x1="382.6666666666667" x2="436" y1="1032" y2="1032" class="net_21"/>
  <line x1="436" x2="436" y1="1032" y2="992.5" class="net_21"/>
  <circle cx="436" cy="1032" r="2" style="fill:#000" class="net_21"/>
  <line x1="436" x2="448" y1="992.5" y2="992.5" class="net_21"/>
  <line x1="382.6666666666667" x2="501" y1="829" y2="829" class="net_22"/>
  <line x1="382.6666666666667" x2="396" y1="829" y2="829" class="net_22"/>
  <line x1="396" x2="396" y1="829" y2="972.5" class="net_22"/>
  <circle cx="396" cy="829" r="2" style="fill:#000" class="net_22"/>
  <line x1="396" x2="448" y1="972.5" y2="972.5" class="net_22"/>
  <line x1="382.6666666666667" x2="501" y1="1208" y2="1208" class="net_23"/>
  <line x1="382.6666666666667" x2="426" y1="1208" y2="1208" class="net_23"/>
  <line x1="426" x2="426" y1="1208" y2="952.5" class="net_23"/>
  <circle cx="426" cy="1208" r="2" style="fill:#000" class="net_23"/>
  <line x1="426" x2="448" y1="952.5" y2="952.5" class="net_23"/>
  <line x1="382.6666666666667" x2="501" y1="1338" y2="1338" class="net_24"/>
  <line x1="382.6666666666667" x2="416" y1="1338" y2="1338" class="net_24"/>
  <line x1="416" x2="416" y1="1338" y2="932.5" class="net_24"/>
  <circle cx="416" cy="1338" r="2" style="fill:#000" class="net_24"/>
  <line x1="416" x2="448" y1="932.5" y2="932.5" class="net_24"/>
  <line x1="382.6666666666667" x2="501" y1="1273" y2="1273" class="net_25"/>
  <line x1="382.6666666666667" x2="406" y1="1273" y2="1273" class="net_25"/>
  <line x1="406" x2="406" y1="1273" y2="912.5" class="net_25"/>
  <circle cx="406" cy="1273" r="2" style="fill:#000" class="net_25"/>
  <line x1="406" x2="448" y1="912.5" y2="912.5" class="net_25"/>
  <line x1="382.6666666666667" x2="501" y1="379" y2="379" class="net_26"/>
  <line x1="382.6666666666667" x2="426" y1="379" y2="379" class="net_26"/>
  <line x1="426" x2="426" y1="379" y2="892.5" class="net_26"/>
  <circle cx="426" cy="379" r="2" style="fill:#000" class="net_26"/>
  <line x1="426" x2="448" y1="892.5" y2="892.5" class="net_26"/>
  <line x1="382.6666666666667" x2="501" y1="609" y2="609" class="net_27"/>
  <line x1="382.6666666666667" x2="436" y1="609" y2="609" class="net_27"/>
  <line x1="436" x2="436" y1="609" y2="872.5" class="net_27"/>
  <circle cx="436" cy="609" r="2" style="fill:#000" class="net_27"/>
  <line x1="436" x2="448" y1="872.5" y2="872.5" class="net_27"/>
  <line x1="382.6666666666667" x2="501" y1="504" y2="504" class="net_28"/>
  <line x1="382.6666666666667" x2="436" y1="504" y2="504" class="net_28"/>
  <line x1="436" x2="436" y1="504" y2="494" class="net_28"/>
  <line x1="436" x2="448.5" y1="494" y2="494" class="net_28"/>
  <circle cx="436" cy="504" r="2" style="fill:#000" class="net_28"/>
  <line x1="448.5" x2="448.5" y1="494" y2="852" class="net_28"/>
  <line x1="379.3333333333333" x2="446.5" y1="96" y2="96" class="net_37,38,39,40"/>
  <line x1="446.5" x2="446.5" y1="96" y2="166.5" class="net_37,38,39,40"/>
  <line x1="379.3333333333333" x2="406" y1="156" y2="156" class="net_41,42,43,44"/>
  <line x1="406" x2="406" y1="156" y2="207" class="net_41,42,43,44"/>
  <line x1="406" x2="446" y1="207" y2="207" class="net_41,42,43,44"/>
  <line x1="379.3333333333333" x2="446" y1="227" y2="227" class="net_45,46,47,48"/>
  <line x1="386" x2="396" y1="446.5" y2="446.5" class="net_105,106,107,108,109,110,111,112"/>
  <line x1="396" x2="396" y1="446.5" y2="247" class="net_105,106,107,108,109,110,111,112"/>
  <line x1="396" x2="446" y1="247" y2="247" class="net_105,106,107,108,109,110,111,112"/>
  <line x1="379.3333333333333" x2="406" y1="676.5" y2="676.5" class="net_49,50,51,52"/>
  <line x1="406" x2="406" y1="676.5" y2="267" class="net_49,50,51,52"/>
  <line x1="406" x2="446" y1="267" y2="267" class="net_49,50,51,52"/>
  <line x1="379.3333333333333" x2="446.5" y1="326.5" y2="326.5" class="net_53,54,55,56"/>
  <line x1="446.5" x2="446.5" y1="326.5" y2="307.5" class="net_53,54,55,56"/>
</svg>
