<svg xmlns="http://www.w3.org/2000/svg" xmlns:xlink="http://www.w3.org/1999/xlink" xmlns:s="https://github.com/nturley/netlistsvg" width="464" height="434">
  <style>svg {
    stroke:#000;
    fill:none;
  }
  text {
    fill:#000;
    stroke:none;
    font-size:10px;
    font-weight: bold;
    font-family: "Courier New", monospace;
  }
  .nodelabel {
    text-anchor: middle;
  }
  .inputPortLabel {
    text-anchor: end;
  }
  .splitjoinBody {
    fill:#000;
  }</style>
  <g s:type="not" transform="translate(77,402)" s:width="30" s:height="20" id="cell_$not$/Users/dididi/workspaces/ann-rtl-lean-poc/rtl-formalize-synthesis/results/canonical/sv/mlp_core.sv:66$1">
    <s:alias val="$_NOT_"/>
    <s:alias val="$not"/>
    <s:alias val="$logic_not"/>
    <path d="M0,0 L0,20 L20,10 Z" class="cell_$not$/Users/dididi/workspaces/ann-rtl-lean-poc/rtl-formalize-synthesis/results/canonical/sv/mlp_core.sv:66$1"/>
    <circle cx="23" cy="10" r="3" class="cell_$not$/Users/dididi/workspaces/ann-rtl-lean-poc/rtl-formalize-synthesis/results/canonical/sv/mlp_core.sv:66$1"/>
    <g s:x="0" s:y="10" s:pid="A"/>
    <g s:x="25" s:y="10" s:pid="Y"/>
  </g>
  <g s:type="generic" transform="translate(208,156.5)" s:width="30" s:height="40" id="cell_u_sparkle_mlp_core">
    <text x="15" y="-4" class="nodelabel cell_u_sparkle_mlp_core" s:attribute="ref">MlpCore_sparkleMlpCorePacked</text>
    <rect width="30" height="140" s:generic="body" class="cell_u_sparkle_mlp_core"/>
    <g transform="translate(0,10)" s:x="0" s:y="10" s:pid="in0" id="port_u_sparkle_mlp_core~_gen_in0">
      <text x="-3" y="-4" class="inputPortLabel cell_u_sparkle_mlp_core">_gen_in0</text>
    </g>
    <g transform="translate(0,30)" s:x="0" s:y="10" s:pid="in0" id="port_u_sparkle_mlp_core~_gen_in1">
      <text x="-3" y="-4" class="inputPortLabel cell_u_sparkle_mlp_core">_gen_in1</text>
    </g>
    <g transform="translate(0,50)" s:x="0" s:y="10" s:pid="in0" id="port_u_sparkle_mlp_core~_gen_in2">
      <text x="-3" y="-4" class="inputPortLabel cell_u_sparkle_mlp_core">_gen_in2</text>
    </g>
    <g transform="translate(0,70)" s:x="0" s:y="10" s:pid="in0" id="port_u_sparkle_mlp_core~_gen_in3">
      <text x="-3" y="-4" class="inputPortLabel cell_u_sparkle_mlp_core">_gen_in3</text>
    </g>
    <g transform="translate(0,90)" s:x="0" s:y="10" s:pid="in0" id="port_u_sparkle_mlp_core~_gen_start">
      <text x="-3" y="-4" class="inputPortLabel cell_u_sparkle_mlp_core">_gen_start</text>
    </g>
    <g transform="translate(0,110)" s:x="0" s:y="10" s:pid="in0" id="port_u_sparkle_mlp_core~clk">
      <text x="-3" y="-4" class="inputPortLabel cell_u_sparkle_mlp_core">clk</text>
    </g>
    <g transform="translate(0,130)" s:x="0" s:y="10" s:pid="in0" id="port_u_sparkle_mlp_core~rst">
      <text x="-3" y="-4" class="inputPortLabel cell_u_sparkle_mlp_core">rst</text>
    </g>
    <g transform="translate(30,10)" s:x="30" s:y="10" s:pid="out0" id="port_u_sparkle_mlp_core~out">
      <text x="5" y="-4" style="fill:#000; stroke:none" class="cell_u_sparkle_mlp_core">out</text>
    </g>
  </g>
  <g s:type="inputExt" transform="translate(77,347)" s:width="30" s:height="20" id="cell_clk">
    <text x="15" y="-4" class="nodelabel cell_clk" s:attribute="ref">clk</text>
    <s:alias val="$_inputExt_"/>
    <path d="M0,0 L0,20 L15,20 L30,10 L15,0 Z" class="cell_clk"/>
    <g s:x="28" s:y="10" s:pid="Y"/>
  </g>
  <g s:type="inputExt" transform="translate(12,402)" s:width="30" s:height="20" id="cell_rst_n">
    <text x="15" y="-4" class="nodelabel cell_rst_n" s:attribute="ref">rst_n</text>
    <s:alias val="$_inputExt_"/>
    <path d="M0,0 L0,20 L15,20 L30,10 L15,0 Z" class="cell_rst_n"/>
    <g s:x="28" s:y="10" s:pid="Y"/>
  </g>
  <g s:type="inputExt" transform="translate(77,282)" s:width="30" s:height="20" id="cell_start">
    <text x="15" y="-4" class="nodelabel cell_start" s:attribute="ref">start</text>
    <s:alias val="$_inputExt_"/>
    <path d="M0,0 L0,20 L15,20 L30,10 L15,0 Z" class="cell_start"/>
    <g s:x="28" s:y="10" s:pid="Y"/>
  </g>
  <g s:type="inputExt" transform="translate(77,22)" s:width="30" s:height="20" id="cell_in0">
    <text x="15" y="-4" class="nodelabel cell_in0" s:attribute="ref">in0</text>
    <s:alias val="$_inputExt_"/>
    <path d="M0,0 L0,20 L15,20 L30,10 L15,0 Z" class="cell_in0"/>
    <g s:x="28" s:y="10" s:pid="Y"/>
  </g>
  <g s:type="inputExt" transform="translate(77,87)" s:width="30" s:height="20" id="cell_in1">
    <text x="15" y="-4" class="nodelabel cell_in1" s:attribute="ref">in1</text>
    <s:alias val="$_inputExt_"/>
    <path d="M0,0 L0,20 L15,20 L30,10 L15,0 Z" class="cell_in1"/>
    <g s:x="28" s:y="10" s:pid="Y"/>
  </g>
  <g s:type="inputExt" transform="translate(77,152)" s:width="30" s:height="20" id="cell_in2">
    <text x="15" y="-4" class="nodelabel cell_in2" s:attribute="ref">in2</text>
    <s:alias val="$_inputExt_"/>
    <path d="M0,0 L0,20 L15,20 L30,10 L15,0 Z" class="cell_in2"/>
    <g s:x="28" s:y="10" s:pid="Y"/>
  </g>
  <g s:type="inputExt" transform="translate(77,217)" s:width="30" s:height="20" id="cell_in3">
    <text x="15" y="-4" class="nodelabel cell_in3" s:attribute="ref">in3</text>
    <s:alias val="$_inputExt_"/>
    <path d="M0,0 L0,20 L15,20 L30,10 L15,0 Z" class="cell_in3"/>
    <g s:x="28" s:y="10" s:pid="Y"/>
  </g>
  <g s:type="outputExt" transform="translate(410,147)" s:width="30" s:height="20" id="cell_done">
    <text x="15" y="-4" class="nodelabel cell_done" s:attribute="ref">done</text>
    <s:alias val="$_outputExt_"/>
    <path d="M30,0 L30,20 L15,20 L0,10 L15,0 Z" class="cell_done"/>
    <g s:x="0" s:y="10" s:pid="A"/>
  </g>
  <g s:type="outputExt" transform="translate(410,212)" s:width="30" s:height="20" id="cell_busy">
    <text x="15" y="-4" class="nodelabel cell_busy" s:attribute="ref">busy</text>
    <s:alias val="$_outputExt_"/>
    <path d="M30,0 L30,20 L15,20 L0,10 L15,0 Z" class="cell_busy"/>
    <g s:x="0" s:y="10" s:pid="A"/>
  </g>
  <g s:type="outputExt" transform="translate(410,277)" s:width="30" s:height="20" id="cell_out_bit">
    <text x="15" y="-4" class="nodelabel cell_out_bit" s:attribute="ref">out_bit</text>
    <s:alias val="$_outputExt_"/>
    <path d="M30,0 L30,20 L15,20 L0,10 L15,0 Z" class="cell_out_bit"/>
    <g s:x="0" s:y="10" s:pid="A"/>
  </g>
  <g s:type="split" transform="translate(351,146.5)" s:width="5" s:height="40" id="cell_$split$,41,42,43,44,45,46,47,48,49,50,51,52,53,54,55,56,57,58,59,60,61,62,63,64,65,66,67,68,69,70,71,72,73,74,75,76,77,78,79,80,81,82,83,84,85,86,87,88,89,90,91,92,93,94,95,96,97,98,99,100,101,102,103,104,105,106,107,108,109,110,111,112,113,114,115,116,117,118,119,120,121,122,123,124,125,126,127,128,129,130,131,132,133,134,135,136,137,138,139,140,141,142,143,144,145,146,147,148,149,150,151,152,153,154,155,156,157,158,159,160,161,162,163,164,165,166,167,168,169,170,171,172,173,174,175,176,177,178,179,180,181,182,183,184,185,186,187,188,189,190,191,192,193,194,195,196,197,198,199,200,201,202,203,204,205,206,207,208,209,210,211,212,213,214,215,216,217,218,219,220,221,222,223,224,225,226,227,228,229,230,231,232,233,234,235,236,237,238,239,240,241,242,243,244,245,246,247,248,249,250,251,252,253,254,255,256,257,258,259,260,261,262,263,264,265,266,267,268,269,270,271,272,273,274,275,276,277,278,279,280,281,282,283,284,285,286,287,288,289,290,291,292,293,294,295,296,297,298,299,300,301,302,303,304,305,306,307,308,309,310,311,312,313,314,315,316,317,318,319,320,321,322,323,324,39,38,37,325,326,327,328,329,330,331,332,333,334,335,336,">
    <rect width="5" height="60" class="splitjoinBody" s:generic="body"/>
    <s:alias val="$_split_"/>
    <g s:x="0" s:y="20" s:pid="in"/>
    <g transform="translate(4,10)" s:x="4" s:y="10" s:pid="out0">
      <text x="5" y="-4">286</text>
    </g>
    <g transform="translate(4,30)" s:x="4" s:y="10" s:pid="out0">
      <text x="5" y="-4">285</text>
    </g>
    <g transform="translate(4,50)" s:x="4" s:y="10" s:pid="out0">
      <text x="5" y="-4">284</text>
    </g>
  </g>
  <line x1="40" x2="77" y1="412" y2="412" class="net_3"/>
  <line x1="105" x2="137" y1="32" y2="32" class="net_5,6,7,8,9,10,11,12"/>
  <line x1="137" x2="137" y1="32" y2="167" class="net_5,6,7,8,9,10,11,12"/>
  <line x1="137" x2="208" y1="167" y2="167" class="net_5,6,7,8,9,10,11,12"/>
  <line x1="105" x2="127" y1="97" y2="97" class="net_13,14,15,16,17,18,19,20"/>
  <line x1="127" x2="127" y1="97" y2="187" class="net_13,14,15,16,17,18,19,20"/>
  <line x1="127" x2="208" y1="187" y2="187" class="net_13,14,15,16,17,18,19,20"/>
  <line x1="105" x2="117" y1="162" y2="162" class="net_21,22,23,24,25,26,27,28"/>
  <line x1="117" x2="117" y1="162" y2="207" class="net_21,22,23,24,25,26,27,28"/>
  <line x1="117" x2="208" y1="207" y2="207" class="net_21,22,23,24,25,26,27,28"/>
  <line x1="105" x2="208" y1="227" y2="227" class="net_29,30,31,32,33,34,35,36"/>
  <line x1="105" x2="117" y1="292" y2="292" class="net_4"/>
  <line x1="117" x2="117" y1="292" y2="247" class="net_4"/>
  <line x1="117" x2="208" y1="247" y2="247" class="net_4"/>
  <line x1="105" x2="127" y1="357" y2="357" class="net_2"/>
  <line x1="127" x2="127" y1="357" y2="267" class="net_2"/>
  <line x1="127" x2="208" y1="267" y2="267" class="net_2"/>
  <line x1="102" x2="137" y1="412" y2="412" class="net_40"/>
  <line x1="137" x2="137" y1="412" y2="287" class="net_40"/>
  <line x1="137" x2="208" y1="287" y2="287" class="net_40"/>
  <line x1="356" x2="410" y1="157" y2="157" class="net_37"/>
  <line x1="356" x2="395" y1="177" y2="177" class="net_38"/>
  <line x1="395" x2="395" y1="177" y2="222" class="net_38"/>
  <line x1="395" x2="410" y1="222" y2="222" class="net_38"/>
  <line x1="356" x2="385" y1="197" y2="197" class="net_39"/>
  <line x1="385" x2="385" y1="197" y2="287" class="net_39"/>
  <line x1="385" x2="410" y1="287" y2="287" class="net_39"/>
  <line x1="239" x2="351" y1="167" y2="167" class="net_41,42,43,44,45,46,47,48,49,50,51,52,53,54,55,56,57,58,59,60,61,62,63,64,65,66,67,68,69,70,71,72,73,74,75,76,77,78,79,80,81,82,83,84,85,86,87,88,89,90,91,92,93,94,95,96,97,98,99,100,101,102,103,104,105,106,107,108,109,110,111,112,113,114,115,116,117,118,119,120,121,122,123,124,125,126,127,128,129,130,131,132,133,134,135,136,137,138,139,140,141,142,143,144,145,146,147,148,149,150,151,152,153,154,155,156,157,158,159,160,161,162,163,164,165,166,167,168,169,170,171,172,173,174,175,176,177,178,179,180,181,182,183,184,185,186,187,188,189,190,191,192,193,194,195,196,197,198,199,200,201,202,203,204,205,206,207,208,209,210,211,212,213,214,215,216,217,218,219,220,221,222,223,224,225,226,227,228,229,230,231,232,233,234,235,236,237,238,239,240,241,242,243,244,245,246,247,248,249,250,251,252,253,254,255,256,257,258,259,260,261,262,263,264,265,266,267,268,269,270,271,272,273,274,275,276,277,278,279,280,281,282,283,284,285,286,287,288,289,290,291,292,293,294,295,296,297,298,299,300,301,302,303,304,305,306,307,308,309,310,311,312,313,314,315,316,317,318,319,320,321,322,323,324,39,38,37,325,326,327,328,329,330,331,332,333,334,335,336"/>
</svg>
