<svg xmlns="http://www.w3.org/2000/svg" xmlns:xlink="http://www.w3.org/1999/xlink" xmlns:s="https://github.com/nturley/netlistsvg" width="872" height="1479.5">
  <style>svg {
    stroke:#000;
    fill:none;
  }
  text {
    fill:#000;
    stroke:none;
    font-size:10px;
    font-weight: bold;
    font-family: "Courier New", monospace;
  }
  .nodelabel {
    text-anchor: middle;
  }
  .inputPortLabel {
    text-anchor: end;
  }
  .splitjoinBody {
    fill:#000;
  }</style>
  <g s:type="eq" transform="translate(162.33333333333334,658)" s:width="25" s:height="25" id="cell_$eq$rtl/src/controller.sv:38$7">
    <s:alias val="$eq"/>
    <circle r="12.5" cx="12.5" cy="12.5" class="cell_$eq$rtl/src/controller.sv:38$7"/>
    <line x1="7.5" x2="17.5" y1="10" y2="10" class="cell_$eq$rtl/src/controller.sv:38$7"/>
    <line x1="7.5" x2="17.5" y1="15" y2="15" class="cell_$eq$rtl/src/controller.sv:38$7"/>
    <g s:x="3" s:y="5" s:pid="A"/>
    <g s:x="3" s:y="20" s:pid="B"/>
    <g s:x="25" s:y="12.5" s:pid="Y"/>
  </g>
  <g s:type="eq" transform="translate(162.33333333333334,173)" s:width="25" s:height="25" id="cell_$eq$rtl/src/controller.sv:41$9">
    <s:alias val="$eq"/>
    <circle r="12.5" cx="12.5" cy="12.5" class="cell_$eq$rtl/src/controller.sv:41$9"/>
    <line x1="7.5" x2="17.5" y1="10" y2="10" class="cell_$eq$rtl/src/controller.sv:41$9"/>
    <line x1="7.5" x2="17.5" y1="15" y2="15" class="cell_$eq$rtl/src/controller.sv:41$9"/>
    <g s:x="3" s:y="5" s:pid="A"/>
    <g s:x="3" s:y="20" s:pid="B"/>
    <g s:x="25" s:y="12.5" s:pid="Y"/>
  </g>
  <g s:type="eq" transform="translate(162.33333333333334,459)" s:width="25" s:height="25" id="cell_$eq$rtl/src/controller.sv:42$11">
    <s:alias val="$eq"/>
    <circle r="12.5" cx="12.5" cy="12.5" class="cell_$eq$rtl/src/controller.sv:42$11"/>
    <line x1="7.5" x2="17.5" y1="10" y2="10" class="cell_$eq$rtl/src/controller.sv:42$11"/>
    <line x1="7.5" x2="17.5" y1="15" y2="15" class="cell_$eq$rtl/src/controller.sv:42$11"/>
    <g s:x="3" s:y="5" s:pid="A"/>
    <g s:x="3" s:y="20" s:pid="B"/>
    <g s:x="25" s:y="12.5" s:pid="Y"/>
  </g>
  <g s:type="and" transform="translate(686,1208)" s:width="30" s:height="25" id="cell_$logic_and$rtl/src/controller.sv:60$21">
    <s:alias val="$and"/>
    <s:alias val="$logic_and"/>
    <s:alias val="$_AND_"/>
    <path d="M0,0 L0,25 L15,25 A15 12.5 0 0 0 15,0 Z" class="cell_$logic_and$rtl/src/controller.sv:60$21"/>
    <g s:x="0" s:y="5" s:pid="A"/>
    <g s:x="0" s:y="20" s:pid="B"/>
    <g s:x="30" s:y="12.5" s:pid="Y"/>
  </g>
  <g s:type="and" transform="translate(686,1273)" s:width="30" s:height="25" id="cell_$logic_and$rtl/src/controller.sv:64$27">
    <s:alias val="$and"/>
    <s:alias val="$logic_and"/>
    <s:alias val="$_AND_"/>
    <path d="M0,0 L0,25 L15,25 A15 12.5 0 0 0 15,0 Z" class="cell_$logic_and$rtl/src/controller.sv:64$27"/>
    <g s:x="0" s:y="5" s:pid="A"/>
    <g s:x="0" s:y="20" s:pid="B"/>
    <g s:x="30" s:y="12.5" s:pid="Y"/>
  </g>
  <g s:type="and" transform="translate(686,576.5)" s:width="30" s:height="25" id="cell_$logic_and$rtl/src/controller.sv:67$32">
    <s:alias val="$and"/>
    <s:alias val="$logic_and"/>
    <s:alias val="$_AND_"/>
    <path d="M0,0 L0,25 L15,25 A15 12.5 0 0 0 15,0 Z" class="cell_$logic_and$rtl/src/controller.sv:67$32"/>
    <g s:x="0" s:y="5" s:pid="A"/>
    <g s:x="0" s:y="20" s:pid="B"/>
    <g s:x="30" s:y="12.5" s:pid="Y"/>
  </g>
  <g s:type="lt" transform="translate(421.3333333333333,1421.5)" s:width="25" s:height="25" id="cell_$lt$rtl/src/controller.sv:60$20">
    <s:alias val="$lt"/>
    <circle r="12.5" cx="12.5" cy="12.5" class="cell_$lt$rtl/src/controller.sv:60$20"/>
    <line x1="7.5" x2="17.5" y1="12.5" y2="7.5" class="cell_$lt$rtl/src/controller.sv:60$20"/>
    <line x1="7.5" x2="17.5" y1="12.5" y2="17.5" class="cell_$lt$rtl/src/controller.sv:60$20"/>
    <g s:x="3" s:y="5" s:pid="A"/>
    <g s:x="3" s:y="20" s:pid="B"/>
    <g s:x="25" s:y="12.5" s:pid="Y"/>
  </g>
  <g s:type="lt" transform="translate(421.3333333333333,1361.5)" s:width="25" s:height="25" id="cell_$lt$rtl/src/controller.sv:64$26">
    <s:alias val="$lt"/>
    <circle r="12.5" cx="12.5" cy="12.5" class="cell_$lt$rtl/src/controller.sv:64$26"/>
    <line x1="7.5" x2="17.5" y1="12.5" y2="7.5" class="cell_$lt$rtl/src/controller.sv:64$26"/>
    <line x1="7.5" x2="17.5" y1="12.5" y2="17.5" class="cell_$lt$rtl/src/controller.sv:64$26"/>
    <g s:x="3" s:y="5" s:pid="A"/>
    <g s:x="3" s:y="20" s:pid="B"/>
    <g s:x="25" s:y="12.5" s:pid="Y"/>
  </g>
  <g s:type="generic" transform="translate(370,1253)" s:width="30" s:height="40" id="cell_$ne$rtl/src/controller.sv:67$30">
    <text x="15" y="-4" class="nodelabel cell_$ne$rtl/src/controller.sv:67$30" s:attribute="ref">$reduce_bool</text>
    <rect width="30" height="20" s:generic="body" class="cell_$ne$rtl/src/controller.sv:67$30"/>
    <g transform="translate(0,10)" s:x="0" s:y="10" s:pid="in0" id="port_$ne$rtl/src/controller.sv:67$30~A">
      <text x="-3" y="-4" class="inputPortLabel cell_$ne$rtl/src/controller.sv:67$30">A</text>
    </g>
    <g transform="translate(30,10)" s:x="30" s:y="10" s:pid="out0" id="port_$ne$rtl/src/controller.sv:67$30~Y">
      <text x="5" y="-4" style="fill:#000; stroke:none" class="cell_$ne$rtl/src/controller.sv:67$30">Y</text>
    </g>
  </g>
  <g s:type="generic" transform="translate(370,474)" s:width="30" s:height="40" id="cell_$ne$rtl/src/controller.sv:67$31">
    <text x="15" y="-4" class="nodelabel cell_$ne$rtl/src/controller.sv:67$31" s:attribute="ref">$ne</text>
    <rect width="30" height="40" s:generic="body" class="cell_$ne$rtl/src/controller.sv:67$31"/>
    <g transform="translate(0,10)" s:x="0" s:y="10" s:pid="in0" id="port_$ne$rtl/src/controller.sv:67$31~A">
      <text x="-3" y="-4" class="inputPortLabel cell_$ne$rtl/src/controller.sv:67$31">A</text>
    </g>
    <g transform="translate(0,30)" s:x="0" s:y="10" s:pid="in0" id="port_$ne$rtl/src/controller.sv:67$31~B">
      <text x="-3" y="-4" class="inputPortLabel cell_$ne$rtl/src/controller.sv:67$31">B</text>
    </g>
    <g transform="translate(30,10)" s:x="30" s:y="10" s:pid="out0" id="port_$ne$rtl/src/controller.sv:67$31~Y">
      <text x="5" y="-4" style="fill:#000; stroke:none" class="cell_$ne$rtl/src/controller.sv:67$31">Y</text>
    </g>
  </g>
  <g s:type="generic" transform="translate(157,1187.5)" s:width="30" s:height="40" id="cell_$procdff$78">
    <text x="15" y="-4" class="nodelabel cell_$procdff$78" s:attribute="ref">$adff</text>
    <rect width="30" height="60" s:generic="body" class="cell_$procdff$78"/>
    <g transform="translate(0,10)" s:x="0" s:y="10" s:pid="in0" id="port_$procdff$78~ARST">
      <text x="-3" y="-4" class="inputPortLabel cell_$procdff$78">ARST</text>
    </g>
    <g transform="translate(0,30)" s:x="0" s:y="10" s:pid="in0" id="port_$procdff$78~CLK">
      <text x="-3" y="-4" class="inputPortLabel cell_$procdff$78">CLK</text>
    </g>
    <g transform="translate(0,50)" s:x="0" s:y="10" s:pid="in0" id="port_$procdff$78~D">
      <text x="-3" y="-4" class="inputPortLabel cell_$procdff$78">D</text>
    </g>
    <g transform="translate(30,10)" s:x="30" s:y="10" s:pid="out0" id="port_$procdff$78~Q">
      <text x="5" y="-4" style="fill:#000; stroke:none" class="cell_$procdff$78">Q</text>
    </g>
  </g>
  <g s:type="mux" transform="translate(766,785.5)" s:width="20" s:height="40" id="cell_$procmux$64">
    <s:alias val="$pmux"/>
    <s:alias val="$mux"/>
    <s:alias val="$_MUX_"/>
    <path d="M0,0 L20,10 L20,30 L0,40 Z" class="cell_$procmux$64"/>
    <g s:x="0" s:y="10" s:pid="A"/>
    <g s:x="0" s:y="30" s:pid="B"/>
    <g s:x="10" s:y="35" s:pid="S"/>
    <g s:x="20" s:y="20" s:pid="Y"/>
  </g>
  <g s:type="eq" transform="translate(421.3333333333333,344)" s:width="25" s:height="25" id="cell_$procmux$65_CMP0">
    <s:alias val="$eq"/>
    <circle r="12.5" cx="12.5" cy="12.5" class="cell_$procmux$65_CMP0"/>
    <line x1="7.5" x2="17.5" y1="10" y2="10" class="cell_$procmux$65_CMP0"/>
    <line x1="7.5" x2="17.5" y1="15" y2="15" class="cell_$procmux$65_CMP0"/>
    <g s:x="3" s:y="5" s:pid="A"/>
    <g s:x="3" s:y="20" s:pid="B"/>
    <g s:x="25" s:y="12.5" s:pid="Y"/>
  </g>
  <g s:type="eq" transform="translate(421.3333333333333,723)" s:width="25" s:height="25" id="cell_$procmux$66_CMP0">
    <s:alias val="$eq"/>
    <circle r="12.5" cx="12.5" cy="12.5" class="cell_$procmux$66_CMP0"/>
    <line x1="7.5" x2="17.5" y1="10" y2="10" class="cell_$procmux$66_CMP0"/>
    <line x1="7.5" x2="17.5" y1="15" y2="15" class="cell_$procmux$66_CMP0"/>
    <g s:x="3" s:y="5" s:pid="A"/>
    <g s:x="3" s:y="20" s:pid="B"/>
    <g s:x="25" s:y="12.5" s:pid="Y"/>
  </g>
  <g s:type="eq" transform="translate(421.3333333333333,963)" s:width="25" s:height="25" id="cell_$procmux$67_CMP0">
    <s:alias val="$eq"/>
    <circle r="12.5" cx="12.5" cy="12.5" class="cell_$procmux$67_CMP0"/>
    <line x1="7.5" x2="17.5" y1="10" y2="10" class="cell_$procmux$67_CMP0"/>
    <line x1="7.5" x2="17.5" y1="15" y2="15" class="cell_$procmux$67_CMP0"/>
    <g s:x="3" s:y="5" s:pid="A"/>
    <g s:x="3" s:y="20" s:pid="B"/>
    <g s:x="25" s:y="12.5" s:pid="Y"/>
  </g>
  <g s:type="eq" transform="translate(421.3333333333333,1067.5)" s:width="25" s:height="25" id="cell_$procmux$68_CMP0">
    <s:alias val="$eq"/>
    <circle r="12.5" cx="12.5" cy="12.5" class="cell_$procmux$68_CMP0"/>
    <line x1="7.5" x2="17.5" y1="10" y2="10" class="cell_$procmux$68_CMP0"/>
    <line x1="7.5" x2="17.5" y1="15" y2="15" class="cell_$procmux$68_CMP0"/>
    <g s:x="3" s:y="5" s:pid="A"/>
    <g s:x="3" s:y="20" s:pid="B"/>
    <g s:x="25" s:y="12.5" s:pid="Y"/>
  </g>
  <g s:type="eq" transform="translate(421.3333333333333,903)" s:width="25" s:height="25" id="cell_$procmux$69_CMP0">
    <s:alias val="$eq"/>
    <circle r="12.5" cx="12.5" cy="12.5" class="cell_$procmux$69_CMP0"/>
    <line x1="7.5" x2="17.5" y1="10" y2="10" class="cell_$procmux$69_CMP0"/>
    <line x1="7.5" x2="17.5" y1="15" y2="15" class="cell_$procmux$69_CMP0"/>
    <g s:x="3" s:y="5" s:pid="A"/>
    <g s:x="3" s:y="20" s:pid="B"/>
    <g s:x="25" s:y="12.5" s:pid="Y"/>
  </g>
  <g s:type="eq" transform="translate(421.3333333333333,1132.5)" s:width="25" s:height="25" id="cell_$procmux$70_CMP0">
    <s:alias val="$eq"/>
    <circle r="12.5" cx="12.5" cy="12.5" class="cell_$procmux$70_CMP0"/>
    <line x1="7.5" x2="17.5" y1="10" y2="10" class="cell_$procmux$70_CMP0"/>
    <line x1="7.5" x2="17.5" y1="15" y2="15" class="cell_$procmux$70_CMP0"/>
    <g s:x="3" s:y="5" s:pid="A"/>
    <g s:x="3" s:y="20" s:pid="B"/>
    <g s:x="25" s:y="12.5" s:pid="Y"/>
  </g>
  <g s:type="eq" transform="translate(421.3333333333333,843)" s:width="25" s:height="25" id="cell_$procmux$71_CMP0">
    <s:alias val="$eq"/>
    <circle r="12.5" cx="12.5" cy="12.5" class="cell_$procmux$71_CMP0"/>
    <line x1="7.5" x2="17.5" y1="10" y2="10" class="cell_$procmux$71_CMP0"/>
    <line x1="7.5" x2="17.5" y1="15" y2="15" class="cell_$procmux$71_CMP0"/>
    <g s:x="3" s:y="5" s:pid="A"/>
    <g s:x="3" s:y="20" s:pid="B"/>
    <g s:x="25" s:y="12.5" s:pid="Y"/>
  </g>
  <g s:type="eq" transform="translate(421.3333333333333,663)" s:width="25" s:height="25" id="cell_$procmux$72_CMP0">
    <s:alias val="$eq"/>
    <circle r="12.5" cx="12.5" cy="12.5" class="cell_$procmux$72_CMP0"/>
    <line x1="7.5" x2="17.5" y1="10" y2="10" class="cell_$procmux$72_CMP0"/>
    <line x1="7.5" x2="17.5" y1="15" y2="15" class="cell_$procmux$72_CMP0"/>
    <g s:x="3" s:y="5" s:pid="A"/>
    <g s:x="3" s:y="20" s:pid="B"/>
    <g s:x="25" s:y="12.5" s:pid="Y"/>
  </g>
  <g s:type="not" transform="translate(444.5,1188)" s:width="30" s:height="20" id="cell_$procmux$73_CMP0">
    <s:alias val="$_NOT_"/>
    <s:alias val="$not"/>
    <s:alias val="$logic_not"/>
    <path d="M0,0 L0,20 L20,10 Z" class="cell_$procmux$73_CMP0"/>
    <circle cx="23" cy="10" r="3" class="cell_$procmux$73_CMP0"/>
    <g s:x="0" s:y="10" s:pid="A"/>
    <g s:x="25" s:y="10" s:pid="Y"/>
  </g>
  <g s:type="mux" transform="translate(423,284)" s:width="20" s:height="40" id="cell_$ternary$rtl/src/controller.sv:36$6">
    <s:alias val="$pmux"/>
    <s:alias val="$mux"/>
    <s:alias val="$_MUX_"/>
    <path d="M0,0 L20,10 L20,30 L0,40 Z" class="cell_$ternary$rtl/src/controller.sv:36$6"/>
    <g s:x="0" s:y="10" s:pid="A"/>
    <g s:x="0" s:y="30" s:pid="B"/>
    <g s:x="10" s:y="35" s:pid="S"/>
    <g s:x="20" s:y="20" s:pid="Y"/>
  </g>
  <g s:type="mux" transform="translate(423,783)" s:width="20" s:height="40" id="cell_$ternary$rtl/src/controller.sv:38$8">
    <s:alias val="$pmux"/>
    <s:alias val="$mux"/>
    <s:alias val="$_MUX_"/>
    <path d="M0,0 L20,10 L20,30 L0,40 Z" class="cell_$ternary$rtl/src/controller.sv:38$8"/>
    <g s:x="0" s:y="10" s:pid="A"/>
    <g s:x="0" s:y="30" s:pid="B"/>
    <g s:x="10" s:y="35" s:pid="S"/>
    <g s:x="20" s:y="20" s:pid="Y"/>
  </g>
  <g s:type="mux" transform="translate(423,404)" s:width="20" s:height="40" id="cell_$ternary$rtl/src/controller.sv:41$10">
    <s:alias val="$pmux"/>
    <s:alias val="$mux"/>
    <s:alias val="$_MUX_"/>
    <path d="M0,0 L20,10 L20,30 L0,40 Z" class="cell_$ternary$rtl/src/controller.sv:41$10"/>
    <g s:x="0" s:y="10" s:pid="A"/>
    <g s:x="0" s:y="30" s:pid="B"/>
    <g s:x="10" s:y="35" s:pid="S"/>
    <g s:x="20" s:y="20" s:pid="Y"/>
  </g>
  <g s:type="mux" transform="translate(423,538)" s:width="20" s:height="40" id="cell_$ternary$rtl/src/controller.sv:42$12">
    <s:alias val="$pmux"/>
    <s:alias val="$mux"/>
    <s:alias val="$_MUX_"/>
    <path d="M0,0 L20,10 L20,30 L0,40 Z" class="cell_$ternary$rtl/src/controller.sv:42$12"/>
    <g s:x="0" s:y="10" s:pid="A"/>
    <g s:x="0" s:y="30" s:pid="B"/>
    <g s:x="10" s:y="35" s:pid="S"/>
    <g s:x="20" s:y="20" s:pid="Y"/>
  </g>
  <g s:type="mux" transform="translate(423,74)" s:width="20" s:height="40" id="cell_$ternary$rtl/src/controller.sv:44$13">
    <s:alias val="$pmux"/>
    <s:alias val="$mux"/>
    <s:alias val="$_MUX_"/>
    <path d="M0,0 L20,10 L20,30 L0,40 Z" class="cell_$ternary$rtl/src/controller.sv:44$13"/>
    <g s:x="0" s:y="10" s:pid="A"/>
    <g s:x="0" s:y="30" s:pid="B"/>
    <g s:x="10" s:y="35" s:pid="S"/>
    <g s:x="20" s:y="20" s:pid="Y"/>
  </g>
  <g s:type="inputExt" transform="translate(12,1208)" s:width="30" s:height="20" id="cell_clk">
    <text x="15" y="-4" class="nodelabel cell_clk" s:attribute="ref">clk</text>
    <s:alias val="$_inputExt_"/>
    <path d="M0,0 L0,20 L15,20 L30,10 L15,0 Z" class="cell_clk"/>
    <g s:x="28" s:y="10" s:pid="Y"/>
  </g>
  <g s:type="inputExt" transform="translate(12,389)" s:width="30" s:height="20" id="cell_rst_n">
    <text x="15" y="-4" class="nodelabel cell_rst_n" s:attribute="ref">rst_n</text>
    <s:alias val="$_inputExt_"/>
    <path d="M0,0 L0,20 L15,20 L30,10 L15,0 Z" class="cell_rst_n"/>
    <g s:x="28" s:y="10" s:pid="Y"/>
  </g>
  <g s:type="inputExt" transform="translate(157,264)" s:width="30" s:height="20" id="cell_start">
    <text x="15" y="-4" class="nodelabel cell_start" s:attribute="ref">start</text>
    <s:alias val="$_inputExt_"/>
    <path d="M0,0 L0,20 L15,20 L30,10 L15,0 Z" class="cell_start"/>
    <g s:x="28" s:y="10" s:pid="Y"/>
  </g>
  <g s:type="inputExt" transform="translate(12,168)" s:width="30" s:height="20" id="cell_hidden_idx">
    <text x="15" y="-4" class="nodelabel cell_hidden_idx" s:attribute="ref">hidden_idx</text>
    <s:alias val="$_inputExt_"/>
    <path d="M0,0 L0,20 L15,20 L30,10 L15,0 Z" class="cell_hidden_idx"/>
    <g s:x="28" s:y="10" s:pid="Y"/>
  </g>
  <g s:type="inputExt" transform="translate(12,454)" s:width="30" s:height="20" id="cell_input_idx">
    <text x="15" y="-4" class="nodelabel cell_input_idx" s:attribute="ref">input_idx</text>
    <s:alias val="$_inputExt_"/>
    <path d="M0,0 L0,20 L15,20 L30,10 L15,0 Z" class="cell_input_idx"/>
    <g s:x="28" s:y="10" s:pid="Y"/>
  </g>
  <g s:type="outputExt" transform="translate(766,1340.5)" s:width="30" s:height="20" id="cell_state">
    <text x="15" y="-4" class="nodelabel cell_state" s:attribute="ref">state</text>
    <s:alias val="$_outputExt_"/>
    <path d="M30,0 L30,20 L15,20 L0,10 L15,0 Z" class="cell_state"/>
    <g s:x="0" s:y="10" s:pid="A"/>
  </g>
  <g s:type="outputExt" transform="translate(766,730.5)" s:width="30" s:height="20" id="cell_load_input">
    <text x="15" y="-4" class="nodelabel cell_load_input" s:attribute="ref">load_input</text>
    <s:alias val="$_outputExt_"/>
    <path d="M30,0 L30,20 L15,20 L0,10 L15,0 Z" class="cell_load_input"/>
    <g s:x="0" s:y="10" s:pid="A"/>
  </g>
  <g s:type="outputExt" transform="translate(766,665.5)" s:width="30" s:height="20" id="cell_clear_acc">
    <text x="15" y="-4" class="nodelabel cell_clear_acc" s:attribute="ref">clear_acc</text>
    <s:alias val="$_outputExt_"/>
    <path d="M30,0 L30,20 L15,20 L0,10 L15,0 Z" class="cell_clear_acc"/>
    <g s:x="0" s:y="10" s:pid="A"/>
  </g>
  <g s:type="outputExt" transform="translate(766,1210.5)" s:width="30" s:height="20" id="cell_do_mac_hidden">
    <text x="15" y="-4" class="nodelabel cell_do_mac_hidden" s:attribute="ref">do_mac_hidden</text>
    <s:alias val="$_outputExt_"/>
    <path d="M30,0 L30,20 L15,20 L0,10 L15,0 Z" class="cell_do_mac_hidden"/>
    <g s:x="0" s:y="10" s:pid="A"/>
  </g>
  <g s:type="outputExt" transform="translate(766,1135)" s:width="30" s:height="20" id="cell_do_bias_hidden">
    <text x="15" y="-4" class="nodelabel cell_do_bias_hidden" s:attribute="ref">do_bias_hidden</text>
    <s:alias val="$_outputExt_"/>
    <path d="M30,0 L30,20 L15,20 L0,10 L15,0 Z" class="cell_do_bias_hidden"/>
    <g s:x="0" s:y="10" s:pid="A"/>
  </g>
  <g s:type="outputExt" transform="translate(766,1005)" s:width="30" s:height="20" id="cell_do_act_hidden">
    <text x="15" y="-4" class="nodelabel cell_do_act_hidden" s:attribute="ref">do_act_hidden</text>
    <s:alias val="$_outputExt_"/>
    <path d="M30,0 L30,20 L15,20 L0,10 L15,0 Z" class="cell_do_act_hidden"/>
    <g s:x="0" s:y="10" s:pid="A"/>
  </g>
  <g s:type="outputExt" transform="translate(766,1070)" s:width="30" s:height="20" id="cell_advance_hidden">
    <text x="15" y="-4" class="nodelabel cell_advance_hidden" s:attribute="ref">advance_hidden</text>
    <s:alias val="$_outputExt_"/>
    <path d="M30,0 L30,20 L15,20 L0,10 L15,0 Z" class="cell_advance_hidden"/>
    <g s:x="0" s:y="10" s:pid="A"/>
  </g>
  <g s:type="outputExt" transform="translate(766,1275.5)" s:width="30" s:height="20" id="cell_do_mac_output">
    <text x="15" y="-4" class="nodelabel cell_do_mac_output" s:attribute="ref">do_mac_output</text>
    <s:alias val="$_outputExt_"/>
    <path d="M30,0 L30,20 L15,20 L0,10 L15,0 Z" class="cell_do_mac_output"/>
    <g s:x="0" s:y="10" s:pid="A"/>
  </g>
  <g s:type="outputExt" transform="translate(766,865.5)" s:width="30" s:height="20" id="cell_do_bias_output">
    <text x="15" y="-4" class="nodelabel cell_do_bias_output" s:attribute="ref">do_bias_output</text>
    <s:alias val="$_outputExt_"/>
    <path d="M30,0 L30,20 L15,20 L0,10 L15,0 Z" class="cell_do_bias_output"/>
    <g s:x="0" s:y="10" s:pid="A"/>
  </g>
  <g s:type="outputExt" transform="translate(766,346.5)" s:width="30" s:height="20" id="cell_done">
    <text x="15" y="-4" class="nodelabel cell_done" s:attribute="ref">done</text>
    <s:alias val="$_outputExt_"/>
    <path d="M30,0 L30,20 L15,20 L0,10 L15,0 Z" class="cell_done"/>
    <g s:x="0" s:y="10" s:pid="A"/>
  </g>
  <g s:type="outputExt" transform="translate(766,579)" s:width="30" s:height="20" id="cell_busy">
    <text x="15" y="-4" class="nodelabel cell_busy" s:attribute="ref">busy</text>
    <s:alias val="$_outputExt_"/>
    <path d="M30,0 L30,20 L15,20 L0,10 L15,0 Z" class="cell_busy"/>
    <g s:x="0" s:y="10" s:pid="A"/>
  </g>
  <g s:type="constant" transform="translate(12,298)" s:width="30" s:height="20" id="cell_0100">
    <text x="15" y="-4" class="nodelabel cell_0100" s:attribute="ref">0x4</text>
    <s:alias val="$_constant_"/>
    <rect width="30" height="20" class="cell_0100"/>
    <g s:x="30" s:y="10" s:pid="Y"/>
  </g>
  <g s:type="constant" transform="translate(12,233)" s:width="30" s:height="20" id="cell_0111">
    <text x="15" y="-4" class="nodelabel cell_0111" s:attribute="ref">0x7</text>
    <s:alias val="$_constant_"/>
    <rect width="30" height="20" class="cell_0111"/>
    <g s:x="30" s:y="10" s:pid="Y"/>
  </g>
  <g s:type="constant" transform="translate(12,22)" s:width="30" s:height="20" id="cell_1000">
    <text x="15" y="-4" class="nodelabel cell_1000" s:attribute="ref">0x8</text>
    <s:alias val="$_constant_"/>
    <rect width="30" height="20" class="cell_1000"/>
    <g s:x="30" s:y="10" s:pid="Y"/>
  </g>
  <g s:type="constant" transform="translate(157,1447.5)" s:width="30" s:height="20" id="cell_00000000000000000000000000000100">
    <text x="15" y="-4" class="nodelabel cell_00000000000000000000000000000100" s:attribute="ref">0x4</text>
    <s:alias val="$_constant_"/>
    <rect width="30" height="20" class="cell_00000000000000000000000000000100"/>
    <g s:x="30" s:y="10" s:pid="Y"/>
  </g>
  <g s:type="constant" transform="translate(157,1387.5)" s:width="30" s:height="20" id="cell_00000000000000000000000000001000">
    <text x="15" y="-4" class="nodelabel cell_00000000000000000000000000001000" s:attribute="ref">0x8</text>
    <s:alias val="$_constant_"/>
    <rect width="30" height="20" class="cell_00000000000000000000000000001000"/>
    <g s:x="30" s:y="10" s:pid="Y"/>
  </g>
  <g s:type="constant" transform="translate(157,53)" s:width="30" s:height="20" id="cell_0000">
    <text x="15" y="-4" class="nodelabel cell_0000" s:attribute="ref">0x0</text>
    <s:alias val="$_constant_"/>
    <rect width="30" height="20" class="cell_0000"/>
    <g s:x="30" s:y="10" s:pid="Y"/>
  </g>
  <g s:type="constant" transform="translate(370,608)" s:width="30" s:height="20" id="cell_01000101">
    <text x="15" y="-4" class="nodelabel cell_01000101" s:attribute="ref">0x45</text>
    <s:alias val="$_constant_"/>
    <rect width="30" height="20" class="cell_01000101"/>
    <g s:x="30" s:y="10" s:pid="Y"/>
  </g>
  <g s:type="constant" transform="translate(157,404)" s:width="30" s:height="20" id="cell_0010">
    <text x="15" y="-4" class="nodelabel cell_0010" s:attribute="ref">0x2</text>
    <s:alias val="$_constant_"/>
    <rect width="30" height="20" class="cell_0010"/>
    <g s:x="30" s:y="10" s:pid="Y"/>
  </g>
  <g s:type="constant" transform="translate(157,538)" s:width="30" s:height="20" id="cell_0110">
    <text x="15" y="-4" class="nodelabel cell_0110" s:attribute="ref">0x6</text>
    <s:alias val="$_constant_"/>
    <rect width="30" height="20" class="cell_0110"/>
    <g s:x="30" s:y="10" s:pid="Y"/>
  </g>
  <g s:type="constant" transform="translate(157,603)" s:width="30" s:height="20" id="cell_0101">
    <text x="15" y="-4" class="nodelabel cell_0101" s:attribute="ref">0x5</text>
    <s:alias val="$_constant_"/>
    <rect width="30" height="20" class="cell_0101"/>
    <g s:x="30" s:y="10" s:pid="Y"/>
  </g>
  <g s:type="constant" transform="translate(157,803)" s:width="30" s:height="20" id="cell_0011">
    <text x="15" y="-4" class="nodelabel cell_0011" s:attribute="ref">0x3</text>
    <s:alias val="$_constant_"/>
    <rect width="30" height="20" class="cell_0011"/>
    <g s:x="30" s:y="10" s:pid="Y"/>
  </g>
  <g s:type="constant" transform="translate(157,118)" s:width="30" s:height="20" id="cell_0001">
    <text x="15" y="-4" class="nodelabel cell_0001" s:attribute="ref">0x1</text>
    <s:alias val="$_constant_"/>
    <rect width="30" height="20" class="cell_0001"/>
    <g s:x="30" s:y="10" s:pid="Y"/>
  </g>
  <g s:type="join" transform="translate(689.7142857142857,396.5)" s:width="4" s:height="40" id="cell_$join$,39,40,41,42,68,69,70,71,43,44,45,46,47,48,49,50,148,149,150,151,152,153,154,155,51,52,53,54,156,157,158,159,55,56,57,58,">
    <rect width="5" height="160" class="splitjoinBody" s:generic="body"/>
    <s:alias val="$_join_"/>
    <g s:x="5" s:y="20" s:pid="out"/>
    <g transform="translate(0,10)" s:x="0" s:y="10" s:pid="in0">
      <text x="-3" y="-4" class="inputPortLabel">0:3</text>
    </g>
    <g transform="translate(0,30)" s:x="0" s:y="10" s:pid="in0">
      <text x="-3" y="-4" class="inputPortLabel">4:7</text>
    </g>
    <g transform="translate(0,50)" s:x="0" s:y="10" s:pid="in0">
      <text x="-3" y="-4" class="inputPortLabel">8:11</text>
    </g>
    <g transform="translate(0,70)" s:x="0" s:y="10" s:pid="in0">
      <text x="-3" y="-4" class="inputPortLabel">12:15</text>
    </g>
    <g transform="translate(0,90)" s:x="0" s:y="10" s:pid="in0">
      <text x="-3" y="-4" class="inputPortLabel">16:23</text>
    </g>
    <g transform="translate(0,110)" s:x="0" s:y="10" s:pid="in0">
      <text x="-3" y="-4" class="inputPortLabel">24:27</text>
    </g>
    <g transform="translate(0,130)" s:x="0" s:y="10" s:pid="in0">
      <text x="-3" y="-4" class="inputPortLabel">28:31</text>
    </g>
    <g transform="translate(0,150)" s:x="0" s:y="10" s:pid="in0">
      <text x="-3" y="-4" class="inputPortLabel">32:35</text>
    </g>
  </g>
  <g s:type="join" transform="translate(689.25,825)" s:width="4" s:height="40" id="cell_$join$,24,23,31,21,20,19,29,17,59,">
    <rect width="5" height="180" class="splitjoinBody" s:generic="body"/>
    <s:alias val="$_join_"/>
    <g s:x="5" s:y="20" s:pid="out"/>
    <g transform="translate(0,10)" s:x="0" s:y="10" s:pid="in0">
      <text x="-3" y="-4" class="inputPortLabel">0</text>
    </g>
    <g transform="translate(0,30)" s:x="0" s:y="10" s:pid="in0">
      <text x="-3" y="-4" class="inputPortLabel">1</text>
    </g>
    <g transform="translate(0,50)" s:x="0" s:y="10" s:pid="in0">
      <text x="-3" y="-4" class="inputPortLabel">2</text>
    </g>
    <g transform="translate(0,70)" s:x="0" s:y="10" s:pid="in0">
      <text x="-3" y="-4" class="inputPortLabel">3</text>
    </g>
    <g transform="translate(0,90)" s:x="0" s:y="10" s:pid="in0">
      <text x="-3" y="-4" class="inputPortLabel">4</text>
    </g>
    <g transform="translate(0,110)" s:x="0" s:y="10" s:pid="in0">
      <text x="-3" y="-4" class="inputPortLabel">5</text>
    </g>
    <g transform="translate(0,130)" s:x="0" s:y="10" s:pid="in0">
      <text x="-3" y="-4" class="inputPortLabel">6</text>
    </g>
    <g transform="translate(0,150)" s:x="0" s:y="10" s:pid="in0">
      <text x="-3" y="-4" class="inputPortLabel">7</text>
    </g>
    <g transform="translate(0,170)" s:x="0" s:y="10" s:pid="in0">
      <text x="-3" y="-4" class="inputPortLabel">8</text>
    </g>
  </g>
  <line x1="40" x2="92" y1="464" y2="464" class="net_9,10,11,12"/>
  <line x1="92" x2="92" y1="464" y2="663" class="net_9,10,11,12"/>
  <circle cx="92" cy="464" r="2" style="fill:#000" class="net_9,10,11,12"/>
  <circle cx="92" cy="663" r="2" style="fill:#000" class="net_9,10,11,12"/>
  <line x1="92" x2="165.33333333333334" y1="663" y2="663" class="net_9,10,11,12"/>
  <line x1="40" x2="165.33333333333334" y1="464" y2="464" class="net_9,10,11,12"/>
  <line x1="40" x2="92" y1="464" y2="464" class="net_9,10,11,12"/>
  <line x1="92" x2="92" y1="464" y2="1426.5" class="net_9,10,11,12"/>
  <line x1="92" x2="424.3333333333333" y1="1426.5" y2="1426.5" class="net_9,10,11,12"/>
  <line x1="40" x2="92" y1="464" y2="464" class="net_9,10,11,12"/>
  <line x1="92" x2="92" y1="464" y2="1366.5" class="net_9,10,11,12"/>
  <circle cx="92" cy="1366.5" r="2" style="fill:#000" class="net_9,10,11,12"/>
  <line x1="92" x2="424.3333333333333" y1="1366.5" y2="1366.5" class="net_9,10,11,12"/>
  <line x1="42" x2="102" y1="308" y2="308" class="net_60,61,62,63"/>
  <line x1="102" x2="102" y1="308" y2="678" class="net_60,61,62,63"/>
  <line x1="102" x2="165.33333333333334" y1="678" y2="678" class="net_60,61,62,63"/>
  <line x1="42" x2="102" y1="308" y2="308" class="net_60,61,62,63"/>
  <line x1="102" x2="102" y1="308" y2="494" class="net_60,61,62,63"/>
  <line x1="102" x2="253" y1="494" y2="494" class="net_60,61,62,63"/>
  <line x1="253" x2="253" y1="494" y2="923" class="net_60,61,62,63"/>
  <circle cx="102" cy="494" r="2" style="fill:#000" class="net_60,61,62,63"/>
  <line x1="253" x2="424.3333333333333" y1="923" y2="923" class="net_60,61,62,63"/>
  <line x1="40" x2="165.33333333333334" y1="178" y2="178" class="net_5,6,7,8"/>
  <line x1="42" x2="122" y1="243" y2="243" class="net_64,65,66,67"/>
  <line x1="122" x2="122" y1="243" y2="193" class="net_64,65,66,67"/>
  <circle cx="122" cy="243" r="2" style="fill:#000" class="net_64,65,66,67"/>
  <line x1="122" x2="165.33333333333334" y1="193" y2="193" class="net_64,65,66,67"/>
  <line x1="42" x2="303" y1="243" y2="243" class="net_64,65,66,67"/>
  <line x1="303" x2="303" y1="243" y2="743" class="net_64,65,66,67"/>
  <line x1="303" x2="424.3333333333333" y1="743" y2="743" class="net_64,65,66,67"/>
  <line x1="42" x2="303" y1="243" y2="243" class="net_64,65,66,67"/>
  <line x1="303" x2="303" y1="243" y2="568" class="net_64,65,66,67"/>
  <circle cx="303" cy="568" r="2" style="fill:#000" class="net_64,65,66,67"/>
  <line x1="303" x2="423" y1="568" y2="568" class="net_64,65,66,67"/>
  <line x1="42" x2="112" y1="32" y2="32" class="net_68,69,70,71"/>
  <line x1="112" x2="112" y1="32" y2="479" class="net_68,69,70,71"/>
  <circle cx="112" cy="32" r="2" style="fill:#000" class="net_68,69,70,71"/>
  <line x1="112" x2="165.33333333333334" y1="479" y2="479" class="net_68,69,70,71"/>
  <line x1="42" x2="333" y1="32" y2="32" class="net_68,69,70,71"/>
  <line x1="333" x2="333" y1="32" y2="504.5" class="net_68,69,70,71"/>
  <line x1="333" x2="370" y1="504.5" y2="504.5" class="net_68,69,70,71"/>
  <line x1="42" x2="333" y1="32" y2="32" class="net_68,69,70,71"/>
  <line x1="333" x2="333" y1="32" y2="364" class="net_68,69,70,71"/>
  <circle cx="333" cy="32" r="2" style="fill:#000" class="net_68,69,70,71"/>
  <circle cx="333" cy="364" r="2" style="fill:#000" class="net_68,69,70,71"/>
  <line x1="333" x2="424.3333333333333" y1="364" y2="364" class="net_68,69,70,71"/>
  <line x1="42" x2="333" y1="32" y2="32" class="net_68,69,70,71"/>
  <line x1="333" x2="333" y1="32" y2="104" class="net_68,69,70,71"/>
  <circle cx="333" cy="104" r="2" style="fill:#000" class="net_68,69,70,71"/>
  <line x1="333" x2="423" y1="104" y2="104" class="net_68,69,70,71"/>
  <line x1="42" x2="626" y1="32" y2="32" class="net_68,69,70,71"/>
  <line x1="626" x2="626" y1="32" y2="427" class="net_68,69,70,71"/>
  <line x1="626" x2="689.7142857142857" y1="427" y2="427" class="net_68,69,70,71"/>
  <line x1="446.3333333333333" x2="656" y1="855.5" y2="855.5" class="net_29"/>
  <line x1="656" x2="656" y1="855.5" y2="1213" class="net_29"/>
  <line x1="656" x2="686" y1="1213" y2="1213" class="net_29"/>
  <line x1="446.3333333333333" x2="656" y1="855.5" y2="855.5" class="net_29"/>
  <line x1="656" x2="656" y1="855.5" y2="955.5" class="net_29"/>
  <circle cx="656" cy="955.5" r="2" style="fill:#000" class="net_29"/>
  <line x1="656" x2="689.25" y1="955.5" y2="955.5" class="net_29"/>
  <line x1="446.3333333333333" x2="636" y1="1434" y2="1434" class="net_30"/>
  <line x1="636" x2="636" y1="1434" y2="1228" class="net_30"/>
  <line x1="636" x2="686" y1="1228" y2="1228" class="net_30"/>
  <line x1="446.3333333333333" x2="626" y1="975.5" y2="975.5" class="net_31"/>
  <line x1="626" x2="626" y1="975.5" y2="1278" class="net_31"/>
  <circle cx="626" cy="975.5" r="2" style="fill:#000" class="net_31"/>
  <line x1="626" x2="686" y1="1278" y2="1278" class="net_31"/>
  <line x1="446.3333333333333" x2="626" y1="975.5" y2="975.5" class="net_31"/>
  <line x1="626" x2="626" y1="975.5" y2="875.5" class="net_31"/>
  <line x1="626" x2="689.25" y1="875.5" y2="875.5" class="net_31"/>
  <line x1="446.3333333333333" x2="646" y1="1374" y2="1374" class="net_32"/>
  <line x1="646" x2="646" y1="1374" y2="1293" class="net_32"/>
  <line x1="646" x2="686" y1="1293" y2="1293" class="net_32"/>
  <line x1="401" x2="616" y1="1263.5" y2="1263.5" class="net_33"/>
  <line x1="616" x2="616" y1="1263.5" y2="581.5" class="net_33"/>
  <line x1="616" x2="686" y1="581.5" y2="581.5" class="net_33"/>
  <line x1="401" x2="576" y1="484.5" y2="484.5" class="net_34"/>
  <line x1="576" x2="576" y1="484.5" y2="596.5" class="net_34"/>
  <line x1="576" x2="686" y1="596.5" y2="596.5" class="net_34"/>
  <line x1="187" x2="233" y1="1457.5" y2="1457.5" class="net_72,73,74,75,76,77,78,79,80,81,82,83,84,85,86,87,88,89,90,91,92,93,94,95,96,97,98,99,100,101,102,103"/>
  <line x1="233" x2="233" y1="1457.5" y2="1441.5" class="net_72,73,74,75,76,77,78,79,80,81,82,83,84,85,86,87,88,89,90,91,92,93,94,95,96,97,98,99,100,101,102,103"/>
  <line x1="233" x2="424.3333333333333" y1="1441.5" y2="1441.5" class="net_72,73,74,75,76,77,78,79,80,81,82,83,84,85,86,87,88,89,90,91,92,93,94,95,96,97,98,99,100,101,102,103"/>
  <line x1="187" x2="233" y1="1397.5" y2="1397.5" class="net_104,105,106,107,108,109,110,111,112,113,114,115,116,117,118,119,120,121,122,123,124,125,126,127,128,129,130,131,132,133,134,135"/>
  <line x1="233" x2="233" y1="1397.5" y2="1381.5" class="net_104,105,106,107,108,109,110,111,112,113,114,115,116,117,118,119,120,121,122,123,124,125,126,127,128,129,130,131,132,133,134,135"/>
  <line x1="233" x2="424.3333333333333" y1="1381.5" y2="1381.5" class="net_104,105,106,107,108,109,110,111,112,113,114,115,116,117,118,119,120,121,122,123,124,125,126,127,128,129,130,131,132,133,134,135"/>
  <line x1="188" x2="343" y1="1198" y2="1198" class="net_13,14,15,16"/>
  <line x1="343" x2="343" y1="1198" y2="1263.5" class="net_13,14,15,16"/>
  <circle cx="343" cy="1198" r="2" style="fill:#000" class="net_13,14,15,16"/>
  <circle cx="343" cy="1263.5" r="2" style="fill:#000" class="net_13,14,15,16"/>
  <line x1="343" x2="370" y1="1263.5" y2="1263.5" class="net_13,14,15,16"/>
  <line x1="188" x2="343" y1="1198" y2="1198" class="net_13,14,15,16"/>
  <line x1="343" x2="343" y1="1198" y2="484.5" class="net_13,14,15,16"/>
  <circle cx="343" cy="484.5" r="2" style="fill:#000" class="net_13,14,15,16"/>
  <line x1="343" x2="370" y1="484.5" y2="484.5" class="net_13,14,15,16"/>
  <line x1="188" x2="343" y1="1198" y2="1198" class="net_13,14,15,16"/>
  <line x1="343" x2="343" y1="1198" y2="349" class="net_13,14,15,16"/>
  <line x1="343" x2="424.3333333333333" y1="349" y2="349" class="net_13,14,15,16"/>
  <line x1="188" x2="343" y1="1198" y2="1198" class="net_13,14,15,16"/>
  <line x1="343" x2="343" y1="1198" y2="728" class="net_13,14,15,16"/>
  <circle cx="343" cy="728" r="2" style="fill:#000" class="net_13,14,15,16"/>
  <line x1="343" x2="424.3333333333333" y1="728" y2="728" class="net_13,14,15,16"/>
  <line x1="188" x2="343" y1="1198" y2="1198" class="net_13,14,15,16"/>
  <line x1="343" x2="343" y1="1198" y2="968" class="net_13,14,15,16"/>
  <circle cx="343" cy="968" r="2" style="fill:#000" class="net_13,14,15,16"/>
  <line x1="343" x2="424.3333333333333" y1="968" y2="968" class="net_13,14,15,16"/>
  <line x1="188" x2="343" y1="1198" y2="1198" class="net_13,14,15,16"/>
  <line x1="343" x2="343" y1="1198" y2="1072.5" class="net_13,14,15,16"/>
  <circle cx="343" cy="1072.5" r="2" style="fill:#000" class="net_13,14,15,16"/>
  <line x1="343" x2="424.3333333333333" y1="1072.5" y2="1072.5" class="net_13,14,15,16"/>
  <line x1="188" x2="343" y1="1198" y2="1198" class="net_13,14,15,16"/>
  <line x1="343" x2="343" y1="1198" y2="908" class="net_13,14,15,16"/>
  <circle cx="343" cy="908" r="2" style="fill:#000" class="net_13,14,15,16"/>
  <line x1="343" x2="424.3333333333333" y1="908" y2="908" class="net_13,14,15,16"/>
  <line x1="188" x2="343" y1="1198" y2="1198" class="net_13,14,15,16"/>
  <line x1="343" x2="343" y1="1198" y2="1137.5" class="net_13,14,15,16"/>
  <circle cx="343" cy="1137.5" r="2" style="fill:#000" class="net_13,14,15,16"/>
  <line x1="343" x2="424.3333333333333" y1="1137.5" y2="1137.5" class="net_13,14,15,16"/>
  <line x1="188" x2="343" y1="1198" y2="1198" class="net_13,14,15,16"/>
  <line x1="343" x2="343" y1="1198" y2="848" class="net_13,14,15,16"/>
  <circle cx="343" cy="848" r="2" style="fill:#000" class="net_13,14,15,16"/>
  <line x1="343" x2="424.3333333333333" y1="848" y2="848" class="net_13,14,15,16"/>
  <line x1="188" x2="343" y1="1198" y2="1198" class="net_13,14,15,16"/>
  <line x1="343" x2="343" y1="1198" y2="668" class="net_13,14,15,16"/>
  <circle cx="343" cy="668" r="2" style="fill:#000" class="net_13,14,15,16"/>
  <line x1="343" x2="424.3333333333333" y1="668" y2="668" class="net_13,14,15,16"/>
  <line x1="188" x2="444.5" y1="1198" y2="1198" class="net_13,14,15,16"/>
  <line x1="188" x2="343" y1="1198" y2="1198" class="net_13,14,15,16"/>
  <line x1="343" x2="343" y1="1198" y2="1350.5" class="net_13,14,15,16"/>
  <line x1="343" x2="766" y1="1350.5" y2="1350.5" class="net_13,14,15,16"/>
  <line x1="40" x2="82" y1="399" y2="399" class="net_3"/>
  <line x1="82" x2="82" y1="399" y2="1198" class="net_3"/>
  <line x1="82" x2="157" y1="1198" y2="1198" class="net_3"/>
  <line x1="40" x2="157" y1="1218" y2="1218" class="net_2"/>
  <line x1="786" x2="860" y1="805.5" y2="805.5" class="net_35,36,37,38"/>
  <line x1="860" x2="860" y1="805.5" y2="1167.5" class="net_35,36,37,38"/>
  <line x1="860" x2="122" y1="1167.5" y2="1167.5" class="net_35,36,37,38"/>
  <line x1="122" x2="122" y1="1167.5" y2="1238" class="net_35,36,37,38"/>
  <line x1="122" x2="157" y1="1238" y2="1238" class="net_35,36,37,38"/>
  <line x1="187" x2="746" y1="63" y2="63" class="net_140,141,142,143"/>
  <line x1="746" x2="746" y1="63" y2="795.5" class="net_140,141,142,143"/>
  <line x1="746" x2="766" y1="795.5" y2="795.5" class="net_140,141,142,143"/>
  <line x1="187" x2="353" y1="63" y2="63" class="net_140,141,142,143"/>
  <line x1="353" x2="353" y1="63" y2="294" class="net_140,141,142,143"/>
  <circle cx="353" cy="63" r="2" style="fill:#000" class="net_140,141,142,143"/>
  <line x1="353" x2="423" y1="294" y2="294" class="net_140,141,142,143"/>
  <line x1="187" x2="353" y1="63" y2="63" class="net_140,141,142,143"/>
  <line x1="353" x2="353" y1="63" y2="84" class="net_140,141,142,143"/>
  <circle cx="353" cy="84" r="2" style="fill:#000" class="net_140,141,142,143"/>
  <line x1="353" x2="423" y1="84" y2="84" class="net_140,141,142,143"/>
  <line x1="695.7142857142857" x2="736" y1="417" y2="417" class="net_39,40,41,42,68,69,70,71,43,44,45,46,47,48,49,50,148,149,150,151,152,153,154,155,51,52,53,54,156,157,158,159,55,56,57,58"/>
  <line x1="736" x2="736" y1="417" y2="815.5" class="net_39,40,41,42,68,69,70,71,43,44,45,46,47,48,49,50,148,149,150,151,152,153,154,155,51,52,53,54,156,157,158,159,55,56,57,58"/>
  <line x1="736" x2="766" y1="815.5" y2="815.5" class="net_39,40,41,42,68,69,70,71,43,44,45,46,47,48,49,50,148,149,150,151,152,153,154,155,51,52,53,54,156,157,158,159,55,56,57,58"/>
  <line x1="695.25" x2="776" y1="845.5" y2="845.5" class="net_24,23,31,21,20,19,29,17,59"/>
  <line x1="776" x2="776" y1="845.5" y2="820.5" class="net_24,23,31,21,20,19,29,17,59"/>
  <line x1="187" x2="273" y1="548" y2="548" class="net_168,169,170,171"/>
  <line x1="273" x2="273" y1="548" y2="983" class="net_168,169,170,171"/>
  <circle cx="273" cy="548" r="2" style="fill:#000" class="net_168,169,170,171"/>
  <line x1="273" x2="424.3333333333333" y1="983" y2="983" class="net_168,169,170,171"/>
  <line x1="187" x2="273" y1="548" y2="548" class="net_168,169,170,171"/>
  <line x1="273" x2="273" y1="548" y2="434" class="net_168,169,170,171"/>
  <line x1="273" x2="423" y1="434" y2="434" class="net_168,169,170,171"/>
  <line x1="187" x2="423" y1="548" y2="548" class="net_168,169,170,171"/>
  <line x1="187" x2="243" y1="613" y2="613" class="net_172,173,174,175"/>
  <line x1="243" x2="243" y1="613" y2="1087.5" class="net_172,173,174,175"/>
  <line x1="243" x2="424.3333333333333" y1="1087.5" y2="1087.5" class="net_172,173,174,175"/>
  <line x1="187" x2="233" y1="813" y2="813" class="net_180,181,182,183"/>
  <line x1="233" x2="233" y1="813" y2="1152.5" class="net_180,181,182,183"/>
  <circle cx="233" cy="813" r="2" style="fill:#000" class="net_180,181,182,183"/>
  <line x1="233" x2="424.3333333333333" y1="1152.5" y2="1152.5" class="net_180,181,182,183"/>
  <line x1="187" x2="423" y1="813" y2="813" class="net_180,181,182,183"/>
  <line x1="187" x2="293" y1="414" y2="414" class="net_156,157,158,159"/>
  <line x1="293" x2="293" y1="414" y2="863" class="net_156,157,158,159"/>
  <circle cx="293" cy="414" r="2" style="fill:#000" class="net_156,157,158,159"/>
  <line x1="293" x2="424.3333333333333" y1="863" y2="863" class="net_156,157,158,159"/>
  <line x1="187" x2="293" y1="414" y2="414" class="net_156,157,158,159"/>
  <line x1="293" x2="293" y1="414" y2="793" class="net_156,157,158,159"/>
  <circle cx="293" cy="793" r="2" style="fill:#000" class="net_156,157,158,159"/>
  <line x1="293" x2="423" y1="793" y2="793" class="net_156,157,158,159"/>
  <line x1="187" x2="423" y1="414" y2="414" class="net_156,157,158,159"/>
  <line x1="187" x2="293" y1="414" y2="414" class="net_156,157,158,159"/>
  <line x1="293" x2="293" y1="414" y2="527" class="net_156,157,158,159"/>
  <circle cx="293" cy="527" r="2" style="fill:#000" class="net_156,157,158,159"/>
  <line x1="293" x2="689.7142857142857" y1="527" y2="527" class="net_156,157,158,159"/>
  <line x1="187" x2="323" y1="128" y2="128" class="net_188,189,190,191"/>
  <line x1="323" x2="323" y1="128" y2="683" class="net_188,189,190,191"/>
  <line x1="323" x2="424.3333333333333" y1="683" y2="683" class="net_188,189,190,191"/>
  <line x1="187" x2="323" y1="128" y2="128" class="net_188,189,190,191"/>
  <line x1="323" x2="323" y1="128" y2="314" class="net_188,189,190,191"/>
  <circle cx="323" cy="314" r="2" style="fill:#000" class="net_188,189,190,191"/>
  <line x1="323" x2="423" y1="314" y2="314" class="net_188,189,190,191"/>
  <line x1="185" x2="343" y1="274" y2="274" class="net_4"/>
  <line x1="343" x2="343" y1="274" y2="334" class="net_4"/>
  <line x1="343" x2="433" y1="334" y2="334" class="net_4"/>
  <circle cx="343" cy="274" r="2" style="fill:#000" class="net_4"/>
  <line x1="433" x2="433" y1="334" y2="319" class="net_4"/>
  <line x1="185" x2="433" y1="274" y2="274" class="net_4"/>
  <line x1="433" x2="433" y1="274" y2="109" class="net_4"/>
  <line x1="187.33333333333334" x2="263" y1="670.5" y2="670.5" class="net_26"/>
  <line x1="263" x2="263" y1="670.5" y2="833" class="net_26"/>
  <line x1="263" x2="433" y1="833" y2="833" class="net_26"/>
  <line x1="433" x2="433" y1="833" y2="818" class="net_26"/>
  <line x1="187.33333333333334" x2="313" y1="185.5" y2="185.5" class="net_27"/>
  <line x1="313" x2="313" y1="185.5" y2="454" class="net_27"/>
  <line x1="313" x2="433" y1="454" y2="454" class="net_27"/>
  <line x1="433" x2="433" y1="454" y2="439" class="net_27"/>
  <line x1="187.33333333333334" x2="283" y1="471.5" y2="471.5" class="net_28"/>
  <line x1="283" x2="283" y1="471.5" y2="588" class="net_28"/>
  <line x1="283" x2="433" y1="588" y2="588" class="net_28"/>
  <line x1="433" x2="433" y1="588" y2="573" class="net_28"/>
  <line x1="446.3333333333333" x2="756" y1="675.5" y2="675.5" class="net_17"/>
  <line x1="756" x2="756" y1="675.5" y2="740.5" class="net_17"/>
  <circle cx="756" cy="675.5" r="2" style="fill:#000" class="net_17"/>
  <line x1="756" x2="766" y1="740.5" y2="740.5" class="net_17"/>
  <line x1="446.3333333333333" x2="766" y1="675.5" y2="675.5" class="net_17"/>
  <line x1="446.3333333333333" x2="666" y1="675.5" y2="675.5" class="net_17"/>
  <line x1="666" x2="666" y1="675.5" y2="975.5" class="net_17"/>
  <circle cx="666" cy="675.5" r="2" style="fill:#000" class="net_17"/>
  <line x1="666" x2="689.25" y1="975.5" y2="975.5" class="net_17"/>
  <line x1="716" x2="766" y1="1220.5" y2="1220.5" class="net_18"/>
  <line x1="446.3333333333333" x2="766" y1="1145" y2="1145" class="net_19"/>
  <line x1="446.3333333333333" x2="676" y1="1145" y2="1145" class="net_19"/>
  <line x1="676" x2="676" y1="1145" y2="935.5" class="net_19"/>
  <circle cx="676" cy="1145" r="2" style="fill:#000" class="net_19"/>
  <line x1="676" x2="689.25" y1="935.5" y2="935.5" class="net_19"/>
  <line x1="446.3333333333333" x2="646" y1="915.5" y2="915.5" class="net_20"/>
  <line x1="646" x2="646" y1="915.5" y2="1015" class="net_20"/>
  <circle cx="646" cy="915.5" r="2" style="fill:#000" class="net_20"/>
  <line x1="646" x2="766" y1="1015" y2="1015" class="net_20"/>
  <line x1="446.3333333333333" x2="689.25" y1="915.5" y2="915.5" class="net_20"/>
  <line x1="446.3333333333333" x2="766" y1="1080" y2="1080" class="net_21"/>
  <line x1="446.3333333333333" x2="636" y1="1080" y2="1080" class="net_21"/>
  <line x1="636" x2="636" y1="1080" y2="895.5" class="net_21"/>
  <circle cx="636" cy="1080" r="2" style="fill:#000" class="net_21"/>
  <line x1="636" x2="689.25" y1="895.5" y2="895.5" class="net_21"/>
  <line x1="716" x2="766" y1="1285.5" y2="1285.5" class="net_22"/>
  <line x1="446.3333333333333" x2="726" y1="735.5" y2="735.5" class="net_23"/>
  <line x1="726" x2="726" y1="735.5" y2="875.5" class="net_23"/>
  <line x1="726" x2="766" y1="875.5" y2="875.5" class="net_23"/>
  <line x1="446.3333333333333" x2="676" y1="735.5" y2="735.5" class="net_23"/>
  <line x1="676" x2="676" y1="735.5" y2="855.5" class="net_23"/>
  <circle cx="676" cy="735.5" r="2" style="fill:#000" class="net_23"/>
  <line x1="676" x2="689.25" y1="855.5" y2="855.5" class="net_23"/>
  <line x1="446.3333333333333" x2="766" y1="356.5" y2="356.5" class="net_24"/>
  <line x1="446.3333333333333" x2="566" y1="356.5" y2="356.5" class="net_24"/>
  <line x1="566" x2="566" y1="356.5" y2="611.5" class="net_24"/>
  <line x1="566" x2="689.75" y1="611.5" y2="611.5" class="net_24"/>
  <circle cx="566" cy="356.5" r="2" style="fill:#000" class="net_24"/>
  <line x1="689.75" x2="689.75" y1="611.5" y2="835" class="net_24"/>
  <line x1="716" x2="766" y1="589" y2="589" class="net_25"/>
  <line x1="443" x2="690.2142857142857" y1="94" y2="94" class="net_39,40,41,42"/>
  <line x1="690.2142857142857" x2="690.2142857142857" y1="94" y2="406.5" class="net_39,40,41,42"/>
  <line x1="443" x2="586" y1="558" y2="558" class="net_43,44,45,46"/>
  <line x1="586" x2="586" y1="558" y2="447" class="net_43,44,45,46"/>
  <line x1="586" x2="689.7142857142857" y1="447" y2="447" class="net_43,44,45,46"/>
  <line x1="443" x2="576" y1="424" y2="424" class="net_47,48,49,50"/>
  <line x1="576" x2="576" y1="424" y2="467" class="net_47,48,49,50"/>
  <line x1="576" x2="689.7142857142857" y1="467" y2="467" class="net_47,48,49,50"/>
  <line x1="400" x2="596" y1="618" y2="618" class="net_148,149,150,151,152,153,154,155"/>
  <line x1="596" x2="596" y1="618" y2="487" class="net_148,149,150,151,152,153,154,155"/>
  <line x1="596" x2="689.7142857142857" y1="487" y2="487" class="net_148,149,150,151,152,153,154,155"/>
  <line x1="443" x2="606" y1="803" y2="803" class="net_51,52,53,54"/>
  <line x1="606" x2="606" y1="803" y2="507" class="net_51,52,53,54"/>
  <line x1="606" x2="689.7142857142857" y1="507" y2="507" class="net_51,52,53,54"/>
  <line x1="443" x2="616" y1="304" y2="304" class="net_55,56,57,58"/>
  <line x1="616" x2="616" y1="304" y2="566.5" class="net_55,56,57,58"/>
  <line x1="616" x2="690.2142857142857" y1="566.5" y2="566.5" class="net_55,56,57,58"/>
  <line x1="690.2142857142857" x2="690.2142857142857" y1="566.5" y2="547.5" class="net_55,56,57,58"/>
  <line x1="469.5" x2="689.75" y1="1198" y2="1198" class="net_59"/>
  <line x1="689.75" x2="689.75" y1="1198" y2="996" class="net_59"/>
</svg>
