<svg xmlns="http://www.w3.org/2000/svg" xmlns:xlink="http://www.w3.org/1999/xlink" xmlns:s="https://github.com/nturley/netlistsvg" width="281" height="162">
  <style>svg {
    stroke:#000;
    fill:none;
  }
  text {
    fill:#000;
    stroke:none;
    font-size:10px;
    font-weight: bold;
    font-family: "Courier New", monospace;
  }
  .nodelabel {
    text-anchor: middle;
  }
  .inputPortLabel {
    text-anchor: end;
  }
  .splitjoinBody {
    fill:#000;
  }</style>
  <g s:type="lt" transform="translate(96.66666666666667,120)" s:width="25" s:height="25" id="cell_$lt$rtl/src/relu_unit.sv:11$3">
    <s:alias val="$lt"/>
    <circle r="12.5" cx="12.5" cy="12.5" class="cell_$lt$rtl/src/relu_unit.sv:11$3"/>
    <line x1="7.5" x2="17.5" y1="12.5" y2="7.5" class="cell_$lt$rtl/src/relu_unit.sv:11$3"/>
    <line x1="7.5" x2="17.5" y1="12.5" y2="17.5" class="cell_$lt$rtl/src/relu_unit.sv:11$3"/>
    <g s:x="3" s:y="5" s:pid="A"/>
    <g s:x="3" s:y="20" s:pid="B"/>
    <g s:x="25" s:y="12.5" s:pid="Y"/>
  </g>
  <g s:type="mux" transform="translate(160,12.5)" s:width="20" s:height="40" id="cell_$ternary$rtl/src/relu_unit.sv:11$4">
    <s:alias val="$pmux"/>
    <s:alias val="$mux"/>
    <s:alias val="$_MUX_"/>
    <path d="M0,0 L20,10 L20,30 L0,40 Z" class="cell_$ternary$rtl/src/relu_unit.sv:11$4"/>
    <g s:x="0" s:y="10" s:pid="A"/>
    <g s:x="0" s:y="30" s:pid="B"/>
    <g s:x="10" s:y="35" s:pid="S"/>
    <g s:x="20" s:y="20" s:pid="Y"/>
  </g>
  <g s:type="inputExt" transform="translate(12,35)" s:width="30" s:height="20" id="cell_in_value">
    <text x="15" y="-4" class="nodelabel cell_in_value" s:attribute="ref">in_value</text>
    <s:alias val="$_inputExt_"/>
    <path d="M0,0 L0,20 L15,20 L30,10 L15,0 Z" class="cell_in_value"/>
    <g s:x="28" s:y="10" s:pid="Y"/>
  </g>
  <g s:type="outputExt" transform="translate(215,22.5)" s:width="30" s:height="20" id="cell_out_value">
    <text x="15" y="-4" class="nodelabel cell_out_value" s:attribute="ref">out_value</text>
    <s:alias val="$_outputExt_"/>
    <path d="M30,0 L30,20 L15,20 L0,10 L15,0 Z" class="cell_out_value"/>
    <g s:x="0" s:y="10" s:pid="A"/>
  </g>
  <g s:type="constant" transform="translate(12,130)" s:width="30" s:height="20" id="cell_00000000000000000000000000000000">
    <text x="15" y="-4" class="nodelabel cell_00000000000000000000000000000000" s:attribute="ref">0x0</text>
    <s:alias val="$_constant_"/>
    <rect width="30" height="20" class="cell_00000000000000000000000000000000"/>
    <g s:x="30" s:y="10" s:pid="Y"/>
  </g>
  <g s:type="constant" transform="translate(95,65)" s:width="30" s:height="20" id="cell_0000000000000000">
    <text x="15" y="-4" class="nodelabel cell_0000000000000000" s:attribute="ref">0x0</text>
    <s:alias val="$_constant_"/>
    <rect width="30" height="20" class="cell_0000000000000000"/>
    <g s:x="30" s:y="10" s:pid="Y"/>
  </g>
  <g s:type="split" transform="translate(95,12)" s:width="5" s:height="40" id="cell_$split$,2,3,4,5,6,7,8,9,10,11,12,13,14,15,16,17,18,19,20,21,22,23,24,25,26,27,28,29,30,31,32,33,">
    <rect width="5" height="20" class="splitjoinBody" s:generic="body"/>
    <s:alias val="$_split_"/>
    <g s:x="0" s:y="20" s:pid="in"/>
    <g transform="translate(4,10)" s:x="4" s:y="10" s:pid="out0">
      <text x="5" y="-4">0:15</text>
    </g>
  </g>
  <line x1="40" x2="70" y1="45" y2="45" class="net_2,3,4,5,6,7,8,9,10,11,12,13,14,15,16,17,18,19,20,21,22,23,24,25,26,27,28,29,30,31,32,33"/>
  <line x1="70" x2="70" y1="45" y2="125" class="net_2,3,4,5,6,7,8,9,10,11,12,13,14,15,16,17,18,19,20,21,22,23,24,25,26,27,28,29,30,31,32,33"/>
  <circle cx="70" cy="45" r="2" style="fill:#000" class="net_2,3,4,5,6,7,8,9,10,11,12,13,14,15,16,17,18,19,20,21,22,23,24,25,26,27,28,29,30,31,32,33"/>
  <line x1="70" x2="99.66666666666667" y1="125" y2="125" class="net_2,3,4,5,6,7,8,9,10,11,12,13,14,15,16,17,18,19,20,21,22,23,24,25,26,27,28,29,30,31,32,33"/>
  <line x1="40" x2="95.5" y1="45" y2="45" class="net_2,3,4,5,6,7,8,9,10,11,12,13,14,15,16,17,18,19,20,21,22,23,24,25,26,27,28,29,30,31,32,33"/>
  <line x1="95.5" x2="95.5" y1="45" y2="33" class="net_2,3,4,5,6,7,8,9,10,11,12,13,14,15,16,17,18,19,20,21,22,23,24,25,26,27,28,29,30,31,32,33"/>
  <line x1="42" x2="99.66666666666667" y1="140" y2="140" class="net_51,52,53,54,55,56,57,58,59,60,61,62,63,64,65,66,67,68,69,70,71,72,73,74,75,76,77,78,79,80,81,82"/>
  <line x1="100" x2="160" y1="22.5" y2="22.5" class="net_2,3,4,5,6,7,8,9,10,11,12,13,14,15,16,17"/>
  <line x1="125" x2="135" y1="75" y2="75" class="net_83,84,85,86,87,88,89,90,91,92,93,94,95,96,97,98"/>
  <line x1="135" x2="135" y1="75" y2="42.5" class="net_83,84,85,86,87,88,89,90,91,92,93,94,95,96,97,98"/>
  <line x1="135" x2="160" y1="42.5" y2="42.5" class="net_83,84,85,86,87,88,89,90,91,92,93,94,95,96,97,98"/>
  <line x1="121.66666666666667" x2="170" y1="132.5" y2="132.5" class="net_50"/>
  <line x1="170" x2="170" y1="132.5" y2="47.5" class="net_50"/>
  <line x1="180" x2="215" y1="32.5" y2="32.5" class="net_34,35,36,37,38,39,40,41,42,43,44,45,46,47,48,49"/>
</svg>
